M48
; DRILL file {KiCad (5.1.5)-3} date 2020/4/8 14:33:14
; FORMAT={-:-/ absolute / inch / decimal}
; #@! TF.CreationDate,2020-04-08T14:33:14+08:00
; #@! TF.GenerationSoftware,Kicad,Pcbnew,(5.1.5)-3
; #@! TF.FileFunction,Plated,1,2,PTH
FMAT,2
INCH
T1C0.0080
T2C0.0236
T3C0.0256
T4C0.0354
T5C0.0394
%
G90
G05
T1
X4.0Y-4.2
X4.0Y-5.1
X4.0Y-5.3
X4.039Y-4.224
X4.137Y-4.607
X4.137Y-4.697
X4.146Y-4.377
X4.2Y-4.0
X4.2Y-4.151
X4.2Y-5.1
X4.24Y-4.49
X4.24Y-4.58
X4.24Y-4.71
X4.2445Y-4.8185
X4.253Y-4.281
X4.301Y-4.599
X4.31Y-4.71
X4.318Y-4.287
X4.325Y-4.575
X4.359Y-4.583
X4.38Y-4.71
X4.413Y-4.393
X4.421Y-4.622
X4.43Y-4.74
X4.441Y-4.393
X4.463Y-4.663
X4.492Y-4.69
X4.509Y-4.6065
X4.514Y-4.815
X4.521Y-5.097
X4.522Y-5.017
X4.522Y-5.057
X4.551Y-4.986
X4.552Y-4.164
X4.558Y-4.523
X4.575Y-5.235
X4.583Y-5.073
X4.592Y-4.164
X4.604Y-4.944
X4.612Y-4.582
X4.612Y-4.662
X4.612Y-4.693
X4.612Y-4.782
X4.6125Y-4.9095
X4.616Y-4.851
X4.619Y-4.635
X4.625Y-4.7255
X4.627Y-4.493
X4.6495Y-4.271
X4.665Y-4.978
X4.676Y-4.897
X4.693Y-4.741
X4.694Y-4.458
X4.694Y-4.529
X4.712Y-4.441
X4.72Y-4.7
X4.73Y-4.78
X4.73Y-4.84
X4.741Y-4.539
X4.742Y-4.897
X4.742Y-5.156
X4.742Y-4.977
X4.7461Y-4.3029
X4.7461Y-4.3779
X4.749Y-5.307
X4.761Y-5.235
X4.767Y-4.132
X4.772Y-4.629
X4.772Y-5.129
X4.7747Y-4.5438
X4.798Y-4.651
X4.802Y-5.104
X4.81Y-4.85
X4.81Y-4.88
X4.8161Y-5.123
X4.821Y-4.752
X4.821Y-4.779
X4.822Y-4.977
X4.8399Y-5.2641
X4.845Y-4.435
X4.852Y-4.977
X4.874Y-4.757
X4.874Y-4.784
X4.879Y-4.973
X4.884Y-4.6665
X4.885Y-4.867
X4.902Y-5.066
X4.903Y-4.535
X4.932Y-4.977
X4.935Y-5.105
X4.941Y-4.169
X4.947Y-4.015
X4.955Y-4.888
X4.966Y-5.069
X4.967Y-4.597
X4.967Y-4.627
X4.967Y-4.667
X4.967Y-4.707
X4.967Y-4.747
X4.972Y-4.977
X4.993Y-5.069
X5.0Y-4.8892
X5.0184Y-5.069
X5.019Y-4.762
X5.028Y-5.218
X5.03Y-5.13
X5.049Y-4.595
X5.051Y-5.177
X5.053Y-4.626
X5.055Y-4.747
X5.061Y-4.905
X5.086Y-5.091
X5.086Y-5.277
X5.087Y-4.972
X5.116Y-4.971
X5.144Y-4.648
X5.152Y-5.205
X5.162Y-4.543
X5.182Y-4.652
X5.183Y-4.835
X5.19Y-4.3185
X5.191Y-4.808
X5.193Y-4.756
X5.193Y-4.893
X5.197Y-4.578
X5.197Y-4.855
X5.197Y-5.18
X5.198Y-5.004
X5.203Y-5.157
X5.204Y-5.087
X5.21Y-4.445
X5.236Y-5.266
X5.258Y-4.795
X5.263Y-4.618
X5.266Y-4.719
X5.269Y-4.893
X5.27Y-4.82
X5.271Y-4.747
X5.28Y-4.697
X5.298Y-4.579
X5.298Y-4.677
X5.307Y-4.2615
X5.312Y-4.504
X5.317Y-4.539
X5.342Y-4.564
X5.357Y-4.317
X5.3772Y-4.302
X5.396Y-4.463
X5.3969Y-4.317
X5.4Y-4.942
X5.417Y-4.302
X5.4545Y-4.327
X5.488Y-4.736
X5.49Y-4.794
X5.494Y-4.161
X5.496Y-4.637
X5.513Y-4.452
X5.554Y-4.774
X5.555Y-4.579
X5.555Y-4.854
X5.5665Y-4.5015
X5.574Y-4.547
X5.574Y-4.79
X5.58Y-4.203
X5.591Y-4.303
X5.593Y-4.439
X5.646Y-4.484
X5.721Y-4.293
X5.834Y-4.105
X5.93Y-4.261
X5.932Y-4.375
X6.0Y-5.0
X6.1Y-4.2
T3
X5.227Y-5.042
X5.277Y-5.042
T4
X4.331Y-4.984
X4.331Y-5.034
X4.331Y-5.084
X4.331Y-5.134
T5
X5.367Y-5.242
X5.467Y-5.242
X5.567Y-5.242
X5.667Y-5.242
X5.767Y-5.242
X5.867Y-5.242
X5.712Y-4.447
X5.712Y-4.547
X5.712Y-4.647
X5.712Y-4.747
X5.712Y-4.847
X5.812Y-4.447
X5.812Y-4.547
X5.812Y-4.647
X5.812Y-4.747
X5.812Y-4.847
X4.8394Y-4.2701
X4.8394Y-4.3701
X4.9394Y-4.2701
X4.9394Y-4.3701
X5.0394Y-4.2701
X5.0394Y-4.3701
X5.1394Y-4.2701
X5.1394Y-4.3701
X5.2394Y-4.2701
X5.2394Y-4.3701
T2
G00X3.985Y-4.4756
M15
G01X4.0165Y-4.4756
M16
G05
G00X3.985Y-4.8157
M15
G01X4.0165Y-4.8157
M16
G05
G00X4.1433Y-4.4756
M15
G01X4.1866Y-4.4756
M16
G05
G00X4.1433Y-4.8157
M15
G01X4.1866Y-4.8157
M16
G05
T0
M30
