G04 #@! TF.GenerationSoftware,KiCad,Pcbnew,(5.1.5)-3*
G04 #@! TF.CreationDate,2020-04-08T14:33:05+08:00*
G04 #@! TF.ProjectId,vllink_highspeed.r0,766c6c69-6e6b-45f6-9869-676873706565,rev?*
G04 #@! TF.SameCoordinates,Original*
G04 #@! TF.FileFunction,Legend,Bot*
G04 #@! TF.FilePolarity,Positive*
%FSLAX46Y46*%
G04 Gerber Fmt 4.6, Leading zero omitted, Abs format (unit mm)*
G04 Created by KiCad (PCBNEW (5.1.5)-3) date 2020-04-08 14:33:05*
%MOMM*%
%LPD*%
G04 APERTURE LIST*
%ADD10C,0.304800*%
%ADD11C,0.120000*%
%ADD12C,0.150000*%
G04 APERTURE END LIST*
D10*
X122025428Y-101621003D02*
X123549428Y-102044337D01*
X122025428Y-102467670D01*
X123549428Y-103435289D02*
X122025428Y-103435289D01*
X123476857Y-103435289D02*
X123549428Y-103314337D01*
X123549428Y-103072432D01*
X123476857Y-102951480D01*
X123404285Y-102891003D01*
X123259142Y-102830527D01*
X122823714Y-102830527D01*
X122678571Y-102891003D01*
X122606000Y-102951480D01*
X122533428Y-103072432D01*
X122533428Y-103314337D01*
X122606000Y-103435289D01*
X123549428Y-104040051D02*
X122533428Y-104040051D01*
X122823714Y-104040051D02*
X122678571Y-104100527D01*
X122606000Y-104161003D01*
X122533428Y-104281956D01*
X122533428Y-104402908D01*
X122533428Y-104705289D02*
X123549428Y-105007670D01*
X122533428Y-105310051D01*
X125995085Y-102709575D02*
X126067657Y-102649099D01*
X126140228Y-102467670D01*
X126140228Y-102346718D01*
X126067657Y-102165289D01*
X125922514Y-102044337D01*
X125777371Y-101983860D01*
X125487085Y-101923384D01*
X125269371Y-101923384D01*
X124979085Y-101983860D01*
X124833942Y-102044337D01*
X124688800Y-102165289D01*
X124616228Y-102346718D01*
X124616228Y-102467670D01*
X124688800Y-102649099D01*
X124761371Y-102709575D01*
X126140228Y-103253860D02*
X124616228Y-103253860D01*
X125341942Y-103253860D02*
X125341942Y-103979575D01*
X126140228Y-103979575D02*
X124616228Y-103979575D01*
X126140228Y-105249575D02*
X126140228Y-104523860D01*
X126140228Y-104886718D02*
X124616228Y-104886718D01*
X124833942Y-104765765D01*
X124979085Y-104644813D01*
X125051657Y-104523860D01*
X128585885Y-102709575D02*
X128658457Y-102649099D01*
X128731028Y-102467670D01*
X128731028Y-102346718D01*
X128658457Y-102165289D01*
X128513314Y-102044337D01*
X128368171Y-101983860D01*
X128077885Y-101923384D01*
X127860171Y-101923384D01*
X127569885Y-101983860D01*
X127424742Y-102044337D01*
X127279600Y-102165289D01*
X127207028Y-102346718D01*
X127207028Y-102467670D01*
X127279600Y-102649099D01*
X127352171Y-102709575D01*
X128731028Y-103253860D02*
X127207028Y-103253860D01*
X127932742Y-103253860D02*
X127932742Y-103979575D01*
X128731028Y-103979575D02*
X127207028Y-103979575D01*
X127207028Y-104463384D02*
X127207028Y-105249575D01*
X127787600Y-104826241D01*
X127787600Y-105007670D01*
X127860171Y-105128622D01*
X127932742Y-105189099D01*
X128077885Y-105249575D01*
X128440742Y-105249575D01*
X128585885Y-105189099D01*
X128658457Y-105128622D01*
X128731028Y-105007670D01*
X128731028Y-104644813D01*
X128658457Y-104523860D01*
X128585885Y-104463384D01*
X129870400Y-102588622D02*
X129797828Y-102467670D01*
X129797828Y-102286241D01*
X129870400Y-102104813D01*
X130015542Y-101983860D01*
X130160685Y-101923384D01*
X130450971Y-101862908D01*
X130668685Y-101862908D01*
X130958971Y-101923384D01*
X131104114Y-101983860D01*
X131249257Y-102104813D01*
X131321828Y-102286241D01*
X131321828Y-102407194D01*
X131249257Y-102588622D01*
X131176685Y-102649099D01*
X130668685Y-102649099D01*
X130668685Y-102407194D01*
X131321828Y-103193384D02*
X129797828Y-103193384D01*
X131321828Y-103919099D01*
X129797828Y-103919099D01*
X131321828Y-104523860D02*
X129797828Y-104523860D01*
X129797828Y-104826241D01*
X129870400Y-105007670D01*
X130015542Y-105128622D01*
X130160685Y-105189099D01*
X130450971Y-105249575D01*
X130668685Y-105249575D01*
X130958971Y-105189099D01*
X131104114Y-105128622D01*
X131249257Y-105007670D01*
X131321828Y-104826241D01*
X131321828Y-104523860D01*
X133912628Y-102830527D02*
X133186914Y-102407194D01*
X133912628Y-102104813D02*
X132388628Y-102104813D01*
X132388628Y-102588622D01*
X132461200Y-102709575D01*
X132533771Y-102770051D01*
X132678914Y-102830527D01*
X132896628Y-102830527D01*
X133041771Y-102770051D01*
X133114342Y-102709575D01*
X133186914Y-102588622D01*
X133186914Y-102104813D01*
X132388628Y-103253860D02*
X133912628Y-104100527D01*
X132388628Y-104100527D02*
X133912628Y-103253860D01*
X132533771Y-104523860D02*
X132461200Y-104584337D01*
X132388628Y-104705289D01*
X132388628Y-105007670D01*
X132461200Y-105128622D01*
X132533771Y-105189099D01*
X132678914Y-105249575D01*
X132824057Y-105249575D01*
X133041771Y-105189099D01*
X133912628Y-104463384D01*
X133912628Y-105249575D01*
X155738727Y-111992428D02*
X155315394Y-113516428D01*
X154892060Y-111992428D01*
X153924441Y-113516428D02*
X153924441Y-111992428D01*
X153924441Y-113443857D02*
X154045394Y-113516428D01*
X154287299Y-113516428D01*
X154408251Y-113443857D01*
X154468727Y-113371285D01*
X154529203Y-113226142D01*
X154529203Y-112790714D01*
X154468727Y-112645571D01*
X154408251Y-112573000D01*
X154287299Y-112500428D01*
X154045394Y-112500428D01*
X153924441Y-112573000D01*
X153319680Y-113516428D02*
X153319680Y-112500428D01*
X153319680Y-112790714D02*
X153259203Y-112645571D01*
X153198727Y-112573000D01*
X153077775Y-112500428D01*
X152956822Y-112500428D01*
X152654441Y-112500428D02*
X152352060Y-113516428D01*
X152049680Y-112500428D01*
X154892060Y-114655800D02*
X155013013Y-114583228D01*
X155194441Y-114583228D01*
X155375870Y-114655800D01*
X155496822Y-114800942D01*
X155557299Y-114946085D01*
X155617775Y-115236371D01*
X155617775Y-115454085D01*
X155557299Y-115744371D01*
X155496822Y-115889514D01*
X155375870Y-116034657D01*
X155194441Y-116107228D01*
X155073489Y-116107228D01*
X154892060Y-116034657D01*
X154831584Y-115962085D01*
X154831584Y-115454085D01*
X155073489Y-115454085D01*
X154287299Y-116107228D02*
X154287299Y-114583228D01*
X153561584Y-116107228D01*
X153561584Y-114583228D01*
X152956822Y-116107228D02*
X152956822Y-114583228D01*
X152654441Y-114583228D01*
X152473013Y-114655800D01*
X152352060Y-114800942D01*
X152291584Y-114946085D01*
X152231108Y-115236371D01*
X152231108Y-115454085D01*
X152291584Y-115744371D01*
X152352060Y-115889514D01*
X152473013Y-116034657D01*
X152654441Y-116107228D01*
X152956822Y-116107228D01*
X155738727Y-117174028D02*
X155013013Y-117174028D01*
X155375870Y-118698028D02*
X155375870Y-117174028D01*
X153863965Y-118698028D02*
X154287299Y-117972314D01*
X154589680Y-118698028D02*
X154589680Y-117174028D01*
X154105870Y-117174028D01*
X153984918Y-117246600D01*
X153924441Y-117319171D01*
X153863965Y-117464314D01*
X153863965Y-117682028D01*
X153924441Y-117827171D01*
X153984918Y-117899742D01*
X154105870Y-117972314D01*
X154589680Y-117972314D01*
X153380156Y-118625457D02*
X153198727Y-118698028D01*
X152896346Y-118698028D01*
X152775394Y-118625457D01*
X152714918Y-118552885D01*
X152654441Y-118407742D01*
X152654441Y-118262600D01*
X152714918Y-118117457D01*
X152775394Y-118044885D01*
X152896346Y-117972314D01*
X153138251Y-117899742D01*
X153259203Y-117827171D01*
X153319680Y-117754600D01*
X153380156Y-117609457D01*
X153380156Y-117464314D01*
X153319680Y-117319171D01*
X153259203Y-117246600D01*
X153138251Y-117174028D01*
X152835870Y-117174028D01*
X152654441Y-117246600D01*
X152291584Y-117174028D02*
X151565870Y-117174028D01*
X151928727Y-118698028D02*
X151928727Y-117174028D01*
X155738727Y-119764828D02*
X155013013Y-119764828D01*
X155375870Y-121288828D02*
X155375870Y-119764828D01*
X154710632Y-119764828D02*
X153863965Y-121288828D01*
X153863965Y-119764828D02*
X154710632Y-121288828D01*
X152714918Y-121288828D02*
X153440632Y-121288828D01*
X153077775Y-121288828D02*
X153077775Y-119764828D01*
X153198727Y-119982542D01*
X153319680Y-120127685D01*
X153440632Y-120200257D01*
X154831584Y-123879628D02*
X155254918Y-123153914D01*
X155557299Y-123879628D02*
X155557299Y-122355628D01*
X155073489Y-122355628D01*
X154952537Y-122428200D01*
X154892060Y-122500771D01*
X154831584Y-122645914D01*
X154831584Y-122863628D01*
X154892060Y-123008771D01*
X154952537Y-123081342D01*
X155073489Y-123153914D01*
X155557299Y-123153914D01*
X154408251Y-122355628D02*
X153561584Y-123879628D01*
X153561584Y-122355628D02*
X154408251Y-123879628D01*
X152412537Y-123879628D02*
X153138251Y-123879628D01*
X152775394Y-123879628D02*
X152775394Y-122355628D01*
X152896346Y-122573342D01*
X153017299Y-122718485D01*
X153138251Y-122791057D01*
D11*
X138293500Y-108005000D02*
X138293500Y-108505000D01*
X140573500Y-108005000D02*
X140573500Y-108505000D01*
X129910000Y-126924000D02*
G75*
G03X129910000Y-126924000I-700000J0D01*
G01*
X127878000Y-123368000D02*
G75*
G03X127878000Y-123368000I-700000J0D01*
G01*
X127497000Y-119558000D02*
G75*
G03X127497000Y-119558000I-700000J0D01*
G01*
X133466000Y-126289000D02*
G75*
G03X133466000Y-126289000I-700000J0D01*
G01*
X116067000Y-114427200D02*
G75*
G03X116067000Y-114427200I-700000J0D01*
G01*
X113654000Y-130099000D02*
G75*
G03X113654000Y-130099000I-700000J0D01*
G01*
X137022000Y-134798000D02*
G75*
G03X137022000Y-134798000I-700000J0D01*
G01*
X139562000Y-134798000D02*
G75*
G03X139562000Y-134798000I-700000J0D01*
G01*
X113654000Y-126797000D02*
G75*
G03X113654000Y-126797000I-700000J0D01*
G01*
X142102000Y-134798000D02*
G75*
G03X142102000Y-134798000I-700000J0D01*
G01*
X144642000Y-134798000D02*
G75*
G03X144642000Y-134798000I-700000J0D01*
G01*
X147182000Y-134798000D02*
G75*
G03X147182000Y-134798000I-700000J0D01*
G01*
X113654000Y-128448000D02*
G75*
G03X113654000Y-128448000I-700000J0D01*
G01*
X149722000Y-134798000D02*
G75*
G03X149722000Y-134798000I-700000J0D01*
G01*
X119496000Y-111684000D02*
G75*
G03X119496000Y-111684000I-700000J0D01*
G01*
X102986000Y-107874000D02*
G75*
G03X102986000Y-107874000I-700000J0D01*
G01*
X121336000Y-134691000D02*
X117886000Y-134691000D01*
X121336000Y-134691000D02*
X123286000Y-134691000D01*
X121336000Y-129571000D02*
X119386000Y-129571000D01*
X121336000Y-129571000D02*
X123286000Y-129571000D01*
D12*
X139751000Y-112850000D02*
X140826000Y-112850000D01*
X139751000Y-125425000D02*
X133401000Y-125425000D01*
X139751000Y-112675000D02*
X133401000Y-112675000D01*
X139751000Y-125425000D02*
X139751000Y-125167500D01*
X133401000Y-125425000D02*
X133401000Y-125167500D01*
X133401000Y-112675000D02*
X133401000Y-112932500D01*
X139751000Y-112675000D02*
X139751000Y-112850000D01*
D11*
X127374000Y-134596000D02*
X125699000Y-134596000D01*
X127374000Y-134856000D02*
X127374000Y-134596000D01*
X130099000Y-134856000D02*
X127374000Y-134856000D01*
X132824000Y-134856000D02*
X132824000Y-134596000D01*
X130099000Y-134856000D02*
X132824000Y-134856000D01*
X127374000Y-129406000D02*
X127374000Y-129666000D01*
X130099000Y-129406000D02*
X127374000Y-129406000D01*
X132824000Y-129406000D02*
X132824000Y-129666000D01*
X130099000Y-129406000D02*
X132824000Y-129406000D01*
X151050000Y-117910000D02*
X150550000Y-117910000D01*
X151050000Y-120190000D02*
X150550000Y-120190000D01*
X151050000Y-114658800D02*
X150550000Y-114658800D01*
X151050000Y-116938800D02*
X150550000Y-116938800D01*
X138293500Y-110545000D02*
X138293500Y-111045000D01*
X140573500Y-110545000D02*
X140573500Y-111045000D01*
X135690000Y-110545000D02*
X135690000Y-111045000D01*
X137970000Y-110545000D02*
X137970000Y-111045000D01*
X142795000Y-117910000D02*
X142295000Y-117910000D01*
X142795000Y-120190000D02*
X142295000Y-120190000D01*
X142795000Y-114658800D02*
X142295000Y-114658800D01*
X142795000Y-116938800D02*
X142295000Y-116938800D01*
D12*
X149986942Y-112844342D02*
X150034561Y-112796723D01*
X150082180Y-112653866D01*
X150082180Y-112558628D01*
X150034561Y-112415771D01*
X149939323Y-112320533D01*
X149844085Y-112272914D01*
X149653609Y-112225295D01*
X149510752Y-112225295D01*
X149320276Y-112272914D01*
X149225038Y-112320533D01*
X149129800Y-112415771D01*
X149082180Y-112558628D01*
X149082180Y-112653866D01*
X149129800Y-112796723D01*
X149177419Y-112844342D01*
X149082180Y-113749104D02*
X149082180Y-113272914D01*
X149558371Y-113225295D01*
X149510752Y-113272914D01*
X149463133Y-113368152D01*
X149463133Y-113606247D01*
X149510752Y-113701485D01*
X149558371Y-113749104D01*
X149653609Y-113796723D01*
X149891704Y-113796723D01*
X149986942Y-113749104D01*
X150034561Y-113701485D01*
X150082180Y-113606247D01*
X150082180Y-113368152D01*
X150034561Y-113272914D01*
X149986942Y-113225295D01*
X149082180Y-114130057D02*
X149082180Y-114749104D01*
X149463133Y-114415771D01*
X149463133Y-114558628D01*
X149510752Y-114653866D01*
X149558371Y-114701485D01*
X149653609Y-114749104D01*
X149891704Y-114749104D01*
X149986942Y-114701485D01*
X150034561Y-114653866D01*
X150082180Y-114558628D01*
X150082180Y-114272914D01*
X150034561Y-114177676D01*
X149986942Y-114130057D01*
X143136857Y-113133142D02*
X143184476Y-113180761D01*
X143327333Y-113228380D01*
X143422571Y-113228380D01*
X143565428Y-113180761D01*
X143660666Y-113085523D01*
X143708285Y-112990285D01*
X143755904Y-112799809D01*
X143755904Y-112656952D01*
X143708285Y-112466476D01*
X143660666Y-112371238D01*
X143565428Y-112276000D01*
X143422571Y-112228380D01*
X143327333Y-112228380D01*
X143184476Y-112276000D01*
X143136857Y-112323619D01*
X142232095Y-112228380D02*
X142708285Y-112228380D01*
X142755904Y-112704571D01*
X142708285Y-112656952D01*
X142613047Y-112609333D01*
X142374952Y-112609333D01*
X142279714Y-112656952D01*
X142232095Y-112704571D01*
X142184476Y-112799809D01*
X142184476Y-113037904D01*
X142232095Y-113133142D01*
X142279714Y-113180761D01*
X142374952Y-113228380D01*
X142613047Y-113228380D01*
X142708285Y-113180761D01*
X142755904Y-113133142D01*
X141803523Y-112323619D02*
X141755904Y-112276000D01*
X141660666Y-112228380D01*
X141422571Y-112228380D01*
X141327333Y-112276000D01*
X141279714Y-112323619D01*
X141232095Y-112418857D01*
X141232095Y-112514095D01*
X141279714Y-112656952D01*
X141851142Y-113228380D01*
X141232095Y-113228380D01*
X121415142Y-109085142D02*
X121462761Y-109037523D01*
X121510380Y-108894666D01*
X121510380Y-108799428D01*
X121462761Y-108656571D01*
X121367523Y-108561333D01*
X121272285Y-108513714D01*
X121081809Y-108466095D01*
X120938952Y-108466095D01*
X120748476Y-108513714D01*
X120653238Y-108561333D01*
X120558000Y-108656571D01*
X120510380Y-108799428D01*
X120510380Y-108894666D01*
X120558000Y-109037523D01*
X120605619Y-109085142D01*
X120510380Y-109989904D02*
X120510380Y-109513714D01*
X120986571Y-109466095D01*
X120938952Y-109513714D01*
X120891333Y-109608952D01*
X120891333Y-109847047D01*
X120938952Y-109942285D01*
X120986571Y-109989904D01*
X121081809Y-110037523D01*
X121319904Y-110037523D01*
X121415142Y-109989904D01*
X121462761Y-109942285D01*
X121510380Y-109847047D01*
X121510380Y-109608952D01*
X121462761Y-109513714D01*
X121415142Y-109466095D01*
X121510380Y-110989904D02*
X121510380Y-110418476D01*
X121510380Y-110704190D02*
X120510380Y-110704190D01*
X120653238Y-110608952D01*
X120748476Y-110513714D01*
X120796095Y-110418476D01*
X141930380Y-106751523D02*
X141454190Y-106418190D01*
X141930380Y-106180095D02*
X140930380Y-106180095D01*
X140930380Y-106561047D01*
X140978000Y-106656285D01*
X141025619Y-106703904D01*
X141120857Y-106751523D01*
X141263714Y-106751523D01*
X141358952Y-106703904D01*
X141406571Y-106656285D01*
X141454190Y-106561047D01*
X141454190Y-106180095D01*
X141930380Y-107180095D02*
X140930380Y-107180095D01*
X141930380Y-107751523D01*
X140930380Y-107751523D01*
X141358952Y-108370571D02*
X141311333Y-108275333D01*
X141263714Y-108227714D01*
X141168476Y-108180095D01*
X141120857Y-108180095D01*
X141025619Y-108227714D01*
X140978000Y-108275333D01*
X140930380Y-108370571D01*
X140930380Y-108561047D01*
X140978000Y-108656285D01*
X141025619Y-108703904D01*
X141120857Y-108751523D01*
X141168476Y-108751523D01*
X141263714Y-108703904D01*
X141311333Y-108656285D01*
X141358952Y-108561047D01*
X141358952Y-108370571D01*
X141406571Y-108275333D01*
X141454190Y-108227714D01*
X141549428Y-108180095D01*
X141739904Y-108180095D01*
X141835142Y-108227714D01*
X141882761Y-108275333D01*
X141930380Y-108370571D01*
X141930380Y-108561047D01*
X141882761Y-108656285D01*
X141835142Y-108703904D01*
X141739904Y-108751523D01*
X141549428Y-108751523D01*
X141454190Y-108703904D01*
X141406571Y-108656285D01*
X141358952Y-108561047D01*
X131786095Y-127976380D02*
X131214666Y-127976380D01*
X131500380Y-128976380D02*
X131500380Y-127976380D01*
X130881333Y-128976380D02*
X130881333Y-127976380D01*
X130500380Y-127976380D01*
X130405142Y-128024000D01*
X130357523Y-128071619D01*
X130309904Y-128166857D01*
X130309904Y-128309714D01*
X130357523Y-128404952D01*
X130405142Y-128452571D01*
X130500380Y-128500190D01*
X130881333Y-128500190D01*
X129357523Y-128976380D02*
X129928952Y-128976380D01*
X129643238Y-128976380D02*
X129643238Y-127976380D01*
X129738476Y-128119238D01*
X129833714Y-128214476D01*
X129928952Y-128262095D01*
X129024190Y-127976380D02*
X128357523Y-127976380D01*
X128786095Y-128976380D01*
X127214380Y-119165904D02*
X127214380Y-119737333D01*
X128214380Y-119451619D02*
X127214380Y-119451619D01*
X128214380Y-120070666D02*
X127214380Y-120070666D01*
X127214380Y-120451619D01*
X127262000Y-120546857D01*
X127309619Y-120594476D01*
X127404857Y-120642095D01*
X127547714Y-120642095D01*
X127642952Y-120594476D01*
X127690571Y-120546857D01*
X127738190Y-120451619D01*
X127738190Y-120070666D01*
X128214380Y-121594476D02*
X128214380Y-121023047D01*
X128214380Y-121308761D02*
X127214380Y-121308761D01*
X127357238Y-121213523D01*
X127452476Y-121118285D01*
X127500095Y-121023047D01*
X127214380Y-122451619D02*
X127214380Y-122261142D01*
X127262000Y-122165904D01*
X127309619Y-122118285D01*
X127452476Y-122023047D01*
X127642952Y-121975428D01*
X128023904Y-121975428D01*
X128119142Y-122023047D01*
X128166761Y-122070666D01*
X128214380Y-122165904D01*
X128214380Y-122356380D01*
X128166761Y-122451619D01*
X128119142Y-122499238D01*
X128023904Y-122546857D01*
X127785809Y-122546857D01*
X127690571Y-122499238D01*
X127642952Y-122451619D01*
X127595333Y-122356380D01*
X127595333Y-122165904D01*
X127642952Y-122070666D01*
X127690571Y-122023047D01*
X127785809Y-121975428D01*
X126960380Y-115355904D02*
X126960380Y-115927333D01*
X127960380Y-115641619D02*
X126960380Y-115641619D01*
X127960380Y-116260666D02*
X126960380Y-116260666D01*
X126960380Y-116641619D01*
X127008000Y-116736857D01*
X127055619Y-116784476D01*
X127150857Y-116832095D01*
X127293714Y-116832095D01*
X127388952Y-116784476D01*
X127436571Y-116736857D01*
X127484190Y-116641619D01*
X127484190Y-116260666D01*
X127960380Y-117784476D02*
X127960380Y-117213047D01*
X127960380Y-117498761D02*
X126960380Y-117498761D01*
X127103238Y-117403523D01*
X127198476Y-117308285D01*
X127246095Y-117213047D01*
X126960380Y-118689238D02*
X126960380Y-118213047D01*
X127436571Y-118165428D01*
X127388952Y-118213047D01*
X127341333Y-118308285D01*
X127341333Y-118546380D01*
X127388952Y-118641619D01*
X127436571Y-118689238D01*
X127531809Y-118736857D01*
X127769904Y-118736857D01*
X127865142Y-118689238D01*
X127912761Y-118641619D01*
X127960380Y-118546380D01*
X127960380Y-118308285D01*
X127912761Y-118213047D01*
X127865142Y-118165428D01*
X137120095Y-125944380D02*
X136548666Y-125944380D01*
X136834380Y-126944380D02*
X136834380Y-125944380D01*
X136215333Y-126944380D02*
X136215333Y-125944380D01*
X135834380Y-125944380D01*
X135739142Y-125992000D01*
X135691523Y-126039619D01*
X135643904Y-126134857D01*
X135643904Y-126277714D01*
X135691523Y-126372952D01*
X135739142Y-126420571D01*
X135834380Y-126468190D01*
X136215333Y-126468190D01*
X134691523Y-126944380D02*
X135262952Y-126944380D01*
X134977238Y-126944380D02*
X134977238Y-125944380D01*
X135072476Y-126087238D01*
X135167714Y-126182476D01*
X135262952Y-126230095D01*
X133834380Y-126277714D02*
X133834380Y-126944380D01*
X134072476Y-125896761D02*
X134310571Y-126611047D01*
X133691523Y-126611047D01*
X117308095Y-112228380D02*
X116736666Y-112228380D01*
X117022380Y-113228380D02*
X117022380Y-112228380D01*
X116403333Y-113228380D02*
X116403333Y-112228380D01*
X116022380Y-112228380D01*
X115927142Y-112276000D01*
X115879523Y-112323619D01*
X115831904Y-112418857D01*
X115831904Y-112561714D01*
X115879523Y-112656952D01*
X115927142Y-112704571D01*
X116022380Y-112752190D01*
X116403333Y-112752190D01*
X114879523Y-113228380D02*
X115450952Y-113228380D01*
X115165238Y-113228380D02*
X115165238Y-112228380D01*
X115260476Y-112371238D01*
X115355714Y-112466476D01*
X115450952Y-112514095D01*
X114546190Y-112228380D02*
X113927142Y-112228380D01*
X114260476Y-112609333D01*
X114117619Y-112609333D01*
X114022380Y-112656952D01*
X113974761Y-112704571D01*
X113927142Y-112799809D01*
X113927142Y-113037904D01*
X113974761Y-113133142D01*
X114022380Y-113180761D01*
X114117619Y-113228380D01*
X114403333Y-113228380D01*
X114498571Y-113180761D01*
X114546190Y-113133142D01*
X108672095Y-129500380D02*
X108100666Y-129500380D01*
X108386380Y-130500380D02*
X108386380Y-129500380D01*
X107767333Y-130500380D02*
X107767333Y-129500380D01*
X107386380Y-129500380D01*
X107291142Y-129548000D01*
X107243523Y-129595619D01*
X107195904Y-129690857D01*
X107195904Y-129833714D01*
X107243523Y-129928952D01*
X107291142Y-129976571D01*
X107386380Y-130024190D01*
X107767333Y-130024190D01*
X106243523Y-130500380D02*
X106814952Y-130500380D01*
X106529238Y-130500380D02*
X106529238Y-129500380D01*
X106624476Y-129643238D01*
X106719714Y-129738476D01*
X106814952Y-129786095D01*
X105862571Y-129595619D02*
X105814952Y-129548000D01*
X105719714Y-129500380D01*
X105481619Y-129500380D01*
X105386380Y-129548000D01*
X105338761Y-129595619D01*
X105291142Y-129690857D01*
X105291142Y-129786095D01*
X105338761Y-129928952D01*
X105910190Y-130500380D01*
X105291142Y-130500380D01*
X135774380Y-128563904D02*
X135774380Y-129135333D01*
X136774380Y-128849619D02*
X135774380Y-128849619D01*
X136774380Y-129468666D02*
X135774380Y-129468666D01*
X135774380Y-129849619D01*
X135822000Y-129944857D01*
X135869619Y-129992476D01*
X135964857Y-130040095D01*
X136107714Y-130040095D01*
X136202952Y-129992476D01*
X136250571Y-129944857D01*
X136298190Y-129849619D01*
X136298190Y-129468666D01*
X136774380Y-130992476D02*
X136774380Y-130421047D01*
X136774380Y-130706761D02*
X135774380Y-130706761D01*
X135917238Y-130611523D01*
X136012476Y-130516285D01*
X136060095Y-130421047D01*
X136774380Y-131944857D02*
X136774380Y-131373428D01*
X136774380Y-131659142D02*
X135774380Y-131659142D01*
X135917238Y-131563904D01*
X136012476Y-131468666D01*
X136060095Y-131373428D01*
X138314380Y-128532095D02*
X138314380Y-129103523D01*
X139314380Y-128817809D02*
X138314380Y-128817809D01*
X139314380Y-129436857D02*
X138314380Y-129436857D01*
X138314380Y-129817809D01*
X138362000Y-129913047D01*
X138409619Y-129960666D01*
X138504857Y-130008285D01*
X138647714Y-130008285D01*
X138742952Y-129960666D01*
X138790571Y-129913047D01*
X138838190Y-129817809D01*
X138838190Y-129436857D01*
X139314380Y-130484476D02*
X139314380Y-130674952D01*
X139266761Y-130770190D01*
X139219142Y-130817809D01*
X139076285Y-130913047D01*
X138885809Y-130960666D01*
X138504857Y-130960666D01*
X138409619Y-130913047D01*
X138362000Y-130865428D01*
X138314380Y-130770190D01*
X138314380Y-130579714D01*
X138362000Y-130484476D01*
X138409619Y-130436857D01*
X138504857Y-130389238D01*
X138742952Y-130389238D01*
X138838190Y-130436857D01*
X138885809Y-130484476D01*
X138933428Y-130579714D01*
X138933428Y-130770190D01*
X138885809Y-130865428D01*
X138838190Y-130913047D01*
X138742952Y-130960666D01*
X108703904Y-126452380D02*
X108132476Y-126452380D01*
X108418190Y-127452380D02*
X108418190Y-126452380D01*
X107799142Y-127452380D02*
X107799142Y-126452380D01*
X107418190Y-126452380D01*
X107322952Y-126500000D01*
X107275333Y-126547619D01*
X107227714Y-126642857D01*
X107227714Y-126785714D01*
X107275333Y-126880952D01*
X107322952Y-126928571D01*
X107418190Y-126976190D01*
X107799142Y-126976190D01*
X106656285Y-126880952D02*
X106751523Y-126833333D01*
X106799142Y-126785714D01*
X106846761Y-126690476D01*
X106846761Y-126642857D01*
X106799142Y-126547619D01*
X106751523Y-126500000D01*
X106656285Y-126452380D01*
X106465809Y-126452380D01*
X106370571Y-126500000D01*
X106322952Y-126547619D01*
X106275333Y-126642857D01*
X106275333Y-126690476D01*
X106322952Y-126785714D01*
X106370571Y-126833333D01*
X106465809Y-126880952D01*
X106656285Y-126880952D01*
X106751523Y-126928571D01*
X106799142Y-126976190D01*
X106846761Y-127071428D01*
X106846761Y-127261904D01*
X106799142Y-127357142D01*
X106751523Y-127404761D01*
X106656285Y-127452380D01*
X106465809Y-127452380D01*
X106370571Y-127404761D01*
X106322952Y-127357142D01*
X106275333Y-127261904D01*
X106275333Y-127071428D01*
X106322952Y-126976190D01*
X106370571Y-126928571D01*
X106465809Y-126880952D01*
X140854380Y-128532095D02*
X140854380Y-129103523D01*
X141854380Y-128817809D02*
X140854380Y-128817809D01*
X141854380Y-129436857D02*
X140854380Y-129436857D01*
X140854380Y-129817809D01*
X140902000Y-129913047D01*
X140949619Y-129960666D01*
X141044857Y-130008285D01*
X141187714Y-130008285D01*
X141282952Y-129960666D01*
X141330571Y-129913047D01*
X141378190Y-129817809D01*
X141378190Y-129436857D01*
X140854380Y-130341619D02*
X140854380Y-131008285D01*
X141854380Y-130579714D01*
X143394380Y-128532095D02*
X143394380Y-129103523D01*
X144394380Y-128817809D02*
X143394380Y-128817809D01*
X144394380Y-129436857D02*
X143394380Y-129436857D01*
X143394380Y-129817809D01*
X143442000Y-129913047D01*
X143489619Y-129960666D01*
X143584857Y-130008285D01*
X143727714Y-130008285D01*
X143822952Y-129960666D01*
X143870571Y-129913047D01*
X143918190Y-129817809D01*
X143918190Y-129436857D01*
X143394380Y-130865428D02*
X143394380Y-130674952D01*
X143442000Y-130579714D01*
X143489619Y-130532095D01*
X143632476Y-130436857D01*
X143822952Y-130389238D01*
X144203904Y-130389238D01*
X144299142Y-130436857D01*
X144346761Y-130484476D01*
X144394380Y-130579714D01*
X144394380Y-130770190D01*
X144346761Y-130865428D01*
X144299142Y-130913047D01*
X144203904Y-130960666D01*
X143965809Y-130960666D01*
X143870571Y-130913047D01*
X143822952Y-130865428D01*
X143775333Y-130770190D01*
X143775333Y-130579714D01*
X143822952Y-130484476D01*
X143870571Y-130436857D01*
X143965809Y-130389238D01*
X145934380Y-128532095D02*
X145934380Y-129103523D01*
X146934380Y-128817809D02*
X145934380Y-128817809D01*
X146934380Y-129436857D02*
X145934380Y-129436857D01*
X145934380Y-129817809D01*
X145982000Y-129913047D01*
X146029619Y-129960666D01*
X146124857Y-130008285D01*
X146267714Y-130008285D01*
X146362952Y-129960666D01*
X146410571Y-129913047D01*
X146458190Y-129817809D01*
X146458190Y-129436857D01*
X145934380Y-130913047D02*
X145934380Y-130436857D01*
X146410571Y-130389238D01*
X146362952Y-130436857D01*
X146315333Y-130532095D01*
X146315333Y-130770190D01*
X146362952Y-130865428D01*
X146410571Y-130913047D01*
X146505809Y-130960666D01*
X146743904Y-130960666D01*
X146839142Y-130913047D01*
X146886761Y-130865428D01*
X146934380Y-130770190D01*
X146934380Y-130532095D01*
X146886761Y-130436857D01*
X146839142Y-130389238D01*
X108703904Y-127976380D02*
X108132476Y-127976380D01*
X108418190Y-128976380D02*
X108418190Y-127976380D01*
X107799142Y-128976380D02*
X107799142Y-127976380D01*
X107418190Y-127976380D01*
X107322952Y-128024000D01*
X107275333Y-128071619D01*
X107227714Y-128166857D01*
X107227714Y-128309714D01*
X107275333Y-128404952D01*
X107322952Y-128452571D01*
X107418190Y-128500190D01*
X107799142Y-128500190D01*
X106370571Y-128309714D02*
X106370571Y-128976380D01*
X106608666Y-127928761D02*
X106846761Y-128643047D01*
X106227714Y-128643047D01*
X148474380Y-128532095D02*
X148474380Y-129103523D01*
X149474380Y-128817809D02*
X148474380Y-128817809D01*
X149474380Y-129436857D02*
X148474380Y-129436857D01*
X148474380Y-129817809D01*
X148522000Y-129913047D01*
X148569619Y-129960666D01*
X148664857Y-130008285D01*
X148807714Y-130008285D01*
X148902952Y-129960666D01*
X148950571Y-129913047D01*
X148998190Y-129817809D01*
X148998190Y-129436857D01*
X148474380Y-130341619D02*
X148474380Y-130960666D01*
X148855333Y-130627333D01*
X148855333Y-130770190D01*
X148902952Y-130865428D01*
X148950571Y-130913047D01*
X149045809Y-130960666D01*
X149283904Y-130960666D01*
X149379142Y-130913047D01*
X149426761Y-130865428D01*
X149474380Y-130770190D01*
X149474380Y-130484476D01*
X149426761Y-130389238D01*
X149379142Y-130341619D01*
X119117904Y-109688380D02*
X118546476Y-109688380D01*
X118832190Y-110688380D02*
X118832190Y-109688380D01*
X118213142Y-110688380D02*
X118213142Y-109688380D01*
X117832190Y-109688380D01*
X117736952Y-109736000D01*
X117689333Y-109783619D01*
X117641714Y-109878857D01*
X117641714Y-110021714D01*
X117689333Y-110116952D01*
X117736952Y-110164571D01*
X117832190Y-110212190D01*
X118213142Y-110212190D01*
X117260761Y-109783619D02*
X117213142Y-109736000D01*
X117117904Y-109688380D01*
X116879809Y-109688380D01*
X116784571Y-109736000D01*
X116736952Y-109783619D01*
X116689333Y-109878857D01*
X116689333Y-109974095D01*
X116736952Y-110116952D01*
X117308380Y-110688380D01*
X116689333Y-110688380D01*
X103547904Y-108774380D02*
X102976476Y-108774380D01*
X103262190Y-109774380D02*
X103262190Y-108774380D01*
X102643142Y-109774380D02*
X102643142Y-108774380D01*
X102262190Y-108774380D01*
X102166952Y-108822000D01*
X102119333Y-108869619D01*
X102071714Y-108964857D01*
X102071714Y-109107714D01*
X102119333Y-109202952D01*
X102166952Y-109250571D01*
X102262190Y-109298190D01*
X102643142Y-109298190D01*
X101119333Y-109774380D02*
X101690761Y-109774380D01*
X101405047Y-109774380D02*
X101405047Y-108774380D01*
X101500285Y-108917238D01*
X101595523Y-109012476D01*
X101690761Y-109060095D01*
X123578857Y-116276380D02*
X123912190Y-115800190D01*
X124150285Y-116276380D02*
X124150285Y-115276380D01*
X123769333Y-115276380D01*
X123674095Y-115324000D01*
X123626476Y-115371619D01*
X123578857Y-115466857D01*
X123578857Y-115609714D01*
X123626476Y-115704952D01*
X123674095Y-115752571D01*
X123769333Y-115800190D01*
X124150285Y-115800190D01*
X122721714Y-115609714D02*
X122721714Y-116276380D01*
X122959809Y-115228761D02*
X123197904Y-115943047D01*
X122578857Y-115943047D01*
X122007428Y-115276380D02*
X121912190Y-115276380D01*
X121816952Y-115324000D01*
X121769333Y-115371619D01*
X121721714Y-115466857D01*
X121674095Y-115657333D01*
X121674095Y-115895428D01*
X121721714Y-116085904D01*
X121769333Y-116181142D01*
X121816952Y-116228761D01*
X121912190Y-116276380D01*
X122007428Y-116276380D01*
X122102666Y-116228761D01*
X122150285Y-116181142D01*
X122197904Y-116085904D01*
X122245523Y-115895428D01*
X122245523Y-115657333D01*
X122197904Y-115466857D01*
X122150285Y-115371619D01*
X122102666Y-115324000D01*
X122007428Y-115276380D01*
X123578857Y-117546380D02*
X123912190Y-117070190D01*
X124150285Y-117546380D02*
X124150285Y-116546380D01*
X123769333Y-116546380D01*
X123674095Y-116594000D01*
X123626476Y-116641619D01*
X123578857Y-116736857D01*
X123578857Y-116879714D01*
X123626476Y-116974952D01*
X123674095Y-117022571D01*
X123769333Y-117070190D01*
X124150285Y-117070190D01*
X123245523Y-116546380D02*
X122626476Y-116546380D01*
X122959809Y-116927333D01*
X122816952Y-116927333D01*
X122721714Y-116974952D01*
X122674095Y-117022571D01*
X122626476Y-117117809D01*
X122626476Y-117355904D01*
X122674095Y-117451142D01*
X122721714Y-117498761D01*
X122816952Y-117546380D01*
X123102666Y-117546380D01*
X123197904Y-117498761D01*
X123245523Y-117451142D01*
X122150285Y-117546380D02*
X121959809Y-117546380D01*
X121864571Y-117498761D01*
X121816952Y-117451142D01*
X121721714Y-117308285D01*
X121674095Y-117117809D01*
X121674095Y-116736857D01*
X121721714Y-116641619D01*
X121769333Y-116594000D01*
X121864571Y-116546380D01*
X122055047Y-116546380D01*
X122150285Y-116594000D01*
X122197904Y-116641619D01*
X122245523Y-116736857D01*
X122245523Y-116974952D01*
X122197904Y-117070190D01*
X122150285Y-117117809D01*
X122055047Y-117165428D01*
X121864571Y-117165428D01*
X121769333Y-117117809D01*
X121721714Y-117070190D01*
X121674095Y-116974952D01*
X123578857Y-118816380D02*
X123912190Y-118340190D01*
X124150285Y-118816380D02*
X124150285Y-117816380D01*
X123769333Y-117816380D01*
X123674095Y-117864000D01*
X123626476Y-117911619D01*
X123578857Y-118006857D01*
X123578857Y-118149714D01*
X123626476Y-118244952D01*
X123674095Y-118292571D01*
X123769333Y-118340190D01*
X124150285Y-118340190D01*
X123245523Y-117816380D02*
X122626476Y-117816380D01*
X122959809Y-118197333D01*
X122816952Y-118197333D01*
X122721714Y-118244952D01*
X122674095Y-118292571D01*
X122626476Y-118387809D01*
X122626476Y-118625904D01*
X122674095Y-118721142D01*
X122721714Y-118768761D01*
X122816952Y-118816380D01*
X123102666Y-118816380D01*
X123197904Y-118768761D01*
X123245523Y-118721142D01*
X122055047Y-118244952D02*
X122150285Y-118197333D01*
X122197904Y-118149714D01*
X122245523Y-118054476D01*
X122245523Y-118006857D01*
X122197904Y-117911619D01*
X122150285Y-117864000D01*
X122055047Y-117816380D01*
X121864571Y-117816380D01*
X121769333Y-117864000D01*
X121721714Y-117911619D01*
X121674095Y-118006857D01*
X121674095Y-118054476D01*
X121721714Y-118149714D01*
X121769333Y-118197333D01*
X121864571Y-118244952D01*
X122055047Y-118244952D01*
X122150285Y-118292571D01*
X122197904Y-118340190D01*
X122245523Y-118435428D01*
X122245523Y-118625904D01*
X122197904Y-118721142D01*
X122150285Y-118768761D01*
X122055047Y-118816380D01*
X121864571Y-118816380D01*
X121769333Y-118768761D01*
X121721714Y-118721142D01*
X121674095Y-118625904D01*
X121674095Y-118435428D01*
X121721714Y-118340190D01*
X121769333Y-118292571D01*
X121864571Y-118244952D01*
X123578857Y-120086380D02*
X123912190Y-119610190D01*
X124150285Y-120086380D02*
X124150285Y-119086380D01*
X123769333Y-119086380D01*
X123674095Y-119134000D01*
X123626476Y-119181619D01*
X123578857Y-119276857D01*
X123578857Y-119419714D01*
X123626476Y-119514952D01*
X123674095Y-119562571D01*
X123769333Y-119610190D01*
X124150285Y-119610190D01*
X123245523Y-119086380D02*
X122626476Y-119086380D01*
X122959809Y-119467333D01*
X122816952Y-119467333D01*
X122721714Y-119514952D01*
X122674095Y-119562571D01*
X122626476Y-119657809D01*
X122626476Y-119895904D01*
X122674095Y-119991142D01*
X122721714Y-120038761D01*
X122816952Y-120086380D01*
X123102666Y-120086380D01*
X123197904Y-120038761D01*
X123245523Y-119991142D01*
X122293142Y-119086380D02*
X121626476Y-119086380D01*
X122055047Y-120086380D01*
X123578857Y-121356380D02*
X123912190Y-120880190D01*
X124150285Y-121356380D02*
X124150285Y-120356380D01*
X123769333Y-120356380D01*
X123674095Y-120404000D01*
X123626476Y-120451619D01*
X123578857Y-120546857D01*
X123578857Y-120689714D01*
X123626476Y-120784952D01*
X123674095Y-120832571D01*
X123769333Y-120880190D01*
X124150285Y-120880190D01*
X123245523Y-120356380D02*
X122626476Y-120356380D01*
X122959809Y-120737333D01*
X122816952Y-120737333D01*
X122721714Y-120784952D01*
X122674095Y-120832571D01*
X122626476Y-120927809D01*
X122626476Y-121165904D01*
X122674095Y-121261142D01*
X122721714Y-121308761D01*
X122816952Y-121356380D01*
X123102666Y-121356380D01*
X123197904Y-121308761D01*
X123245523Y-121261142D01*
X121769333Y-120356380D02*
X121959809Y-120356380D01*
X122055047Y-120404000D01*
X122102666Y-120451619D01*
X122197904Y-120594476D01*
X122245523Y-120784952D01*
X122245523Y-121165904D01*
X122197904Y-121261142D01*
X122150285Y-121308761D01*
X122055047Y-121356380D01*
X121864571Y-121356380D01*
X121769333Y-121308761D01*
X121721714Y-121261142D01*
X121674095Y-121165904D01*
X121674095Y-120927809D01*
X121721714Y-120832571D01*
X121769333Y-120784952D01*
X121864571Y-120737333D01*
X122055047Y-120737333D01*
X122150285Y-120784952D01*
X122197904Y-120832571D01*
X122245523Y-120927809D01*
X124563142Y-122293142D02*
X124610761Y-122245523D01*
X124658380Y-122102666D01*
X124658380Y-122007428D01*
X124610761Y-121864571D01*
X124515523Y-121769333D01*
X124420285Y-121721714D01*
X124229809Y-121674095D01*
X124086952Y-121674095D01*
X123896476Y-121721714D01*
X123801238Y-121769333D01*
X123706000Y-121864571D01*
X123658380Y-122007428D01*
X123658380Y-122102666D01*
X123706000Y-122245523D01*
X123753619Y-122293142D01*
X123991714Y-123150285D02*
X124658380Y-123150285D01*
X123610761Y-122912190D02*
X124325047Y-122674095D01*
X124325047Y-123293142D01*
X124658380Y-123721714D02*
X124658380Y-123912190D01*
X124610761Y-124007428D01*
X124563142Y-124055047D01*
X124420285Y-124150285D01*
X124229809Y-124197904D01*
X123848857Y-124197904D01*
X123753619Y-124150285D01*
X123706000Y-124102666D01*
X123658380Y-124007428D01*
X123658380Y-123816952D01*
X123706000Y-123721714D01*
X123753619Y-123674095D01*
X123848857Y-123626476D01*
X124086952Y-123626476D01*
X124182190Y-123674095D01*
X124229809Y-123721714D01*
X124277428Y-123816952D01*
X124277428Y-124007428D01*
X124229809Y-124102666D01*
X124182190Y-124150285D01*
X124086952Y-124197904D01*
X112402857Y-116435142D02*
X112450476Y-116482761D01*
X112593333Y-116530380D01*
X112688571Y-116530380D01*
X112831428Y-116482761D01*
X112926666Y-116387523D01*
X112974285Y-116292285D01*
X113021904Y-116101809D01*
X113021904Y-115958952D01*
X112974285Y-115768476D01*
X112926666Y-115673238D01*
X112831428Y-115578000D01*
X112688571Y-115530380D01*
X112593333Y-115530380D01*
X112450476Y-115578000D01*
X112402857Y-115625619D01*
X111545714Y-115863714D02*
X111545714Y-116530380D01*
X111783809Y-115482761D02*
X112021904Y-116197047D01*
X111402857Y-116197047D01*
X110879047Y-115958952D02*
X110974285Y-115911333D01*
X111021904Y-115863714D01*
X111069523Y-115768476D01*
X111069523Y-115720857D01*
X111021904Y-115625619D01*
X110974285Y-115578000D01*
X110879047Y-115530380D01*
X110688571Y-115530380D01*
X110593333Y-115578000D01*
X110545714Y-115625619D01*
X110498095Y-115720857D01*
X110498095Y-115768476D01*
X110545714Y-115863714D01*
X110593333Y-115911333D01*
X110688571Y-115958952D01*
X110879047Y-115958952D01*
X110974285Y-116006571D01*
X111021904Y-116054190D01*
X111069523Y-116149428D01*
X111069523Y-116339904D01*
X111021904Y-116435142D01*
X110974285Y-116482761D01*
X110879047Y-116530380D01*
X110688571Y-116530380D01*
X110593333Y-116482761D01*
X110545714Y-116435142D01*
X110498095Y-116339904D01*
X110498095Y-116149428D01*
X110545714Y-116054190D01*
X110593333Y-116006571D01*
X110688571Y-115958952D01*
X108402380Y-133723142D02*
X107926190Y-133389809D01*
X108402380Y-133151714D02*
X107402380Y-133151714D01*
X107402380Y-133532666D01*
X107450000Y-133627904D01*
X107497619Y-133675523D01*
X107592857Y-133723142D01*
X107735714Y-133723142D01*
X107830952Y-133675523D01*
X107878571Y-133627904D01*
X107926190Y-133532666D01*
X107926190Y-133151714D01*
X108402380Y-134675523D02*
X108402380Y-134104095D01*
X108402380Y-134389809D02*
X107402380Y-134389809D01*
X107545238Y-134294571D01*
X107640476Y-134199333D01*
X107688095Y-134104095D01*
X107402380Y-135008857D02*
X107402380Y-135675523D01*
X108402380Y-135246952D01*
X119633904Y-134834380D02*
X119633904Y-135643904D01*
X119586285Y-135739142D01*
X119538666Y-135786761D01*
X119443428Y-135834380D01*
X119252952Y-135834380D01*
X119157714Y-135786761D01*
X119110095Y-135739142D01*
X119062476Y-135643904D01*
X119062476Y-134834380D01*
X118157714Y-135167714D02*
X118157714Y-135834380D01*
X118395809Y-134786761D02*
X118633904Y-135501047D01*
X118014857Y-135501047D01*
X109354857Y-113895142D02*
X109402476Y-113942761D01*
X109545333Y-113990380D01*
X109640571Y-113990380D01*
X109783428Y-113942761D01*
X109878666Y-113847523D01*
X109926285Y-113752285D01*
X109973904Y-113561809D01*
X109973904Y-113418952D01*
X109926285Y-113228476D01*
X109878666Y-113133238D01*
X109783428Y-113038000D01*
X109640571Y-112990380D01*
X109545333Y-112990380D01*
X109402476Y-113038000D01*
X109354857Y-113085619D01*
X108497714Y-113323714D02*
X108497714Y-113990380D01*
X108735809Y-112942761D02*
X108973904Y-113657047D01*
X108354857Y-113657047D01*
X107545333Y-112990380D02*
X107735809Y-112990380D01*
X107831047Y-113038000D01*
X107878666Y-113085619D01*
X107973904Y-113228476D01*
X108021523Y-113418952D01*
X108021523Y-113799904D01*
X107973904Y-113895142D01*
X107926285Y-113942761D01*
X107831047Y-113990380D01*
X107640571Y-113990380D01*
X107545333Y-113942761D01*
X107497714Y-113895142D01*
X107450095Y-113799904D01*
X107450095Y-113561809D01*
X107497714Y-113466571D01*
X107545333Y-113418952D01*
X107640571Y-113371333D01*
X107831047Y-113371333D01*
X107926285Y-113418952D01*
X107973904Y-113466571D01*
X108021523Y-113561809D01*
X139445904Y-125944380D02*
X139445904Y-126753904D01*
X139398285Y-126849142D01*
X139350666Y-126896761D01*
X139255428Y-126944380D01*
X139064952Y-126944380D01*
X138969714Y-126896761D01*
X138922095Y-126849142D01*
X138874476Y-126753904D01*
X138874476Y-125944380D01*
X138493523Y-125944380D02*
X137826857Y-125944380D01*
X138255428Y-126944380D01*
X126999904Y-134834380D02*
X126999904Y-135643904D01*
X126952285Y-135739142D01*
X126904666Y-135786761D01*
X126809428Y-135834380D01*
X126618952Y-135834380D01*
X126523714Y-135786761D01*
X126476095Y-135739142D01*
X126428476Y-135643904D01*
X126428476Y-134834380D01*
X125999904Y-134929619D02*
X125952285Y-134882000D01*
X125857047Y-134834380D01*
X125618952Y-134834380D01*
X125523714Y-134882000D01*
X125476095Y-134929619D01*
X125428476Y-135024857D01*
X125428476Y-135120095D01*
X125476095Y-135262952D01*
X126047523Y-135834380D01*
X125428476Y-135834380D01*
X150550476Y-121356380D02*
X150883809Y-120880190D01*
X151121904Y-121356380D02*
X151121904Y-120356380D01*
X150740952Y-120356380D01*
X150645714Y-120404000D01*
X150598095Y-120451619D01*
X150550476Y-120546857D01*
X150550476Y-120689714D01*
X150598095Y-120784952D01*
X150645714Y-120832571D01*
X150740952Y-120880190D01*
X151121904Y-120880190D01*
X150121904Y-121356380D02*
X150121904Y-120356380D01*
X149550476Y-121356380D01*
X149550476Y-120356380D01*
X148645714Y-120356380D02*
X148836190Y-120356380D01*
X148931428Y-120404000D01*
X148979047Y-120451619D01*
X149074285Y-120594476D01*
X149121904Y-120784952D01*
X149121904Y-121165904D01*
X149074285Y-121261142D01*
X149026666Y-121308761D01*
X148931428Y-121356380D01*
X148740952Y-121356380D01*
X148645714Y-121308761D01*
X148598095Y-121261142D01*
X148550476Y-121165904D01*
X148550476Y-120927809D01*
X148598095Y-120832571D01*
X148645714Y-120784952D01*
X148740952Y-120737333D01*
X148931428Y-120737333D01*
X149026666Y-120784952D01*
X149074285Y-120832571D01*
X149121904Y-120927809D01*
X150550476Y-117927380D02*
X150883809Y-117451190D01*
X151121904Y-117927380D02*
X151121904Y-116927380D01*
X150740952Y-116927380D01*
X150645714Y-116975000D01*
X150598095Y-117022619D01*
X150550476Y-117117857D01*
X150550476Y-117260714D01*
X150598095Y-117355952D01*
X150645714Y-117403571D01*
X150740952Y-117451190D01*
X151121904Y-117451190D01*
X150121904Y-117927380D02*
X150121904Y-116927380D01*
X149550476Y-117927380D01*
X149550476Y-116927380D01*
X148598095Y-116927380D02*
X149074285Y-116927380D01*
X149121904Y-117403571D01*
X149074285Y-117355952D01*
X148979047Y-117308333D01*
X148740952Y-117308333D01*
X148645714Y-117355952D01*
X148598095Y-117403571D01*
X148550476Y-117498809D01*
X148550476Y-117736904D01*
X148598095Y-117832142D01*
X148645714Y-117879761D01*
X148740952Y-117927380D01*
X148979047Y-117927380D01*
X149074285Y-117879761D01*
X149121904Y-117832142D01*
X141930380Y-109799523D02*
X141454190Y-109466190D01*
X141930380Y-109228095D02*
X140930380Y-109228095D01*
X140930380Y-109609047D01*
X140978000Y-109704285D01*
X141025619Y-109751904D01*
X141120857Y-109799523D01*
X141263714Y-109799523D01*
X141358952Y-109751904D01*
X141406571Y-109704285D01*
X141454190Y-109609047D01*
X141454190Y-109228095D01*
X141930380Y-110228095D02*
X140930380Y-110228095D01*
X141930380Y-110799523D01*
X140930380Y-110799523D01*
X141263714Y-111704285D02*
X141930380Y-111704285D01*
X140882761Y-111466190D02*
X141597047Y-111228095D01*
X141597047Y-111847142D01*
X137358380Y-107513523D02*
X136882190Y-107180190D01*
X137358380Y-106942095D02*
X136358380Y-106942095D01*
X136358380Y-107323047D01*
X136406000Y-107418285D01*
X136453619Y-107465904D01*
X136548857Y-107513523D01*
X136691714Y-107513523D01*
X136786952Y-107465904D01*
X136834571Y-107418285D01*
X136882190Y-107323047D01*
X136882190Y-106942095D01*
X137358380Y-107942095D02*
X136358380Y-107942095D01*
X137358380Y-108513523D01*
X136358380Y-108513523D01*
X136358380Y-108894476D02*
X136358380Y-109513523D01*
X136739333Y-109180190D01*
X136739333Y-109323047D01*
X136786952Y-109418285D01*
X136834571Y-109465904D01*
X136929809Y-109513523D01*
X137167904Y-109513523D01*
X137263142Y-109465904D01*
X137310761Y-109418285D01*
X137358380Y-109323047D01*
X137358380Y-109037333D01*
X137310761Y-108942095D01*
X137263142Y-108894476D01*
X143235476Y-121483380D02*
X143568809Y-121007190D01*
X143806904Y-121483380D02*
X143806904Y-120483380D01*
X143425952Y-120483380D01*
X143330714Y-120531000D01*
X143283095Y-120578619D01*
X143235476Y-120673857D01*
X143235476Y-120816714D01*
X143283095Y-120911952D01*
X143330714Y-120959571D01*
X143425952Y-121007190D01*
X143806904Y-121007190D01*
X142806904Y-121483380D02*
X142806904Y-120483380D01*
X142235476Y-121483380D01*
X142235476Y-120483380D01*
X141806904Y-120578619D02*
X141759285Y-120531000D01*
X141664047Y-120483380D01*
X141425952Y-120483380D01*
X141330714Y-120531000D01*
X141283095Y-120578619D01*
X141235476Y-120673857D01*
X141235476Y-120769095D01*
X141283095Y-120911952D01*
X141854523Y-121483380D01*
X141235476Y-121483380D01*
X143235476Y-117927380D02*
X143568809Y-117451190D01*
X143806904Y-117927380D02*
X143806904Y-116927380D01*
X143425952Y-116927380D01*
X143330714Y-116975000D01*
X143283095Y-117022619D01*
X143235476Y-117117857D01*
X143235476Y-117260714D01*
X143283095Y-117355952D01*
X143330714Y-117403571D01*
X143425952Y-117451190D01*
X143806904Y-117451190D01*
X142806904Y-117927380D02*
X142806904Y-116927380D01*
X142235476Y-117927380D01*
X142235476Y-116927380D01*
X141235476Y-117927380D02*
X141806904Y-117927380D01*
X141521190Y-117927380D02*
X141521190Y-116927380D01*
X141616428Y-117070238D01*
X141711666Y-117165476D01*
X141806904Y-117213095D01*
X123388380Y-122293142D02*
X122912190Y-121959809D01*
X123388380Y-121721714D02*
X122388380Y-121721714D01*
X122388380Y-122102666D01*
X122436000Y-122197904D01*
X122483619Y-122245523D01*
X122578857Y-122293142D01*
X122721714Y-122293142D01*
X122816952Y-122245523D01*
X122864571Y-122197904D01*
X122912190Y-122102666D01*
X122912190Y-121721714D01*
X122483619Y-122674095D02*
X122436000Y-122721714D01*
X122388380Y-122816952D01*
X122388380Y-123055047D01*
X122436000Y-123150285D01*
X122483619Y-123197904D01*
X122578857Y-123245523D01*
X122674095Y-123245523D01*
X122816952Y-123197904D01*
X123388380Y-122626476D01*
X123388380Y-123245523D01*
X122816952Y-123816952D02*
X122769333Y-123721714D01*
X122721714Y-123674095D01*
X122626476Y-123626476D01*
X122578857Y-123626476D01*
X122483619Y-123674095D01*
X122436000Y-123721714D01*
X122388380Y-123816952D01*
X122388380Y-124007428D01*
X122436000Y-124102666D01*
X122483619Y-124150285D01*
X122578857Y-124197904D01*
X122626476Y-124197904D01*
X122721714Y-124150285D01*
X122769333Y-124102666D01*
X122816952Y-124007428D01*
X122816952Y-123816952D01*
X122864571Y-123721714D01*
X122912190Y-123674095D01*
X123007428Y-123626476D01*
X123197904Y-123626476D01*
X123293142Y-123674095D01*
X123340761Y-123721714D01*
X123388380Y-123816952D01*
X123388380Y-124007428D01*
X123340761Y-124102666D01*
X123293142Y-124150285D01*
X123197904Y-124197904D01*
X123007428Y-124197904D01*
X122912190Y-124150285D01*
X122864571Y-124102666D01*
X122816952Y-124007428D01*
X135072380Y-123055142D02*
X134596190Y-122721809D01*
X135072380Y-122483714D02*
X134072380Y-122483714D01*
X134072380Y-122864666D01*
X134120000Y-122959904D01*
X134167619Y-123007523D01*
X134262857Y-123055142D01*
X134405714Y-123055142D01*
X134500952Y-123007523D01*
X134548571Y-122959904D01*
X134596190Y-122864666D01*
X134596190Y-122483714D01*
X134167619Y-123436095D02*
X134120000Y-123483714D01*
X134072380Y-123578952D01*
X134072380Y-123817047D01*
X134120000Y-123912285D01*
X134167619Y-123959904D01*
X134262857Y-124007523D01*
X134358095Y-124007523D01*
X134500952Y-123959904D01*
X135072380Y-123388476D01*
X135072380Y-124007523D01*
X134405714Y-124864666D02*
X135072380Y-124864666D01*
X134024761Y-124626571D02*
X134739047Y-124388476D01*
X134739047Y-125007523D01*
X115514380Y-133723142D02*
X115038190Y-133389809D01*
X115514380Y-133151714D02*
X114514380Y-133151714D01*
X114514380Y-133532666D01*
X114562000Y-133627904D01*
X114609619Y-133675523D01*
X114704857Y-133723142D01*
X114847714Y-133723142D01*
X114942952Y-133675523D01*
X114990571Y-133627904D01*
X115038190Y-133532666D01*
X115038190Y-133151714D01*
X114609619Y-134104095D02*
X114562000Y-134151714D01*
X114514380Y-134246952D01*
X114514380Y-134485047D01*
X114562000Y-134580285D01*
X114609619Y-134627904D01*
X114704857Y-134675523D01*
X114800095Y-134675523D01*
X114942952Y-134627904D01*
X115514380Y-134056476D01*
X115514380Y-134675523D01*
X114514380Y-135008857D02*
X114514380Y-135627904D01*
X114895333Y-135294571D01*
X114895333Y-135437428D01*
X114942952Y-135532666D01*
X114990571Y-135580285D01*
X115085809Y-135627904D01*
X115323904Y-135627904D01*
X115419142Y-135580285D01*
X115466761Y-135532666D01*
X115514380Y-135437428D01*
X115514380Y-135151714D01*
X115466761Y-135056476D01*
X115419142Y-135008857D01*
X116784380Y-133723142D02*
X116308190Y-133389809D01*
X116784380Y-133151714D02*
X115784380Y-133151714D01*
X115784380Y-133532666D01*
X115832000Y-133627904D01*
X115879619Y-133675523D01*
X115974857Y-133723142D01*
X116117714Y-133723142D01*
X116212952Y-133675523D01*
X116260571Y-133627904D01*
X116308190Y-133532666D01*
X116308190Y-133151714D01*
X115879619Y-134104095D02*
X115832000Y-134151714D01*
X115784380Y-134246952D01*
X115784380Y-134485047D01*
X115832000Y-134580285D01*
X115879619Y-134627904D01*
X115974857Y-134675523D01*
X116070095Y-134675523D01*
X116212952Y-134627904D01*
X116784380Y-134056476D01*
X116784380Y-134675523D01*
X115879619Y-135056476D02*
X115832000Y-135104095D01*
X115784380Y-135199333D01*
X115784380Y-135437428D01*
X115832000Y-135532666D01*
X115879619Y-135580285D01*
X115974857Y-135627904D01*
X116070095Y-135627904D01*
X116212952Y-135580285D01*
X116784380Y-135008857D01*
X116784380Y-135627904D01*
X136342380Y-123055142D02*
X135866190Y-122721809D01*
X136342380Y-122483714D02*
X135342380Y-122483714D01*
X135342380Y-122864666D01*
X135390000Y-122959904D01*
X135437619Y-123007523D01*
X135532857Y-123055142D01*
X135675714Y-123055142D01*
X135770952Y-123007523D01*
X135818571Y-122959904D01*
X135866190Y-122864666D01*
X135866190Y-122483714D01*
X135437619Y-123436095D02*
X135390000Y-123483714D01*
X135342380Y-123578952D01*
X135342380Y-123817047D01*
X135390000Y-123912285D01*
X135437619Y-123959904D01*
X135532857Y-124007523D01*
X135628095Y-124007523D01*
X135770952Y-123959904D01*
X136342380Y-123388476D01*
X136342380Y-124007523D01*
X136342380Y-124959904D02*
X136342380Y-124388476D01*
X136342380Y-124674190D02*
X135342380Y-124674190D01*
X135485238Y-124578952D01*
X135580476Y-124483714D01*
X135628095Y-124388476D01*
X125928380Y-122293142D02*
X125452190Y-121959809D01*
X125928380Y-121721714D02*
X124928380Y-121721714D01*
X124928380Y-122102666D01*
X124976000Y-122197904D01*
X125023619Y-122245523D01*
X125118857Y-122293142D01*
X125261714Y-122293142D01*
X125356952Y-122245523D01*
X125404571Y-122197904D01*
X125452190Y-122102666D01*
X125452190Y-121721714D01*
X125928380Y-123245523D02*
X125928380Y-122674095D01*
X125928380Y-122959809D02*
X124928380Y-122959809D01*
X125071238Y-122864571D01*
X125166476Y-122769333D01*
X125214095Y-122674095D01*
X125928380Y-123721714D02*
X125928380Y-123912190D01*
X125880761Y-124007428D01*
X125833142Y-124055047D01*
X125690285Y-124150285D01*
X125499809Y-124197904D01*
X125118857Y-124197904D01*
X125023619Y-124150285D01*
X124976000Y-124102666D01*
X124928380Y-124007428D01*
X124928380Y-123816952D01*
X124976000Y-123721714D01*
X125023619Y-123674095D01*
X125118857Y-123626476D01*
X125356952Y-123626476D01*
X125452190Y-123674095D01*
X125499809Y-123721714D01*
X125547428Y-123816952D01*
X125547428Y-124007428D01*
X125499809Y-124102666D01*
X125452190Y-124150285D01*
X125356952Y-124197904D01*
X112656857Y-119070380D02*
X112990190Y-118594190D01*
X113228285Y-119070380D02*
X113228285Y-118070380D01*
X112847333Y-118070380D01*
X112752095Y-118118000D01*
X112704476Y-118165619D01*
X112656857Y-118260857D01*
X112656857Y-118403714D01*
X112704476Y-118498952D01*
X112752095Y-118546571D01*
X112847333Y-118594190D01*
X113228285Y-118594190D01*
X111704476Y-119070380D02*
X112275904Y-119070380D01*
X111990190Y-119070380D02*
X111990190Y-118070380D01*
X112085428Y-118213238D01*
X112180666Y-118308476D01*
X112275904Y-118356095D01*
X111133047Y-118498952D02*
X111228285Y-118451333D01*
X111275904Y-118403714D01*
X111323523Y-118308476D01*
X111323523Y-118260857D01*
X111275904Y-118165619D01*
X111228285Y-118118000D01*
X111133047Y-118070380D01*
X110942571Y-118070380D01*
X110847333Y-118118000D01*
X110799714Y-118165619D01*
X110752095Y-118260857D01*
X110752095Y-118308476D01*
X110799714Y-118403714D01*
X110847333Y-118451333D01*
X110942571Y-118498952D01*
X111133047Y-118498952D01*
X111228285Y-118546571D01*
X111275904Y-118594190D01*
X111323523Y-118689428D01*
X111323523Y-118879904D01*
X111275904Y-118975142D01*
X111228285Y-119022761D01*
X111133047Y-119070380D01*
X110942571Y-119070380D01*
X110847333Y-119022761D01*
X110799714Y-118975142D01*
X110752095Y-118879904D01*
X110752095Y-118689428D01*
X110799714Y-118594190D01*
X110847333Y-118546571D01*
X110942571Y-118498952D01*
X120848380Y-122293142D02*
X120372190Y-121959809D01*
X120848380Y-121721714D02*
X119848380Y-121721714D01*
X119848380Y-122102666D01*
X119896000Y-122197904D01*
X119943619Y-122245523D01*
X120038857Y-122293142D01*
X120181714Y-122293142D01*
X120276952Y-122245523D01*
X120324571Y-122197904D01*
X120372190Y-122102666D01*
X120372190Y-121721714D01*
X119848380Y-122626476D02*
X119848380Y-123245523D01*
X120229333Y-122912190D01*
X120229333Y-123055047D01*
X120276952Y-123150285D01*
X120324571Y-123197904D01*
X120419809Y-123245523D01*
X120657904Y-123245523D01*
X120753142Y-123197904D01*
X120800761Y-123150285D01*
X120848380Y-123055047D01*
X120848380Y-122769333D01*
X120800761Y-122674095D01*
X120753142Y-122626476D01*
X119848380Y-123578857D02*
X119848380Y-124197904D01*
X120229333Y-123864571D01*
X120229333Y-124007428D01*
X120276952Y-124102666D01*
X120324571Y-124150285D01*
X120419809Y-124197904D01*
X120657904Y-124197904D01*
X120753142Y-124150285D01*
X120800761Y-124102666D01*
X120848380Y-124007428D01*
X120848380Y-123721714D01*
X120800761Y-123626476D01*
X120753142Y-123578857D01*
X109354857Y-117800380D02*
X109688190Y-117324190D01*
X109926285Y-117800380D02*
X109926285Y-116800380D01*
X109545333Y-116800380D01*
X109450095Y-116848000D01*
X109402476Y-116895619D01*
X109354857Y-116990857D01*
X109354857Y-117133714D01*
X109402476Y-117228952D01*
X109450095Y-117276571D01*
X109545333Y-117324190D01*
X109926285Y-117324190D01*
X108402476Y-117800380D02*
X108973904Y-117800380D01*
X108688190Y-117800380D02*
X108688190Y-116800380D01*
X108783428Y-116943238D01*
X108878666Y-117038476D01*
X108973904Y-117086095D01*
X107783428Y-116800380D02*
X107688190Y-116800380D01*
X107592952Y-116848000D01*
X107545333Y-116895619D01*
X107497714Y-116990857D01*
X107450095Y-117181333D01*
X107450095Y-117419428D01*
X107497714Y-117609904D01*
X107545333Y-117705142D01*
X107592952Y-117752761D01*
X107688190Y-117800380D01*
X107783428Y-117800380D01*
X107878666Y-117752761D01*
X107926285Y-117705142D01*
X107973904Y-117609904D01*
X108021523Y-117419428D01*
X108021523Y-117181333D01*
X107973904Y-116990857D01*
X107926285Y-116895619D01*
X107878666Y-116848000D01*
X107783428Y-116800380D01*
X112434666Y-115260380D02*
X112768000Y-114784190D01*
X113006095Y-115260380D02*
X113006095Y-114260380D01*
X112625142Y-114260380D01*
X112529904Y-114308000D01*
X112482285Y-114355619D01*
X112434666Y-114450857D01*
X112434666Y-114593714D01*
X112482285Y-114688952D01*
X112529904Y-114736571D01*
X112625142Y-114784190D01*
X113006095Y-114784190D01*
X111958476Y-115260380D02*
X111768000Y-115260380D01*
X111672761Y-115212761D01*
X111625142Y-115165142D01*
X111529904Y-115022285D01*
X111482285Y-114831809D01*
X111482285Y-114450857D01*
X111529904Y-114355619D01*
X111577523Y-114308000D01*
X111672761Y-114260380D01*
X111863238Y-114260380D01*
X111958476Y-114308000D01*
X112006095Y-114355619D01*
X112053714Y-114450857D01*
X112053714Y-114688952D01*
X112006095Y-114784190D01*
X111958476Y-114831809D01*
X111863238Y-114879428D01*
X111672761Y-114879428D01*
X111577523Y-114831809D01*
X111529904Y-114784190D01*
X111482285Y-114688952D01*
X112434666Y-113990380D02*
X112768000Y-113514190D01*
X113006095Y-113990380D02*
X113006095Y-112990380D01*
X112625142Y-112990380D01*
X112529904Y-113038000D01*
X112482285Y-113085619D01*
X112434666Y-113180857D01*
X112434666Y-113323714D01*
X112482285Y-113418952D01*
X112529904Y-113466571D01*
X112625142Y-113514190D01*
X113006095Y-113514190D01*
X111863238Y-113418952D02*
X111958476Y-113371333D01*
X112006095Y-113323714D01*
X112053714Y-113228476D01*
X112053714Y-113180857D01*
X112006095Y-113085619D01*
X111958476Y-113038000D01*
X111863238Y-112990380D01*
X111672761Y-112990380D01*
X111577523Y-113038000D01*
X111529904Y-113085619D01*
X111482285Y-113180857D01*
X111482285Y-113228476D01*
X111529904Y-113323714D01*
X111577523Y-113371333D01*
X111672761Y-113418952D01*
X111863238Y-113418952D01*
X111958476Y-113466571D01*
X112006095Y-113514190D01*
X112053714Y-113609428D01*
X112053714Y-113799904D01*
X112006095Y-113895142D01*
X111958476Y-113942761D01*
X111863238Y-113990380D01*
X111672761Y-113990380D01*
X111577523Y-113942761D01*
X111529904Y-113895142D01*
X111482285Y-113799904D01*
X111482285Y-113609428D01*
X111529904Y-113514190D01*
X111577523Y-113466571D01*
X111672761Y-113418952D01*
X106084666Y-119324380D02*
X106418000Y-118848190D01*
X106656095Y-119324380D02*
X106656095Y-118324380D01*
X106275142Y-118324380D01*
X106179904Y-118372000D01*
X106132285Y-118419619D01*
X106084666Y-118514857D01*
X106084666Y-118657714D01*
X106132285Y-118752952D01*
X106179904Y-118800571D01*
X106275142Y-118848190D01*
X106656095Y-118848190D01*
X105179904Y-118324380D02*
X105656095Y-118324380D01*
X105703714Y-118800571D01*
X105656095Y-118752952D01*
X105560857Y-118705333D01*
X105322761Y-118705333D01*
X105227523Y-118752952D01*
X105179904Y-118800571D01*
X105132285Y-118895809D01*
X105132285Y-119133904D01*
X105179904Y-119229142D01*
X105227523Y-119276761D01*
X105322761Y-119324380D01*
X105560857Y-119324380D01*
X105656095Y-119276761D01*
X105703714Y-119229142D01*
X106084666Y-118054380D02*
X106418000Y-117578190D01*
X106656095Y-118054380D02*
X106656095Y-117054380D01*
X106275142Y-117054380D01*
X106179904Y-117102000D01*
X106132285Y-117149619D01*
X106084666Y-117244857D01*
X106084666Y-117387714D01*
X106132285Y-117482952D01*
X106179904Y-117530571D01*
X106275142Y-117578190D01*
X106656095Y-117578190D01*
X105227523Y-117387714D02*
X105227523Y-118054380D01*
X105465619Y-117006761D02*
X105703714Y-117721047D01*
X105084666Y-117721047D01*
X120848380Y-117943333D02*
X120372190Y-117610000D01*
X120848380Y-117371904D02*
X119848380Y-117371904D01*
X119848380Y-117752857D01*
X119896000Y-117848095D01*
X119943619Y-117895714D01*
X120038857Y-117943333D01*
X120181714Y-117943333D01*
X120276952Y-117895714D01*
X120324571Y-117848095D01*
X120372190Y-117752857D01*
X120372190Y-117371904D01*
X119943619Y-118324285D02*
X119896000Y-118371904D01*
X119848380Y-118467142D01*
X119848380Y-118705238D01*
X119896000Y-118800476D01*
X119943619Y-118848095D01*
X120038857Y-118895714D01*
X120134095Y-118895714D01*
X120276952Y-118848095D01*
X120848380Y-118276666D01*
X120848380Y-118895714D01*
X102300266Y-119656380D02*
X102633600Y-119180190D01*
X102871695Y-119656380D02*
X102871695Y-118656380D01*
X102490742Y-118656380D01*
X102395504Y-118704000D01*
X102347885Y-118751619D01*
X102300266Y-118846857D01*
X102300266Y-118989714D01*
X102347885Y-119084952D01*
X102395504Y-119132571D01*
X102490742Y-119180190D01*
X102871695Y-119180190D01*
X101347885Y-119656380D02*
X101919314Y-119656380D01*
X101633600Y-119656380D02*
X101633600Y-118656380D01*
X101728838Y-118799238D01*
X101824076Y-118894476D01*
X101919314Y-118942095D01*
X111609142Y-133723142D02*
X111656761Y-133675523D01*
X111704380Y-133532666D01*
X111704380Y-133437428D01*
X111656761Y-133294571D01*
X111561523Y-133199333D01*
X111466285Y-133151714D01*
X111275809Y-133104095D01*
X111132952Y-133104095D01*
X110942476Y-133151714D01*
X110847238Y-133199333D01*
X110752000Y-133294571D01*
X110704380Y-133437428D01*
X110704380Y-133532666D01*
X110752000Y-133675523D01*
X110799619Y-133723142D01*
X111037714Y-134580285D02*
X111704380Y-134580285D01*
X110656761Y-134342190D02*
X111371047Y-134104095D01*
X111371047Y-134723142D01*
X110704380Y-135580285D02*
X110704380Y-135104095D01*
X111180571Y-135056476D01*
X111132952Y-135104095D01*
X111085333Y-135199333D01*
X111085333Y-135437428D01*
X111132952Y-135532666D01*
X111180571Y-135580285D01*
X111275809Y-135627904D01*
X111513904Y-135627904D01*
X111609142Y-135580285D01*
X111656761Y-135532666D01*
X111704380Y-135437428D01*
X111704380Y-135199333D01*
X111656761Y-135104095D01*
X111609142Y-135056476D01*
X112656857Y-125325142D02*
X112704476Y-125372761D01*
X112847333Y-125420380D01*
X112942571Y-125420380D01*
X113085428Y-125372761D01*
X113180666Y-125277523D01*
X113228285Y-125182285D01*
X113275904Y-124991809D01*
X113275904Y-124848952D01*
X113228285Y-124658476D01*
X113180666Y-124563238D01*
X113085428Y-124468000D01*
X112942571Y-124420380D01*
X112847333Y-124420380D01*
X112704476Y-124468000D01*
X112656857Y-124515619D01*
X111799714Y-124753714D02*
X111799714Y-125420380D01*
X112037809Y-124372761D02*
X112275904Y-125087047D01*
X111656857Y-125087047D01*
X111085428Y-124420380D02*
X110990190Y-124420380D01*
X110894952Y-124468000D01*
X110847333Y-124515619D01*
X110799714Y-124610857D01*
X110752095Y-124801333D01*
X110752095Y-125039428D01*
X110799714Y-125229904D01*
X110847333Y-125325142D01*
X110894952Y-125372761D01*
X110990190Y-125420380D01*
X111085428Y-125420380D01*
X111180666Y-125372761D01*
X111228285Y-125325142D01*
X111275904Y-125229904D01*
X111323523Y-125039428D01*
X111323523Y-124801333D01*
X111275904Y-124610857D01*
X111228285Y-124515619D01*
X111180666Y-124468000D01*
X111085428Y-124420380D01*
X114149142Y-133723142D02*
X114196761Y-133675523D01*
X114244380Y-133532666D01*
X114244380Y-133437428D01*
X114196761Y-133294571D01*
X114101523Y-133199333D01*
X114006285Y-133151714D01*
X113815809Y-133104095D01*
X113672952Y-133104095D01*
X113482476Y-133151714D01*
X113387238Y-133199333D01*
X113292000Y-133294571D01*
X113244380Y-133437428D01*
X113244380Y-133532666D01*
X113292000Y-133675523D01*
X113339619Y-133723142D01*
X113244380Y-134056476D02*
X113244380Y-134675523D01*
X113625333Y-134342190D01*
X113625333Y-134485047D01*
X113672952Y-134580285D01*
X113720571Y-134627904D01*
X113815809Y-134675523D01*
X114053904Y-134675523D01*
X114149142Y-134627904D01*
X114196761Y-134580285D01*
X114244380Y-134485047D01*
X114244380Y-134199333D01*
X114196761Y-134104095D01*
X114149142Y-134056476D01*
X114244380Y-135151714D02*
X114244380Y-135342190D01*
X114196761Y-135437428D01*
X114149142Y-135485047D01*
X114006285Y-135580285D01*
X113815809Y-135627904D01*
X113434857Y-135627904D01*
X113339619Y-135580285D01*
X113292000Y-135532666D01*
X113244380Y-135437428D01*
X113244380Y-135246952D01*
X113292000Y-135151714D01*
X113339619Y-135104095D01*
X113434857Y-135056476D01*
X113672952Y-135056476D01*
X113768190Y-135104095D01*
X113815809Y-135151714D01*
X113863428Y-135246952D01*
X113863428Y-135437428D01*
X113815809Y-135532666D01*
X113768190Y-135580285D01*
X113672952Y-135627904D01*
X109354857Y-125325142D02*
X109402476Y-125372761D01*
X109545333Y-125420380D01*
X109640571Y-125420380D01*
X109783428Y-125372761D01*
X109878666Y-125277523D01*
X109926285Y-125182285D01*
X109973904Y-124991809D01*
X109973904Y-124848952D01*
X109926285Y-124658476D01*
X109878666Y-124563238D01*
X109783428Y-124468000D01*
X109640571Y-124420380D01*
X109545333Y-124420380D01*
X109402476Y-124468000D01*
X109354857Y-124515619D01*
X109021523Y-124420380D02*
X108402476Y-124420380D01*
X108735809Y-124801333D01*
X108592952Y-124801333D01*
X108497714Y-124848952D01*
X108450095Y-124896571D01*
X108402476Y-124991809D01*
X108402476Y-125229904D01*
X108450095Y-125325142D01*
X108497714Y-125372761D01*
X108592952Y-125420380D01*
X108878666Y-125420380D01*
X108973904Y-125372761D01*
X109021523Y-125325142D01*
X107831047Y-124848952D02*
X107926285Y-124801333D01*
X107973904Y-124753714D01*
X108021523Y-124658476D01*
X108021523Y-124610857D01*
X107973904Y-124515619D01*
X107926285Y-124468000D01*
X107831047Y-124420380D01*
X107640571Y-124420380D01*
X107545333Y-124468000D01*
X107497714Y-124515619D01*
X107450095Y-124610857D01*
X107450095Y-124658476D01*
X107497714Y-124753714D01*
X107545333Y-124801333D01*
X107640571Y-124848952D01*
X107831047Y-124848952D01*
X107926285Y-124896571D01*
X107973904Y-124944190D01*
X108021523Y-125039428D01*
X108021523Y-125229904D01*
X107973904Y-125325142D01*
X107926285Y-125372761D01*
X107831047Y-125420380D01*
X107640571Y-125420380D01*
X107545333Y-125372761D01*
X107497714Y-125325142D01*
X107450095Y-125229904D01*
X107450095Y-125039428D01*
X107497714Y-124944190D01*
X107545333Y-124896571D01*
X107640571Y-124848952D01*
X115927142Y-129405142D02*
X115974761Y-129357523D01*
X116022380Y-129214666D01*
X116022380Y-129119428D01*
X115974761Y-128976571D01*
X115879523Y-128881333D01*
X115784285Y-128833714D01*
X115593809Y-128786095D01*
X115450952Y-128786095D01*
X115260476Y-128833714D01*
X115165238Y-128881333D01*
X115070000Y-128976571D01*
X115022380Y-129119428D01*
X115022380Y-129214666D01*
X115070000Y-129357523D01*
X115117619Y-129405142D01*
X115022380Y-129738476D02*
X115022380Y-130357523D01*
X115403333Y-130024190D01*
X115403333Y-130167047D01*
X115450952Y-130262285D01*
X115498571Y-130309904D01*
X115593809Y-130357523D01*
X115831904Y-130357523D01*
X115927142Y-130309904D01*
X115974761Y-130262285D01*
X116022380Y-130167047D01*
X116022380Y-129881333D01*
X115974761Y-129786095D01*
X115927142Y-129738476D01*
X115022380Y-130690857D02*
X115022380Y-131357523D01*
X116022380Y-130928952D01*
X112656857Y-123801142D02*
X112704476Y-123848761D01*
X112847333Y-123896380D01*
X112942571Y-123896380D01*
X113085428Y-123848761D01*
X113180666Y-123753523D01*
X113228285Y-123658285D01*
X113275904Y-123467809D01*
X113275904Y-123324952D01*
X113228285Y-123134476D01*
X113180666Y-123039238D01*
X113085428Y-122944000D01*
X112942571Y-122896380D01*
X112847333Y-122896380D01*
X112704476Y-122944000D01*
X112656857Y-122991619D01*
X112323523Y-122896380D02*
X111704476Y-122896380D01*
X112037809Y-123277333D01*
X111894952Y-123277333D01*
X111799714Y-123324952D01*
X111752095Y-123372571D01*
X111704476Y-123467809D01*
X111704476Y-123705904D01*
X111752095Y-123801142D01*
X111799714Y-123848761D01*
X111894952Y-123896380D01*
X112180666Y-123896380D01*
X112275904Y-123848761D01*
X112323523Y-123801142D01*
X110847333Y-122896380D02*
X111037809Y-122896380D01*
X111133047Y-122944000D01*
X111180666Y-122991619D01*
X111275904Y-123134476D01*
X111323523Y-123324952D01*
X111323523Y-123705904D01*
X111275904Y-123801142D01*
X111228285Y-123848761D01*
X111133047Y-123896380D01*
X110942571Y-123896380D01*
X110847333Y-123848761D01*
X110799714Y-123801142D01*
X110752095Y-123705904D01*
X110752095Y-123467809D01*
X110799714Y-123372571D01*
X110847333Y-123324952D01*
X110942571Y-123277333D01*
X111133047Y-123277333D01*
X111228285Y-123324952D01*
X111275904Y-123372571D01*
X111323523Y-123467809D01*
X117197142Y-129405142D02*
X117244761Y-129357523D01*
X117292380Y-129214666D01*
X117292380Y-129119428D01*
X117244761Y-128976571D01*
X117149523Y-128881333D01*
X117054285Y-128833714D01*
X116863809Y-128786095D01*
X116720952Y-128786095D01*
X116530476Y-128833714D01*
X116435238Y-128881333D01*
X116340000Y-128976571D01*
X116292380Y-129119428D01*
X116292380Y-129214666D01*
X116340000Y-129357523D01*
X116387619Y-129405142D01*
X116292380Y-129738476D02*
X116292380Y-130357523D01*
X116673333Y-130024190D01*
X116673333Y-130167047D01*
X116720952Y-130262285D01*
X116768571Y-130309904D01*
X116863809Y-130357523D01*
X117101904Y-130357523D01*
X117197142Y-130309904D01*
X117244761Y-130262285D01*
X117292380Y-130167047D01*
X117292380Y-129881333D01*
X117244761Y-129786095D01*
X117197142Y-129738476D01*
X116292380Y-131262285D02*
X116292380Y-130786095D01*
X116768571Y-130738476D01*
X116720952Y-130786095D01*
X116673333Y-130881333D01*
X116673333Y-131119428D01*
X116720952Y-131214666D01*
X116768571Y-131262285D01*
X116863809Y-131309904D01*
X117101904Y-131309904D01*
X117197142Y-131262285D01*
X117244761Y-131214666D01*
X117292380Y-131119428D01*
X117292380Y-130881333D01*
X117244761Y-130786095D01*
X117197142Y-130738476D01*
X109354857Y-123801142D02*
X109402476Y-123848761D01*
X109545333Y-123896380D01*
X109640571Y-123896380D01*
X109783428Y-123848761D01*
X109878666Y-123753523D01*
X109926285Y-123658285D01*
X109973904Y-123467809D01*
X109973904Y-123324952D01*
X109926285Y-123134476D01*
X109878666Y-123039238D01*
X109783428Y-122944000D01*
X109640571Y-122896380D01*
X109545333Y-122896380D01*
X109402476Y-122944000D01*
X109354857Y-122991619D01*
X109021523Y-122896380D02*
X108402476Y-122896380D01*
X108735809Y-123277333D01*
X108592952Y-123277333D01*
X108497714Y-123324952D01*
X108450095Y-123372571D01*
X108402476Y-123467809D01*
X108402476Y-123705904D01*
X108450095Y-123801142D01*
X108497714Y-123848761D01*
X108592952Y-123896380D01*
X108878666Y-123896380D01*
X108973904Y-123848761D01*
X109021523Y-123801142D01*
X108069142Y-122896380D02*
X107450095Y-122896380D01*
X107783428Y-123277333D01*
X107640571Y-123277333D01*
X107545333Y-123324952D01*
X107497714Y-123372571D01*
X107450095Y-123467809D01*
X107450095Y-123705904D01*
X107497714Y-123801142D01*
X107545333Y-123848761D01*
X107640571Y-123896380D01*
X107926285Y-123896380D01*
X108021523Y-123848761D01*
X108069142Y-123801142D01*
X109354857Y-122023142D02*
X109402476Y-122070761D01*
X109545333Y-122118380D01*
X109640571Y-122118380D01*
X109783428Y-122070761D01*
X109878666Y-121975523D01*
X109926285Y-121880285D01*
X109973904Y-121689809D01*
X109973904Y-121546952D01*
X109926285Y-121356476D01*
X109878666Y-121261238D01*
X109783428Y-121166000D01*
X109640571Y-121118380D01*
X109545333Y-121118380D01*
X109402476Y-121166000D01*
X109354857Y-121213619D01*
X109021523Y-121118380D02*
X108402476Y-121118380D01*
X108735809Y-121499333D01*
X108592952Y-121499333D01*
X108497714Y-121546952D01*
X108450095Y-121594571D01*
X108402476Y-121689809D01*
X108402476Y-121927904D01*
X108450095Y-122023142D01*
X108497714Y-122070761D01*
X108592952Y-122118380D01*
X108878666Y-122118380D01*
X108973904Y-122070761D01*
X109021523Y-122023142D01*
X107783428Y-121118380D02*
X107688190Y-121118380D01*
X107592952Y-121166000D01*
X107545333Y-121213619D01*
X107497714Y-121308857D01*
X107450095Y-121499333D01*
X107450095Y-121737428D01*
X107497714Y-121927904D01*
X107545333Y-122023142D01*
X107592952Y-122070761D01*
X107688190Y-122118380D01*
X107783428Y-122118380D01*
X107878666Y-122070761D01*
X107926285Y-122023142D01*
X107973904Y-121927904D01*
X108021523Y-121737428D01*
X108021523Y-121499333D01*
X107973904Y-121308857D01*
X107926285Y-121213619D01*
X107878666Y-121166000D01*
X107783428Y-121118380D01*
X112656857Y-122023142D02*
X112704476Y-122070761D01*
X112847333Y-122118380D01*
X112942571Y-122118380D01*
X113085428Y-122070761D01*
X113180666Y-121975523D01*
X113228285Y-121880285D01*
X113275904Y-121689809D01*
X113275904Y-121546952D01*
X113228285Y-121356476D01*
X113180666Y-121261238D01*
X113085428Y-121166000D01*
X112942571Y-121118380D01*
X112847333Y-121118380D01*
X112704476Y-121166000D01*
X112656857Y-121213619D01*
X112275904Y-121213619D02*
X112228285Y-121166000D01*
X112133047Y-121118380D01*
X111894952Y-121118380D01*
X111799714Y-121166000D01*
X111752095Y-121213619D01*
X111704476Y-121308857D01*
X111704476Y-121404095D01*
X111752095Y-121546952D01*
X112323523Y-122118380D01*
X111704476Y-122118380D01*
X111133047Y-121546952D02*
X111228285Y-121499333D01*
X111275904Y-121451714D01*
X111323523Y-121356476D01*
X111323523Y-121308857D01*
X111275904Y-121213619D01*
X111228285Y-121166000D01*
X111133047Y-121118380D01*
X110942571Y-121118380D01*
X110847333Y-121166000D01*
X110799714Y-121213619D01*
X110752095Y-121308857D01*
X110752095Y-121356476D01*
X110799714Y-121451714D01*
X110847333Y-121499333D01*
X110942571Y-121546952D01*
X111133047Y-121546952D01*
X111228285Y-121594571D01*
X111275904Y-121642190D01*
X111323523Y-121737428D01*
X111323523Y-121927904D01*
X111275904Y-122023142D01*
X111228285Y-122070761D01*
X111133047Y-122118380D01*
X110942571Y-122118380D01*
X110847333Y-122070761D01*
X110799714Y-122023142D01*
X110752095Y-121927904D01*
X110752095Y-121737428D01*
X110799714Y-121642190D01*
X110847333Y-121594571D01*
X110942571Y-121546952D01*
X109354857Y-120245142D02*
X109402476Y-120292761D01*
X109545333Y-120340380D01*
X109640571Y-120340380D01*
X109783428Y-120292761D01*
X109878666Y-120197523D01*
X109926285Y-120102285D01*
X109973904Y-119911809D01*
X109973904Y-119768952D01*
X109926285Y-119578476D01*
X109878666Y-119483238D01*
X109783428Y-119388000D01*
X109640571Y-119340380D01*
X109545333Y-119340380D01*
X109402476Y-119388000D01*
X109354857Y-119435619D01*
X108973904Y-119435619D02*
X108926285Y-119388000D01*
X108831047Y-119340380D01*
X108592952Y-119340380D01*
X108497714Y-119388000D01*
X108450095Y-119435619D01*
X108402476Y-119530857D01*
X108402476Y-119626095D01*
X108450095Y-119768952D01*
X109021523Y-120340380D01*
X108402476Y-120340380D01*
X108069142Y-119340380D02*
X107402476Y-119340380D01*
X107831047Y-120340380D01*
X112656857Y-120245142D02*
X112704476Y-120292761D01*
X112847333Y-120340380D01*
X112942571Y-120340380D01*
X113085428Y-120292761D01*
X113180666Y-120197523D01*
X113228285Y-120102285D01*
X113275904Y-119911809D01*
X113275904Y-119768952D01*
X113228285Y-119578476D01*
X113180666Y-119483238D01*
X113085428Y-119388000D01*
X112942571Y-119340380D01*
X112847333Y-119340380D01*
X112704476Y-119388000D01*
X112656857Y-119435619D01*
X112275904Y-119435619D02*
X112228285Y-119388000D01*
X112133047Y-119340380D01*
X111894952Y-119340380D01*
X111799714Y-119388000D01*
X111752095Y-119435619D01*
X111704476Y-119530857D01*
X111704476Y-119626095D01*
X111752095Y-119768952D01*
X112323523Y-120340380D01*
X111704476Y-120340380D01*
X110799714Y-119340380D02*
X111275904Y-119340380D01*
X111323523Y-119816571D01*
X111275904Y-119768952D01*
X111180666Y-119721333D01*
X110942571Y-119721333D01*
X110847333Y-119768952D01*
X110799714Y-119816571D01*
X110752095Y-119911809D01*
X110752095Y-120149904D01*
X110799714Y-120245142D01*
X110847333Y-120292761D01*
X110942571Y-120340380D01*
X111180666Y-120340380D01*
X111275904Y-120292761D01*
X111323523Y-120245142D01*
X109354857Y-118975142D02*
X109402476Y-119022761D01*
X109545333Y-119070380D01*
X109640571Y-119070380D01*
X109783428Y-119022761D01*
X109878666Y-118927523D01*
X109926285Y-118832285D01*
X109973904Y-118641809D01*
X109973904Y-118498952D01*
X109926285Y-118308476D01*
X109878666Y-118213238D01*
X109783428Y-118118000D01*
X109640571Y-118070380D01*
X109545333Y-118070380D01*
X109402476Y-118118000D01*
X109354857Y-118165619D01*
X108973904Y-118165619D02*
X108926285Y-118118000D01*
X108831047Y-118070380D01*
X108592952Y-118070380D01*
X108497714Y-118118000D01*
X108450095Y-118165619D01*
X108402476Y-118260857D01*
X108402476Y-118356095D01*
X108450095Y-118498952D01*
X109021523Y-119070380D01*
X108402476Y-119070380D01*
X108069142Y-118070380D02*
X107450095Y-118070380D01*
X107783428Y-118451333D01*
X107640571Y-118451333D01*
X107545333Y-118498952D01*
X107497714Y-118546571D01*
X107450095Y-118641809D01*
X107450095Y-118879904D01*
X107497714Y-118975142D01*
X107545333Y-119022761D01*
X107640571Y-119070380D01*
X107926285Y-119070380D01*
X108021523Y-119022761D01*
X108069142Y-118975142D01*
X130106857Y-122609142D02*
X130154476Y-122656761D01*
X130297333Y-122704380D01*
X130392571Y-122704380D01*
X130535428Y-122656761D01*
X130630666Y-122561523D01*
X130678285Y-122466285D01*
X130725904Y-122275809D01*
X130725904Y-122132952D01*
X130678285Y-121942476D01*
X130630666Y-121847238D01*
X130535428Y-121752000D01*
X130392571Y-121704380D01*
X130297333Y-121704380D01*
X130154476Y-121752000D01*
X130106857Y-121799619D01*
X129725904Y-121799619D02*
X129678285Y-121752000D01*
X129583047Y-121704380D01*
X129344952Y-121704380D01*
X129249714Y-121752000D01*
X129202095Y-121799619D01*
X129154476Y-121894857D01*
X129154476Y-121990095D01*
X129202095Y-122132952D01*
X129773523Y-122704380D01*
X129154476Y-122704380D01*
X128202095Y-122704380D02*
X128773523Y-122704380D01*
X128487809Y-122704380D02*
X128487809Y-121704380D01*
X128583047Y-121847238D01*
X128678285Y-121942476D01*
X128773523Y-121990095D01*
X109354857Y-116435142D02*
X109402476Y-116482761D01*
X109545333Y-116530380D01*
X109640571Y-116530380D01*
X109783428Y-116482761D01*
X109878666Y-116387523D01*
X109926285Y-116292285D01*
X109973904Y-116101809D01*
X109973904Y-115958952D01*
X109926285Y-115768476D01*
X109878666Y-115673238D01*
X109783428Y-115578000D01*
X109640571Y-115530380D01*
X109545333Y-115530380D01*
X109402476Y-115578000D01*
X109354857Y-115625619D01*
X108973904Y-115625619D02*
X108926285Y-115578000D01*
X108831047Y-115530380D01*
X108592952Y-115530380D01*
X108497714Y-115578000D01*
X108450095Y-115625619D01*
X108402476Y-115720857D01*
X108402476Y-115816095D01*
X108450095Y-115958952D01*
X109021523Y-116530380D01*
X108402476Y-116530380D01*
X107783428Y-115530380D02*
X107688190Y-115530380D01*
X107592952Y-115578000D01*
X107545333Y-115625619D01*
X107497714Y-115720857D01*
X107450095Y-115911333D01*
X107450095Y-116149428D01*
X107497714Y-116339904D01*
X107545333Y-116435142D01*
X107592952Y-116482761D01*
X107688190Y-116530380D01*
X107783428Y-116530380D01*
X107878666Y-116482761D01*
X107926285Y-116435142D01*
X107973904Y-116339904D01*
X108021523Y-116149428D01*
X108021523Y-115911333D01*
X107973904Y-115720857D01*
X107926285Y-115625619D01*
X107878666Y-115578000D01*
X107783428Y-115530380D01*
X138818857Y-122277142D02*
X138866476Y-122324761D01*
X139009333Y-122372380D01*
X139104571Y-122372380D01*
X139247428Y-122324761D01*
X139342666Y-122229523D01*
X139390285Y-122134285D01*
X139437904Y-121943809D01*
X139437904Y-121800952D01*
X139390285Y-121610476D01*
X139342666Y-121515238D01*
X139247428Y-121420000D01*
X139104571Y-121372380D01*
X139009333Y-121372380D01*
X138866476Y-121420000D01*
X138818857Y-121467619D01*
X137866476Y-122372380D02*
X138437904Y-122372380D01*
X138152190Y-122372380D02*
X138152190Y-121372380D01*
X138247428Y-121515238D01*
X138342666Y-121610476D01*
X138437904Y-121658095D01*
X137390285Y-122372380D02*
X137199809Y-122372380D01*
X137104571Y-122324761D01*
X137056952Y-122277142D01*
X136961714Y-122134285D01*
X136914095Y-121943809D01*
X136914095Y-121562857D01*
X136961714Y-121467619D01*
X137009333Y-121420000D01*
X137104571Y-121372380D01*
X137295047Y-121372380D01*
X137390285Y-121420000D01*
X137437904Y-121467619D01*
X137485523Y-121562857D01*
X137485523Y-121800952D01*
X137437904Y-121896190D01*
X137390285Y-121943809D01*
X137295047Y-121991428D01*
X137104571Y-121991428D01*
X137009333Y-121943809D01*
X136961714Y-121896190D01*
X136914095Y-121800952D01*
X109354857Y-115165142D02*
X109402476Y-115212761D01*
X109545333Y-115260380D01*
X109640571Y-115260380D01*
X109783428Y-115212761D01*
X109878666Y-115117523D01*
X109926285Y-115022285D01*
X109973904Y-114831809D01*
X109973904Y-114688952D01*
X109926285Y-114498476D01*
X109878666Y-114403238D01*
X109783428Y-114308000D01*
X109640571Y-114260380D01*
X109545333Y-114260380D01*
X109402476Y-114308000D01*
X109354857Y-114355619D01*
X108402476Y-115260380D02*
X108973904Y-115260380D01*
X108688190Y-115260380D02*
X108688190Y-114260380D01*
X108783428Y-114403238D01*
X108878666Y-114498476D01*
X108973904Y-114546095D01*
X107831047Y-114688952D02*
X107926285Y-114641333D01*
X107973904Y-114593714D01*
X108021523Y-114498476D01*
X108021523Y-114450857D01*
X107973904Y-114355619D01*
X107926285Y-114308000D01*
X107831047Y-114260380D01*
X107640571Y-114260380D01*
X107545333Y-114308000D01*
X107497714Y-114355619D01*
X107450095Y-114450857D01*
X107450095Y-114498476D01*
X107497714Y-114593714D01*
X107545333Y-114641333D01*
X107640571Y-114688952D01*
X107831047Y-114688952D01*
X107926285Y-114736571D01*
X107973904Y-114784190D01*
X108021523Y-114879428D01*
X108021523Y-115069904D01*
X107973904Y-115165142D01*
X107926285Y-115212761D01*
X107831047Y-115260380D01*
X107640571Y-115260380D01*
X107545333Y-115212761D01*
X107497714Y-115165142D01*
X107450095Y-115069904D01*
X107450095Y-114879428D01*
X107497714Y-114784190D01*
X107545333Y-114736571D01*
X107640571Y-114688952D01*
X122023142Y-122293142D02*
X122070761Y-122245523D01*
X122118380Y-122102666D01*
X122118380Y-122007428D01*
X122070761Y-121864571D01*
X121975523Y-121769333D01*
X121880285Y-121721714D01*
X121689809Y-121674095D01*
X121546952Y-121674095D01*
X121356476Y-121721714D01*
X121261238Y-121769333D01*
X121166000Y-121864571D01*
X121118380Y-122007428D01*
X121118380Y-122102666D01*
X121166000Y-122245523D01*
X121213619Y-122293142D01*
X122118380Y-123245523D02*
X122118380Y-122674095D01*
X122118380Y-122959809D02*
X121118380Y-122959809D01*
X121261238Y-122864571D01*
X121356476Y-122769333D01*
X121404095Y-122674095D01*
X121118380Y-123578857D02*
X121118380Y-124245523D01*
X122118380Y-123816952D01*
X126087142Y-113403142D02*
X126134761Y-113355523D01*
X126182380Y-113212666D01*
X126182380Y-113117428D01*
X126134761Y-112974571D01*
X126039523Y-112879333D01*
X125944285Y-112831714D01*
X125753809Y-112784095D01*
X125610952Y-112784095D01*
X125420476Y-112831714D01*
X125325238Y-112879333D01*
X125230000Y-112974571D01*
X125182380Y-113117428D01*
X125182380Y-113212666D01*
X125230000Y-113355523D01*
X125277619Y-113403142D01*
X126182380Y-114355523D02*
X126182380Y-113784095D01*
X126182380Y-114069809D02*
X125182380Y-114069809D01*
X125325238Y-113974571D01*
X125420476Y-113879333D01*
X125468095Y-113784095D01*
X125182380Y-115212666D02*
X125182380Y-115022190D01*
X125230000Y-114926952D01*
X125277619Y-114879333D01*
X125420476Y-114784095D01*
X125610952Y-114736476D01*
X125991904Y-114736476D01*
X126087142Y-114784095D01*
X126134761Y-114831714D01*
X126182380Y-114926952D01*
X126182380Y-115117428D01*
X126134761Y-115212666D01*
X126087142Y-115260285D01*
X125991904Y-115307904D01*
X125753809Y-115307904D01*
X125658571Y-115260285D01*
X125610952Y-115212666D01*
X125563333Y-115117428D01*
X125563333Y-114926952D01*
X125610952Y-114831714D01*
X125658571Y-114784095D01*
X125753809Y-114736476D01*
X112879142Y-133723142D02*
X112926761Y-133675523D01*
X112974380Y-133532666D01*
X112974380Y-133437428D01*
X112926761Y-133294571D01*
X112831523Y-133199333D01*
X112736285Y-133151714D01*
X112545809Y-133104095D01*
X112402952Y-133104095D01*
X112212476Y-133151714D01*
X112117238Y-133199333D01*
X112022000Y-133294571D01*
X111974380Y-133437428D01*
X111974380Y-133532666D01*
X112022000Y-133675523D01*
X112069619Y-133723142D01*
X112974380Y-134675523D02*
X112974380Y-134104095D01*
X112974380Y-134389809D02*
X111974380Y-134389809D01*
X112117238Y-134294571D01*
X112212476Y-134199333D01*
X112260095Y-134104095D01*
X112069619Y-135056476D02*
X112022000Y-135104095D01*
X111974380Y-135199333D01*
X111974380Y-135437428D01*
X112022000Y-135532666D01*
X112069619Y-135580285D01*
X112164857Y-135627904D01*
X112260095Y-135627904D01*
X112402952Y-135580285D01*
X112974380Y-135008857D01*
X112974380Y-135627904D01*
X130182857Y-119229142D02*
X130230476Y-119276761D01*
X130373333Y-119324380D01*
X130468571Y-119324380D01*
X130611428Y-119276761D01*
X130706666Y-119181523D01*
X130754285Y-119086285D01*
X130801904Y-118895809D01*
X130801904Y-118752952D01*
X130754285Y-118562476D01*
X130706666Y-118467238D01*
X130611428Y-118372000D01*
X130468571Y-118324380D01*
X130373333Y-118324380D01*
X130230476Y-118372000D01*
X130182857Y-118419619D01*
X129230476Y-119324380D02*
X129801904Y-119324380D01*
X129516190Y-119324380D02*
X129516190Y-118324380D01*
X129611428Y-118467238D01*
X129706666Y-118562476D01*
X129801904Y-118610095D01*
X128897142Y-118324380D02*
X128278095Y-118324380D01*
X128611428Y-118705333D01*
X128468571Y-118705333D01*
X128373333Y-118752952D01*
X128325714Y-118800571D01*
X128278095Y-118895809D01*
X128278095Y-119133904D01*
X128325714Y-119229142D01*
X128373333Y-119276761D01*
X128468571Y-119324380D01*
X128754285Y-119324380D01*
X128849523Y-119276761D01*
X128897142Y-119229142D01*
X112402857Y-110085142D02*
X112450476Y-110132761D01*
X112593333Y-110180380D01*
X112688571Y-110180380D01*
X112831428Y-110132761D01*
X112926666Y-110037523D01*
X112974285Y-109942285D01*
X113021904Y-109751809D01*
X113021904Y-109608952D01*
X112974285Y-109418476D01*
X112926666Y-109323238D01*
X112831428Y-109228000D01*
X112688571Y-109180380D01*
X112593333Y-109180380D01*
X112450476Y-109228000D01*
X112402857Y-109275619D01*
X111450476Y-110180380D02*
X112021904Y-110180380D01*
X111736190Y-110180380D02*
X111736190Y-109180380D01*
X111831428Y-109323238D01*
X111926666Y-109418476D01*
X112021904Y-109466095D01*
X110498095Y-110180380D02*
X111069523Y-110180380D01*
X110783809Y-110180380D02*
X110783809Y-109180380D01*
X110879047Y-109323238D01*
X110974285Y-109418476D01*
X111069523Y-109466095D01*
X112434666Y-111355142D02*
X112482285Y-111402761D01*
X112625142Y-111450380D01*
X112720380Y-111450380D01*
X112863238Y-111402761D01*
X112958476Y-111307523D01*
X113006095Y-111212285D01*
X113053714Y-111021809D01*
X113053714Y-110878952D01*
X113006095Y-110688476D01*
X112958476Y-110593238D01*
X112863238Y-110498000D01*
X112720380Y-110450380D01*
X112625142Y-110450380D01*
X112482285Y-110498000D01*
X112434666Y-110545619D01*
X111958476Y-111450380D02*
X111768000Y-111450380D01*
X111672761Y-111402761D01*
X111625142Y-111355142D01*
X111529904Y-111212285D01*
X111482285Y-111021809D01*
X111482285Y-110640857D01*
X111529904Y-110545619D01*
X111577523Y-110498000D01*
X111672761Y-110450380D01*
X111863238Y-110450380D01*
X111958476Y-110498000D01*
X112006095Y-110545619D01*
X112053714Y-110640857D01*
X112053714Y-110878952D01*
X112006095Y-110974190D01*
X111958476Y-111021809D01*
X111863238Y-111069428D01*
X111672761Y-111069428D01*
X111577523Y-111021809D01*
X111529904Y-110974190D01*
X111482285Y-110878952D01*
X138850666Y-123547142D02*
X138898285Y-123594761D01*
X139041142Y-123642380D01*
X139136380Y-123642380D01*
X139279238Y-123594761D01*
X139374476Y-123499523D01*
X139422095Y-123404285D01*
X139469714Y-123213809D01*
X139469714Y-123070952D01*
X139422095Y-122880476D01*
X139374476Y-122785238D01*
X139279238Y-122690000D01*
X139136380Y-122642380D01*
X139041142Y-122642380D01*
X138898285Y-122690000D01*
X138850666Y-122737619D01*
X138279238Y-123070952D02*
X138374476Y-123023333D01*
X138422095Y-122975714D01*
X138469714Y-122880476D01*
X138469714Y-122832857D01*
X138422095Y-122737619D01*
X138374476Y-122690000D01*
X138279238Y-122642380D01*
X138088761Y-122642380D01*
X137993523Y-122690000D01*
X137945904Y-122737619D01*
X137898285Y-122832857D01*
X137898285Y-122880476D01*
X137945904Y-122975714D01*
X137993523Y-123023333D01*
X138088761Y-123070952D01*
X138279238Y-123070952D01*
X138374476Y-123118571D01*
X138422095Y-123166190D01*
X138469714Y-123261428D01*
X138469714Y-123451904D01*
X138422095Y-123547142D01*
X138374476Y-123594761D01*
X138279238Y-123642380D01*
X138088761Y-123642380D01*
X137993523Y-123594761D01*
X137945904Y-123547142D01*
X137898285Y-123451904D01*
X137898285Y-123261428D01*
X137945904Y-123166190D01*
X137993523Y-123118571D01*
X138088761Y-123070952D01*
X129706666Y-116943142D02*
X129754285Y-116990761D01*
X129897142Y-117038380D01*
X129992380Y-117038380D01*
X130135238Y-116990761D01*
X130230476Y-116895523D01*
X130278095Y-116800285D01*
X130325714Y-116609809D01*
X130325714Y-116466952D01*
X130278095Y-116276476D01*
X130230476Y-116181238D01*
X130135238Y-116086000D01*
X129992380Y-116038380D01*
X129897142Y-116038380D01*
X129754285Y-116086000D01*
X129706666Y-116133619D01*
X129373333Y-116038380D02*
X128706666Y-116038380D01*
X129135238Y-117038380D01*
X112434666Y-112625142D02*
X112482285Y-112672761D01*
X112625142Y-112720380D01*
X112720380Y-112720380D01*
X112863238Y-112672761D01*
X112958476Y-112577523D01*
X113006095Y-112482285D01*
X113053714Y-112291809D01*
X113053714Y-112148952D01*
X113006095Y-111958476D01*
X112958476Y-111863238D01*
X112863238Y-111768000D01*
X112720380Y-111720380D01*
X112625142Y-111720380D01*
X112482285Y-111768000D01*
X112434666Y-111815619D01*
X111577523Y-112053714D02*
X111577523Y-112720380D01*
X111815619Y-111672761D02*
X112053714Y-112387047D01*
X111434666Y-112387047D01*
X120499142Y-112101333D02*
X120546761Y-112053714D01*
X120594380Y-111910857D01*
X120594380Y-111815619D01*
X120546761Y-111672761D01*
X120451523Y-111577523D01*
X120356285Y-111529904D01*
X120165809Y-111482285D01*
X120022952Y-111482285D01*
X119832476Y-111529904D01*
X119737238Y-111577523D01*
X119642000Y-111672761D01*
X119594380Y-111815619D01*
X119594380Y-111910857D01*
X119642000Y-112053714D01*
X119689619Y-112101333D01*
X119594380Y-112434666D02*
X119594380Y-113053714D01*
X119975333Y-112720380D01*
X119975333Y-112863238D01*
X120022952Y-112958476D01*
X120070571Y-113006095D01*
X120165809Y-113053714D01*
X120403904Y-113053714D01*
X120499142Y-113006095D01*
X120546761Y-112958476D01*
X120594380Y-112863238D01*
X120594380Y-112577523D01*
X120546761Y-112482285D01*
X120499142Y-112434666D01*
X110339142Y-133691333D02*
X110386761Y-133643714D01*
X110434380Y-133500857D01*
X110434380Y-133405619D01*
X110386761Y-133262761D01*
X110291523Y-133167523D01*
X110196285Y-133119904D01*
X110005809Y-133072285D01*
X109862952Y-133072285D01*
X109672476Y-133119904D01*
X109577238Y-133167523D01*
X109482000Y-133262761D01*
X109434380Y-133405619D01*
X109434380Y-133500857D01*
X109482000Y-133643714D01*
X109529619Y-133691333D01*
X109529619Y-134072285D02*
X109482000Y-134119904D01*
X109434380Y-134215142D01*
X109434380Y-134453238D01*
X109482000Y-134548476D01*
X109529619Y-134596095D01*
X109624857Y-134643714D01*
X109720095Y-134643714D01*
X109862952Y-134596095D01*
X110434380Y-134024666D01*
X110434380Y-134643714D01*
X121769142Y-112101333D02*
X121816761Y-112053714D01*
X121864380Y-111910857D01*
X121864380Y-111815619D01*
X121816761Y-111672761D01*
X121721523Y-111577523D01*
X121626285Y-111529904D01*
X121435809Y-111482285D01*
X121292952Y-111482285D01*
X121102476Y-111529904D01*
X121007238Y-111577523D01*
X120912000Y-111672761D01*
X120864380Y-111815619D01*
X120864380Y-111910857D01*
X120912000Y-112053714D01*
X120959619Y-112101333D01*
X121864380Y-113053714D02*
X121864380Y-112482285D01*
X121864380Y-112768000D02*
X120864380Y-112768000D01*
X121007238Y-112672761D01*
X121102476Y-112577523D01*
X121150095Y-112482285D01*
M02*
