%TF.GenerationSoftware,KiCad,Pcbnew,(5.1.5)-3*%
%TF.CreationDate,2020-04-26T22:01:22+08:00*%
%TF.ProjectId,vllink_highspeed.r1,766c6c69-6e6b-45f6-9869-676873706565,rev?*%
%TF.SameCoordinates,Original*%
%TF.FileFunction,Legend,Bot*%
%TF.FilePolarity,Positive*%
%FSLAX46Y46*%
G04 Gerber Fmt 4.6, Leading zero omitted, Abs format (unit mm)*
G04 Created by KiCad (PCBNEW (5.1.5)-3) date 2020-04-26 22:01:22*
%MOMM*%
%LPD*%
G04 APERTURE LIST*
%ADD10C,0.304800*%
%ADD11C,0.120000*%
%ADD12C,0.150000*%
%ADD13C,0.152400*%
G04 APERTURE END LIST*
D10*
X121999828Y-100325403D02*
X123523828Y-100748737D01*
X121999828Y-101172070D01*
X123523828Y-102139689D02*
X121999828Y-102139689D01*
X123451257Y-102139689D02*
X123523828Y-102018737D01*
X123523828Y-101776832D01*
X123451257Y-101655880D01*
X123378685Y-101595403D01*
X123233542Y-101534927D01*
X122798114Y-101534927D01*
X122652971Y-101595403D01*
X122580400Y-101655880D01*
X122507828Y-101776832D01*
X122507828Y-102018737D01*
X122580400Y-102139689D01*
X123523828Y-102744451D02*
X122507828Y-102744451D01*
X122798114Y-102744451D02*
X122652971Y-102804927D01*
X122580400Y-102865403D01*
X122507828Y-102986356D01*
X122507828Y-103107308D01*
X122507828Y-103409689D02*
X123523828Y-103712070D01*
X122507828Y-104014451D01*
X125969485Y-101413975D02*
X126042057Y-101353499D01*
X126114628Y-101172070D01*
X126114628Y-101051118D01*
X126042057Y-100869689D01*
X125896914Y-100748737D01*
X125751771Y-100688260D01*
X125461485Y-100627784D01*
X125243771Y-100627784D01*
X124953485Y-100688260D01*
X124808342Y-100748737D01*
X124663200Y-100869689D01*
X124590628Y-101051118D01*
X124590628Y-101172070D01*
X124663200Y-101353499D01*
X124735771Y-101413975D01*
X126114628Y-101958260D02*
X124590628Y-101958260D01*
X125316342Y-101958260D02*
X125316342Y-102683975D01*
X126114628Y-102683975D02*
X124590628Y-102683975D01*
X126114628Y-103953975D02*
X126114628Y-103228260D01*
X126114628Y-103591118D02*
X124590628Y-103591118D01*
X124808342Y-103470165D01*
X124953485Y-103349213D01*
X125026057Y-103228260D01*
X128560285Y-101413975D02*
X128632857Y-101353499D01*
X128705428Y-101172070D01*
X128705428Y-101051118D01*
X128632857Y-100869689D01*
X128487714Y-100748737D01*
X128342571Y-100688260D01*
X128052285Y-100627784D01*
X127834571Y-100627784D01*
X127544285Y-100688260D01*
X127399142Y-100748737D01*
X127254000Y-100869689D01*
X127181428Y-101051118D01*
X127181428Y-101172070D01*
X127254000Y-101353499D01*
X127326571Y-101413975D01*
X128705428Y-101958260D02*
X127181428Y-101958260D01*
X127907142Y-101958260D02*
X127907142Y-102683975D01*
X128705428Y-102683975D02*
X127181428Y-102683975D01*
X127181428Y-103167784D02*
X127181428Y-103953975D01*
X127762000Y-103530641D01*
X127762000Y-103712070D01*
X127834571Y-103833022D01*
X127907142Y-103893499D01*
X128052285Y-103953975D01*
X128415142Y-103953975D01*
X128560285Y-103893499D01*
X128632857Y-103833022D01*
X128705428Y-103712070D01*
X128705428Y-103349213D01*
X128632857Y-103228260D01*
X128560285Y-103167784D01*
X129844800Y-101293022D02*
X129772228Y-101172070D01*
X129772228Y-100990641D01*
X129844800Y-100809213D01*
X129989942Y-100688260D01*
X130135085Y-100627784D01*
X130425371Y-100567308D01*
X130643085Y-100567308D01*
X130933371Y-100627784D01*
X131078514Y-100688260D01*
X131223657Y-100809213D01*
X131296228Y-100990641D01*
X131296228Y-101111594D01*
X131223657Y-101293022D01*
X131151085Y-101353499D01*
X130643085Y-101353499D01*
X130643085Y-101111594D01*
X131296228Y-101897784D02*
X129772228Y-101897784D01*
X131296228Y-102623499D01*
X129772228Y-102623499D01*
X131296228Y-103228260D02*
X129772228Y-103228260D01*
X129772228Y-103530641D01*
X129844800Y-103712070D01*
X129989942Y-103833022D01*
X130135085Y-103893499D01*
X130425371Y-103953975D01*
X130643085Y-103953975D01*
X130933371Y-103893499D01*
X131078514Y-103833022D01*
X131223657Y-103712070D01*
X131296228Y-103530641D01*
X131296228Y-103228260D01*
X133887028Y-101534927D02*
X133161314Y-101111594D01*
X133887028Y-100809213D02*
X132363028Y-100809213D01*
X132363028Y-101293022D01*
X132435600Y-101413975D01*
X132508171Y-101474451D01*
X132653314Y-101534927D01*
X132871028Y-101534927D01*
X133016171Y-101474451D01*
X133088742Y-101413975D01*
X133161314Y-101293022D01*
X133161314Y-100809213D01*
X132363028Y-101958260D02*
X133887028Y-102804927D01*
X132363028Y-102804927D02*
X133887028Y-101958260D01*
X132508171Y-103228260D02*
X132435600Y-103288737D01*
X132363028Y-103409689D01*
X132363028Y-103712070D01*
X132435600Y-103833022D01*
X132508171Y-103893499D01*
X132653314Y-103953975D01*
X132798457Y-103953975D01*
X133016171Y-103893499D01*
X133887028Y-103167784D01*
X133887028Y-103953975D01*
X155738727Y-111712828D02*
X155315394Y-113236828D01*
X154892060Y-111712828D01*
X153924441Y-113236828D02*
X153924441Y-111712828D01*
X153924441Y-113164257D02*
X154045394Y-113236828D01*
X154287299Y-113236828D01*
X154408251Y-113164257D01*
X154468727Y-113091685D01*
X154529203Y-112946542D01*
X154529203Y-112511114D01*
X154468727Y-112365971D01*
X154408251Y-112293400D01*
X154287299Y-112220828D01*
X154045394Y-112220828D01*
X153924441Y-112293400D01*
X153319680Y-113236828D02*
X153319680Y-112220828D01*
X153319680Y-112511114D02*
X153259203Y-112365971D01*
X153198727Y-112293400D01*
X153077775Y-112220828D01*
X152956822Y-112220828D01*
X152654441Y-112220828D02*
X152352060Y-113236828D01*
X152049680Y-112220828D01*
X154892060Y-114376200D02*
X155013013Y-114303628D01*
X155194441Y-114303628D01*
X155375870Y-114376200D01*
X155496822Y-114521342D01*
X155557299Y-114666485D01*
X155617775Y-114956771D01*
X155617775Y-115174485D01*
X155557299Y-115464771D01*
X155496822Y-115609914D01*
X155375870Y-115755057D01*
X155194441Y-115827628D01*
X155073489Y-115827628D01*
X154892060Y-115755057D01*
X154831584Y-115682485D01*
X154831584Y-115174485D01*
X155073489Y-115174485D01*
X154287299Y-115827628D02*
X154287299Y-114303628D01*
X153561584Y-115827628D01*
X153561584Y-114303628D01*
X152956822Y-115827628D02*
X152956822Y-114303628D01*
X152654441Y-114303628D01*
X152473013Y-114376200D01*
X152352060Y-114521342D01*
X152291584Y-114666485D01*
X152231108Y-114956771D01*
X152231108Y-115174485D01*
X152291584Y-115464771D01*
X152352060Y-115609914D01*
X152473013Y-115755057D01*
X152654441Y-115827628D01*
X152956822Y-115827628D01*
X155738727Y-116894428D02*
X155013013Y-116894428D01*
X155375870Y-118418428D02*
X155375870Y-116894428D01*
X153863965Y-118418428D02*
X154287299Y-117692714D01*
X154589680Y-118418428D02*
X154589680Y-116894428D01*
X154105870Y-116894428D01*
X153984918Y-116967000D01*
X153924441Y-117039571D01*
X153863965Y-117184714D01*
X153863965Y-117402428D01*
X153924441Y-117547571D01*
X153984918Y-117620142D01*
X154105870Y-117692714D01*
X154589680Y-117692714D01*
X153380156Y-118345857D02*
X153198727Y-118418428D01*
X152896346Y-118418428D01*
X152775394Y-118345857D01*
X152714918Y-118273285D01*
X152654441Y-118128142D01*
X152654441Y-117983000D01*
X152714918Y-117837857D01*
X152775394Y-117765285D01*
X152896346Y-117692714D01*
X153138251Y-117620142D01*
X153259203Y-117547571D01*
X153319680Y-117475000D01*
X153380156Y-117329857D01*
X153380156Y-117184714D01*
X153319680Y-117039571D01*
X153259203Y-116967000D01*
X153138251Y-116894428D01*
X152835870Y-116894428D01*
X152654441Y-116967000D01*
X152291584Y-116894428D02*
X151565870Y-116894428D01*
X151928727Y-118418428D02*
X151928727Y-116894428D01*
X155738727Y-119485228D02*
X155013013Y-119485228D01*
X155375870Y-121009228D02*
X155375870Y-119485228D01*
X154710632Y-119485228D02*
X153863965Y-121009228D01*
X153863965Y-119485228D02*
X154710632Y-121009228D01*
X152714918Y-121009228D02*
X153440632Y-121009228D01*
X153077775Y-121009228D02*
X153077775Y-119485228D01*
X153198727Y-119702942D01*
X153319680Y-119848085D01*
X153440632Y-119920657D01*
X154831584Y-123600028D02*
X155254918Y-122874314D01*
X155557299Y-123600028D02*
X155557299Y-122076028D01*
X155073489Y-122076028D01*
X154952537Y-122148600D01*
X154892060Y-122221171D01*
X154831584Y-122366314D01*
X154831584Y-122584028D01*
X154892060Y-122729171D01*
X154952537Y-122801742D01*
X155073489Y-122874314D01*
X155557299Y-122874314D01*
X154408251Y-122076028D02*
X153561584Y-123600028D01*
X153561584Y-122076028D02*
X154408251Y-123600028D01*
X152412537Y-123600028D02*
X153138251Y-123600028D01*
X152775394Y-123600028D02*
X152775394Y-122076028D01*
X152896346Y-122293742D01*
X153017299Y-122438885D01*
X153138251Y-122511457D01*
D11*
X130937000Y-126309900D02*
X133684500Y-126309900D01*
X133684500Y-126309900D02*
X133684500Y-126592400D01*
X130937000Y-126309900D02*
X128189500Y-126309900D01*
X128189500Y-126309900D02*
X128189500Y-126592400D01*
X130937000Y-131804900D02*
X133684500Y-131804900D01*
X133684500Y-131804900D02*
X133684500Y-131522400D01*
X130937000Y-131804900D02*
X128189500Y-131804900D01*
X128189500Y-131804900D02*
X128189500Y-131522400D01*
X128189500Y-131522400D02*
X126837000Y-131522400D01*
X121413500Y-130365500D02*
G75*
G03X121413500Y-130365500I-700000J0D01*
G01*
X144972000Y-128651000D02*
G75*
G03X144972000Y-128651000I-700000J0D01*
G01*
X129859000Y-120269000D02*
G75*
G03X129859000Y-120269000I-700000J0D01*
G01*
X112904500Y-115697000D02*
G75*
G03X112904500Y-115697000I-700000J0D01*
G01*
X120334000Y-132080000D02*
G75*
G03X120334000Y-132080000I-700000J0D01*
G01*
X109412000Y-132588000D02*
G75*
G03X109412000Y-132588000I-700000J0D01*
G01*
X106872000Y-132588000D02*
G75*
G03X106872000Y-132588000I-700000J0D01*
G01*
X121032500Y-103314500D02*
G75*
G03X121032500Y-103314500I-700000J0D01*
G01*
X103824000Y-134112000D02*
G75*
G03X103824000Y-134112000I-700000J0D01*
G01*
X103824000Y-130429000D02*
G75*
G03X103824000Y-130429000I-700000J0D01*
G01*
X103824000Y-128397000D02*
G75*
G03X103824000Y-128397000I-700000J0D01*
G01*
X119318000Y-120650000D02*
G75*
G03X119318000Y-120650000I-700000J0D01*
G01*
X103824000Y-126365000D02*
G75*
G03X103824000Y-126365000I-700000J0D01*
G01*
X111190000Y-110998000D02*
G75*
G03X111190000Y-110998000I-700000J0D01*
G01*
X103062000Y-107696000D02*
G75*
G03X103062000Y-107696000I-700000J0D01*
G01*
X117839000Y-105856000D02*
X117839000Y-104456000D01*
X120159000Y-104456000D02*
X120159000Y-106356000D01*
X118077064Y-103145000D02*
X116872936Y-103145000D01*
X118077064Y-101325000D02*
X116872936Y-101325000D01*
X129289000Y-105414000D02*
X129289000Y-105914000D01*
X131569000Y-105414000D02*
X131569000Y-105914000D01*
X130621000Y-122110500D02*
G75*
G03X130621000Y-122110500I-700000J0D01*
G01*
X101497000Y-119595000D02*
X104047000Y-119595000D01*
X101497000Y-117895000D02*
X104047000Y-117895000D01*
X101497000Y-119595000D02*
X101497000Y-117895000D01*
X101497000Y-117563000D02*
X104047000Y-117563000D01*
X101497000Y-115863000D02*
X104047000Y-115863000D01*
X101497000Y-117563000D02*
X101497000Y-115863000D01*
D12*
X139319000Y-112850000D02*
X140394000Y-112850000D01*
X139319000Y-125425000D02*
X132969000Y-125425000D01*
X139319000Y-112675000D02*
X132969000Y-112675000D01*
X139319000Y-125425000D02*
X139319000Y-125167500D01*
X132969000Y-125425000D02*
X132969000Y-125167500D01*
X132969000Y-112675000D02*
X132969000Y-112932500D01*
X139319000Y-112675000D02*
X139319000Y-112850000D01*
D11*
X124717000Y-105414000D02*
X124717000Y-105914000D01*
X126997000Y-105414000D02*
X126997000Y-105914000D01*
X151050000Y-121796000D02*
X150550000Y-121796000D01*
X151050000Y-124076000D02*
X150550000Y-124076000D01*
X151050000Y-113922000D02*
X150550000Y-113922000D01*
X151050000Y-116202000D02*
X150550000Y-116202000D01*
X142500000Y-120890000D02*
X142000000Y-120890000D01*
X142500000Y-118610000D02*
X142000000Y-118610000D01*
X142500000Y-116890000D02*
X142000000Y-116890000D01*
X142500000Y-114610000D02*
X142000000Y-114610000D01*
D12*
X131419504Y-124826780D02*
X131419504Y-125636304D01*
X131371885Y-125731542D01*
X131324266Y-125779161D01*
X131229028Y-125826780D01*
X131038552Y-125826780D01*
X130943314Y-125779161D01*
X130895695Y-125731542D01*
X130848076Y-125636304D01*
X130848076Y-124826780D01*
X130419504Y-124922019D02*
X130371885Y-124874400D01*
X130276647Y-124826780D01*
X130038552Y-124826780D01*
X129943314Y-124874400D01*
X129895695Y-124922019D01*
X129848076Y-125017257D01*
X129848076Y-125112495D01*
X129895695Y-125255352D01*
X130467123Y-125826780D01*
X129848076Y-125826780D01*
D13*
X119909166Y-129815166D02*
X119401166Y-129815166D01*
X119655166Y-130704166D02*
X119655166Y-129815166D01*
X119104833Y-130704166D02*
X119104833Y-129815166D01*
X118766166Y-129815166D01*
X118681500Y-129857500D01*
X118639166Y-129899833D01*
X118596833Y-129984500D01*
X118596833Y-130111500D01*
X118639166Y-130196166D01*
X118681500Y-130238500D01*
X118766166Y-130280833D01*
X119104833Y-130280833D01*
X117750166Y-130704166D02*
X118258166Y-130704166D01*
X118004166Y-130704166D02*
X118004166Y-129815166D01*
X118088833Y-129942166D01*
X118173500Y-130026833D01*
X118258166Y-130069166D01*
X117453833Y-129815166D02*
X116861166Y-129815166D01*
X117242166Y-130704166D01*
X148230166Y-128164166D02*
X147722166Y-128164166D01*
X147976166Y-129053166D02*
X147976166Y-128164166D01*
X147425833Y-129053166D02*
X147425833Y-128164166D01*
X147087166Y-128164166D01*
X147002500Y-128206500D01*
X146960166Y-128248833D01*
X146917833Y-128333500D01*
X146917833Y-128460500D01*
X146960166Y-128545166D01*
X147002500Y-128587500D01*
X147087166Y-128629833D01*
X147425833Y-128629833D01*
X146071166Y-129053166D02*
X146579166Y-129053166D01*
X146325166Y-129053166D02*
X146325166Y-128164166D01*
X146409833Y-128291166D01*
X146494500Y-128375833D01*
X146579166Y-128418166D01*
X145309166Y-128164166D02*
X145478500Y-128164166D01*
X145563166Y-128206500D01*
X145605500Y-128248833D01*
X145690166Y-128375833D01*
X145732500Y-128545166D01*
X145732500Y-128883833D01*
X145690166Y-128968500D01*
X145647833Y-129010833D01*
X145563166Y-129053166D01*
X145393833Y-129053166D01*
X145309166Y-129010833D01*
X145266833Y-128968500D01*
X145224500Y-128883833D01*
X145224500Y-128672166D01*
X145266833Y-128587500D01*
X145309166Y-128545166D01*
X145393833Y-128502833D01*
X145563166Y-128502833D01*
X145647833Y-128545166D01*
X145690166Y-128587500D01*
X145732500Y-128672166D01*
X131720166Y-118385166D02*
X131212166Y-118385166D01*
X131466166Y-119274166D02*
X131466166Y-118385166D01*
X130915833Y-119274166D02*
X130915833Y-118385166D01*
X130577166Y-118385166D01*
X130492500Y-118427500D01*
X130450166Y-118469833D01*
X130407833Y-118554500D01*
X130407833Y-118681500D01*
X130450166Y-118766166D01*
X130492500Y-118808500D01*
X130577166Y-118850833D01*
X130915833Y-118850833D01*
X129561166Y-119274166D02*
X130069166Y-119274166D01*
X129815166Y-119274166D02*
X129815166Y-118385166D01*
X129899833Y-118512166D01*
X129984500Y-118596833D01*
X130069166Y-118639166D01*
X128756833Y-118385166D02*
X129180166Y-118385166D01*
X129222500Y-118808500D01*
X129180166Y-118766166D01*
X129095500Y-118723833D01*
X128883833Y-118723833D01*
X128799166Y-118766166D01*
X128756833Y-118808500D01*
X128714500Y-118893166D01*
X128714500Y-119104833D01*
X128756833Y-119189500D01*
X128799166Y-119231833D01*
X128883833Y-119274166D01*
X129095500Y-119274166D01*
X129180166Y-119231833D01*
X129222500Y-119189500D01*
X113432166Y-116861166D02*
X112924166Y-116861166D01*
X113178166Y-117750166D02*
X113178166Y-116861166D01*
X112627833Y-117750166D02*
X112627833Y-116861166D01*
X112289166Y-116861166D01*
X112204500Y-116903500D01*
X112162166Y-116945833D01*
X112119833Y-117030500D01*
X112119833Y-117157500D01*
X112162166Y-117242166D01*
X112204500Y-117284500D01*
X112289166Y-117326833D01*
X112627833Y-117326833D01*
X111273166Y-117750166D02*
X111781166Y-117750166D01*
X111527166Y-117750166D02*
X111527166Y-116861166D01*
X111611833Y-116988166D01*
X111696500Y-117072833D01*
X111781166Y-117115166D01*
X110976833Y-116861166D02*
X110426500Y-116861166D01*
X110722833Y-117199833D01*
X110595833Y-117199833D01*
X110511166Y-117242166D01*
X110468833Y-117284500D01*
X110426500Y-117369166D01*
X110426500Y-117580833D01*
X110468833Y-117665500D01*
X110511166Y-117707833D01*
X110595833Y-117750166D01*
X110849833Y-117750166D01*
X110934500Y-117707833D01*
X110976833Y-117665500D01*
X118893166Y-131593166D02*
X118385166Y-131593166D01*
X118639166Y-132482166D02*
X118639166Y-131593166D01*
X118088833Y-132482166D02*
X118088833Y-131593166D01*
X117750166Y-131593166D01*
X117665500Y-131635500D01*
X117623166Y-131677833D01*
X117580833Y-131762500D01*
X117580833Y-131889500D01*
X117623166Y-131974166D01*
X117665500Y-132016500D01*
X117750166Y-132058833D01*
X118088833Y-132058833D01*
X116734166Y-132482166D02*
X117242166Y-132482166D01*
X116988166Y-132482166D02*
X116988166Y-131593166D01*
X117072833Y-131720166D01*
X117157500Y-131804833D01*
X117242166Y-131847166D01*
X116395500Y-131677833D02*
X116353166Y-131635500D01*
X116268500Y-131593166D01*
X116056833Y-131593166D01*
X115972166Y-131635500D01*
X115929833Y-131677833D01*
X115887500Y-131762500D01*
X115887500Y-131847166D01*
X115929833Y-131974166D01*
X116437833Y-132482166D01*
X115887500Y-132482166D01*
X111146166Y-130577166D02*
X110638166Y-130577166D01*
X110892166Y-131466166D02*
X110892166Y-130577166D01*
X110341833Y-131466166D02*
X110341833Y-130577166D01*
X110003166Y-130577166D01*
X109918500Y-130619500D01*
X109876166Y-130661833D01*
X109833833Y-130746500D01*
X109833833Y-130873500D01*
X109876166Y-130958166D01*
X109918500Y-131000500D01*
X110003166Y-131042833D01*
X110341833Y-131042833D01*
X108987166Y-131466166D02*
X109495166Y-131466166D01*
X109241166Y-131466166D02*
X109241166Y-130577166D01*
X109325833Y-130704166D01*
X109410500Y-130788833D01*
X109495166Y-130831166D01*
X108140500Y-131466166D02*
X108648500Y-131466166D01*
X108394500Y-131466166D02*
X108394500Y-130577166D01*
X108479166Y-130704166D01*
X108563833Y-130788833D01*
X108648500Y-130831166D01*
X107293833Y-130577166D02*
X106785833Y-130577166D01*
X107039833Y-131466166D02*
X107039833Y-130577166D01*
X106489500Y-131466166D02*
X106489500Y-130577166D01*
X106150833Y-130577166D01*
X106066166Y-130619500D01*
X106023833Y-130661833D01*
X105981500Y-130746500D01*
X105981500Y-130873500D01*
X106023833Y-130958166D01*
X106066166Y-131000500D01*
X106150833Y-131042833D01*
X106489500Y-131042833D01*
X105558166Y-131466166D02*
X105388833Y-131466166D01*
X105304166Y-131423833D01*
X105261833Y-131381500D01*
X105177166Y-131254500D01*
X105134833Y-131085166D01*
X105134833Y-130746500D01*
X105177166Y-130661833D01*
X105219500Y-130619500D01*
X105304166Y-130577166D01*
X105473500Y-130577166D01*
X105558166Y-130619500D01*
X105600500Y-130661833D01*
X105642833Y-130746500D01*
X105642833Y-130958166D01*
X105600500Y-131042833D01*
X105558166Y-131085166D01*
X105473500Y-131127500D01*
X105304166Y-131127500D01*
X105219500Y-131085166D01*
X105177166Y-131042833D01*
X105134833Y-130958166D01*
X119993833Y-100097166D02*
X119485833Y-100097166D01*
X119739833Y-100986166D02*
X119739833Y-100097166D01*
X119189500Y-100986166D02*
X119189500Y-100097166D01*
X118850833Y-100097166D01*
X118766166Y-100139500D01*
X118723833Y-100181833D01*
X118681500Y-100266500D01*
X118681500Y-100393500D01*
X118723833Y-100478166D01*
X118766166Y-100520500D01*
X118850833Y-100562833D01*
X119189500Y-100562833D01*
X118173500Y-100478166D02*
X118258166Y-100435833D01*
X118300500Y-100393500D01*
X118342833Y-100308833D01*
X118342833Y-100266500D01*
X118300500Y-100181833D01*
X118258166Y-100139500D01*
X118173500Y-100097166D01*
X118004166Y-100097166D01*
X117919500Y-100139500D01*
X117877166Y-100181833D01*
X117834833Y-100266500D01*
X117834833Y-100308833D01*
X117877166Y-100393500D01*
X117919500Y-100435833D01*
X118004166Y-100478166D01*
X118173500Y-100478166D01*
X118258166Y-100520500D01*
X118300500Y-100562833D01*
X118342833Y-100647500D01*
X118342833Y-100816833D01*
X118300500Y-100901500D01*
X118258166Y-100943833D01*
X118173500Y-100986166D01*
X118004166Y-100986166D01*
X117919500Y-100943833D01*
X117877166Y-100901500D01*
X117834833Y-100816833D01*
X117834833Y-100647500D01*
X117877166Y-100562833D01*
X117919500Y-100520500D01*
X118004166Y-100478166D01*
X105033233Y-134768166D02*
X104525233Y-134768166D01*
X104779233Y-135657166D02*
X104779233Y-134768166D01*
X104228900Y-135657166D02*
X104228900Y-134768166D01*
X103890233Y-134768166D01*
X103805566Y-134810500D01*
X103763233Y-134852833D01*
X103720900Y-134937500D01*
X103720900Y-135064500D01*
X103763233Y-135149166D01*
X103805566Y-135191500D01*
X103890233Y-135233833D01*
X104228900Y-135233833D01*
X103424566Y-134768166D02*
X102831900Y-134768166D01*
X103212900Y-135657166D01*
X106150833Y-129434166D02*
X105642833Y-129434166D01*
X105896833Y-130323166D02*
X105896833Y-129434166D01*
X105346500Y-130323166D02*
X105346500Y-129434166D01*
X105007833Y-129434166D01*
X104923166Y-129476500D01*
X104880833Y-129518833D01*
X104838500Y-129603500D01*
X104838500Y-129730500D01*
X104880833Y-129815166D01*
X104923166Y-129857500D01*
X105007833Y-129899833D01*
X105346500Y-129899833D01*
X104076500Y-129434166D02*
X104245833Y-129434166D01*
X104330500Y-129476500D01*
X104372833Y-129518833D01*
X104457500Y-129645833D01*
X104499833Y-129815166D01*
X104499833Y-130153833D01*
X104457500Y-130238500D01*
X104415166Y-130280833D01*
X104330500Y-130323166D01*
X104161166Y-130323166D01*
X104076500Y-130280833D01*
X104034166Y-130238500D01*
X103991833Y-130153833D01*
X103991833Y-129942166D01*
X104034166Y-129857500D01*
X104076500Y-129815166D01*
X104161166Y-129772833D01*
X104330500Y-129772833D01*
X104415166Y-129815166D01*
X104457500Y-129857500D01*
X104499833Y-129942166D01*
X106150833Y-128037166D02*
X105642833Y-128037166D01*
X105896833Y-128926166D02*
X105896833Y-128037166D01*
X105346500Y-128926166D02*
X105346500Y-128037166D01*
X105007833Y-128037166D01*
X104923166Y-128079500D01*
X104880833Y-128121833D01*
X104838500Y-128206500D01*
X104838500Y-128333500D01*
X104880833Y-128418166D01*
X104923166Y-128460500D01*
X105007833Y-128502833D01*
X105346500Y-128502833D01*
X104034166Y-128037166D02*
X104457500Y-128037166D01*
X104499833Y-128460500D01*
X104457500Y-128418166D01*
X104372833Y-128375833D01*
X104161166Y-128375833D01*
X104076500Y-128418166D01*
X104034166Y-128460500D01*
X103991833Y-128545166D01*
X103991833Y-128756833D01*
X104034166Y-128841500D01*
X104076500Y-128883833D01*
X104161166Y-128926166D01*
X104372833Y-128926166D01*
X104457500Y-128883833D01*
X104499833Y-128841500D01*
X119739833Y-121611166D02*
X119231833Y-121611166D01*
X119485833Y-122500166D02*
X119485833Y-121611166D01*
X118935500Y-122500166D02*
X118935500Y-121611166D01*
X118596833Y-121611166D01*
X118512166Y-121653500D01*
X118469833Y-121695833D01*
X118427500Y-121780500D01*
X118427500Y-121907500D01*
X118469833Y-121992166D01*
X118512166Y-122034500D01*
X118596833Y-122076833D01*
X118935500Y-122076833D01*
X117665500Y-121907500D02*
X117665500Y-122500166D01*
X117877166Y-121568833D02*
X118088833Y-122203833D01*
X117538500Y-122203833D01*
X106150833Y-126513166D02*
X105642833Y-126513166D01*
X105896833Y-127402166D02*
X105896833Y-126513166D01*
X105346500Y-127402166D02*
X105346500Y-126513166D01*
X105007833Y-126513166D01*
X104923166Y-126555500D01*
X104880833Y-126597833D01*
X104838500Y-126682500D01*
X104838500Y-126809500D01*
X104880833Y-126894166D01*
X104923166Y-126936500D01*
X105007833Y-126978833D01*
X105346500Y-126978833D01*
X104542166Y-126513166D02*
X103991833Y-126513166D01*
X104288166Y-126851833D01*
X104161166Y-126851833D01*
X104076500Y-126894166D01*
X104034166Y-126936500D01*
X103991833Y-127021166D01*
X103991833Y-127232833D01*
X104034166Y-127317500D01*
X104076500Y-127359833D01*
X104161166Y-127402166D01*
X104415166Y-127402166D01*
X104499833Y-127359833D01*
X104542166Y-127317500D01*
X111611833Y-111959166D02*
X111103833Y-111959166D01*
X111357833Y-112848166D02*
X111357833Y-111959166D01*
X110807500Y-112848166D02*
X110807500Y-111959166D01*
X110468833Y-111959166D01*
X110384166Y-112001500D01*
X110341833Y-112043833D01*
X110299500Y-112128500D01*
X110299500Y-112255500D01*
X110341833Y-112340166D01*
X110384166Y-112382500D01*
X110468833Y-112424833D01*
X110807500Y-112424833D01*
X109960833Y-112043833D02*
X109918500Y-112001500D01*
X109833833Y-111959166D01*
X109622166Y-111959166D01*
X109537500Y-112001500D01*
X109495166Y-112043833D01*
X109452833Y-112128500D01*
X109452833Y-112213166D01*
X109495166Y-112340166D01*
X110003166Y-112848166D01*
X109452833Y-112848166D01*
X103483833Y-105431166D02*
X102975833Y-105431166D01*
X103229833Y-106320166D02*
X103229833Y-105431166D01*
X102679500Y-106320166D02*
X102679500Y-105431166D01*
X102340833Y-105431166D01*
X102256166Y-105473500D01*
X102213833Y-105515833D01*
X102171500Y-105600500D01*
X102171500Y-105727500D01*
X102213833Y-105812166D01*
X102256166Y-105854500D01*
X102340833Y-105896833D01*
X102679500Y-105896833D01*
X101324833Y-106320166D02*
X101832833Y-106320166D01*
X101578833Y-106320166D02*
X101578833Y-105431166D01*
X101663500Y-105558166D01*
X101748166Y-105642833D01*
X101832833Y-105685166D01*
X118152333Y-107336166D02*
X118152333Y-108055833D01*
X118110000Y-108140500D01*
X118067666Y-108182833D01*
X117983000Y-108225166D01*
X117813666Y-108225166D01*
X117729000Y-108182833D01*
X117686666Y-108140500D01*
X117644333Y-108055833D01*
X117644333Y-107336166D01*
X117094000Y-107717166D02*
X117178666Y-107674833D01*
X117221000Y-107632500D01*
X117263333Y-107547833D01*
X117263333Y-107505500D01*
X117221000Y-107420833D01*
X117178666Y-107378500D01*
X117094000Y-107336166D01*
X116924666Y-107336166D01*
X116840000Y-107378500D01*
X116797666Y-107420833D01*
X116755333Y-107505500D01*
X116755333Y-107547833D01*
X116797666Y-107632500D01*
X116840000Y-107674833D01*
X116924666Y-107717166D01*
X117094000Y-107717166D01*
X117178666Y-107759500D01*
X117221000Y-107801833D01*
X117263333Y-107886500D01*
X117263333Y-108055833D01*
X117221000Y-108140500D01*
X117178666Y-108182833D01*
X117094000Y-108225166D01*
X116924666Y-108225166D01*
X116840000Y-108182833D01*
X116797666Y-108140500D01*
X116755333Y-108055833D01*
X116755333Y-107886500D01*
X116797666Y-107801833D01*
X116840000Y-107759500D01*
X116924666Y-107717166D01*
X131042833Y-107526666D02*
X131339166Y-107103333D01*
X131550833Y-107526666D02*
X131550833Y-106637666D01*
X131212166Y-106637666D01*
X131127500Y-106680000D01*
X131085166Y-106722333D01*
X131042833Y-106807000D01*
X131042833Y-106934000D01*
X131085166Y-107018666D01*
X131127500Y-107061000D01*
X131212166Y-107103333D01*
X131550833Y-107103333D01*
X130661833Y-107526666D02*
X130661833Y-106637666D01*
X130153833Y-107526666D01*
X130153833Y-106637666D01*
X129603500Y-107018666D02*
X129688166Y-106976333D01*
X129730500Y-106934000D01*
X129772833Y-106849333D01*
X129772833Y-106807000D01*
X129730500Y-106722333D01*
X129688166Y-106680000D01*
X129603500Y-106637666D01*
X129434166Y-106637666D01*
X129349500Y-106680000D01*
X129307166Y-106722333D01*
X129264833Y-106807000D01*
X129264833Y-106849333D01*
X129307166Y-106934000D01*
X129349500Y-106976333D01*
X129434166Y-107018666D01*
X129603500Y-107018666D01*
X129688166Y-107061000D01*
X129730500Y-107103333D01*
X129772833Y-107188000D01*
X129772833Y-107357333D01*
X129730500Y-107442000D01*
X129688166Y-107484333D01*
X129603500Y-107526666D01*
X129434166Y-107526666D01*
X129349500Y-107484333D01*
X129307166Y-107442000D01*
X129264833Y-107357333D01*
X129264833Y-107188000D01*
X129307166Y-107103333D01*
X129349500Y-107061000D01*
X129434166Y-107018666D01*
X131466166Y-123338166D02*
X130958166Y-123338166D01*
X131212166Y-124227166D02*
X131212166Y-123338166D01*
X130661833Y-124227166D02*
X130661833Y-123338166D01*
X130323166Y-123338166D01*
X130238500Y-123380500D01*
X130196166Y-123422833D01*
X130153833Y-123507500D01*
X130153833Y-123634500D01*
X130196166Y-123719166D01*
X130238500Y-123761500D01*
X130323166Y-123803833D01*
X130661833Y-123803833D01*
X129307166Y-124227166D02*
X129815166Y-124227166D01*
X129561166Y-124227166D02*
X129561166Y-123338166D01*
X129645833Y-123465166D01*
X129730500Y-123549833D01*
X129815166Y-123592166D01*
X128545166Y-123634500D02*
X128545166Y-124227166D01*
X128756833Y-123295833D02*
X128968500Y-123930833D01*
X128418166Y-123930833D01*
X103653166Y-120671166D02*
X103653166Y-119782166D01*
X103441500Y-119782166D01*
X103314500Y-119824500D01*
X103229833Y-119909166D01*
X103187500Y-119993833D01*
X103145166Y-120163166D01*
X103145166Y-120290166D01*
X103187500Y-120459500D01*
X103229833Y-120544166D01*
X103314500Y-120628833D01*
X103441500Y-120671166D01*
X103653166Y-120671166D01*
X102383166Y-120078500D02*
X102383166Y-120671166D01*
X102594833Y-119739833D02*
X102806500Y-120374833D01*
X102256166Y-120374833D01*
X103653166Y-115591166D02*
X103653166Y-114702166D01*
X103441500Y-114702166D01*
X103314500Y-114744500D01*
X103229833Y-114829166D01*
X103187500Y-114913833D01*
X103145166Y-115083166D01*
X103145166Y-115210166D01*
X103187500Y-115379500D01*
X103229833Y-115464166D01*
X103314500Y-115548833D01*
X103441500Y-115591166D01*
X103653166Y-115591166D01*
X102848833Y-114702166D02*
X102298500Y-114702166D01*
X102594833Y-115040833D01*
X102467833Y-115040833D01*
X102383166Y-115083166D01*
X102340833Y-115125500D01*
X102298500Y-115210166D01*
X102298500Y-115421833D01*
X102340833Y-115506500D01*
X102383166Y-115548833D01*
X102467833Y-115591166D01*
X102721833Y-115591166D01*
X102806500Y-115548833D01*
X102848833Y-115506500D01*
X140504333Y-111400166D02*
X140504333Y-112119833D01*
X140462000Y-112204500D01*
X140419666Y-112246833D01*
X140335000Y-112289166D01*
X140165666Y-112289166D01*
X140081000Y-112246833D01*
X140038666Y-112204500D01*
X139996333Y-112119833D01*
X139996333Y-111400166D01*
X139657666Y-111400166D02*
X139065000Y-111400166D01*
X139446000Y-112289166D01*
X126470833Y-107526666D02*
X126767166Y-107103333D01*
X126978833Y-107526666D02*
X126978833Y-106637666D01*
X126640166Y-106637666D01*
X126555500Y-106680000D01*
X126513166Y-106722333D01*
X126470833Y-106807000D01*
X126470833Y-106934000D01*
X126513166Y-107018666D01*
X126555500Y-107061000D01*
X126640166Y-107103333D01*
X126978833Y-107103333D01*
X126089833Y-107526666D02*
X126089833Y-106637666D01*
X125581833Y-107526666D01*
X125581833Y-106637666D01*
X125243166Y-106637666D02*
X124650500Y-106637666D01*
X125031500Y-107526666D01*
X149627166Y-122322166D02*
X149203833Y-122025833D01*
X149627166Y-121814166D02*
X148738166Y-121814166D01*
X148738166Y-122152833D01*
X148780500Y-122237500D01*
X148822833Y-122279833D01*
X148907500Y-122322166D01*
X149034500Y-122322166D01*
X149119166Y-122279833D01*
X149161500Y-122237500D01*
X149203833Y-122152833D01*
X149203833Y-121814166D01*
X149627166Y-122703166D02*
X148738166Y-122703166D01*
X149627166Y-123211166D01*
X148738166Y-123211166D01*
X148738166Y-124015500D02*
X148738166Y-123846166D01*
X148780500Y-123761500D01*
X148822833Y-123719166D01*
X148949833Y-123634500D01*
X149119166Y-123592166D01*
X149457833Y-123592166D01*
X149542500Y-123634500D01*
X149584833Y-123676833D01*
X149627166Y-123761500D01*
X149627166Y-123930833D01*
X149584833Y-124015500D01*
X149542500Y-124057833D01*
X149457833Y-124100166D01*
X149246166Y-124100166D01*
X149161500Y-124057833D01*
X149119166Y-124015500D01*
X149076833Y-123930833D01*
X149076833Y-123761500D01*
X149119166Y-123676833D01*
X149161500Y-123634500D01*
X149246166Y-123592166D01*
X149627166Y-114448166D02*
X149203833Y-114151833D01*
X149627166Y-113940166D02*
X148738166Y-113940166D01*
X148738166Y-114278833D01*
X148780500Y-114363500D01*
X148822833Y-114405833D01*
X148907500Y-114448166D01*
X149034500Y-114448166D01*
X149119166Y-114405833D01*
X149161500Y-114363500D01*
X149203833Y-114278833D01*
X149203833Y-113940166D01*
X149627166Y-114829166D02*
X148738166Y-114829166D01*
X149627166Y-115337166D01*
X148738166Y-115337166D01*
X148738166Y-116183833D02*
X148738166Y-115760500D01*
X149161500Y-115718166D01*
X149119166Y-115760500D01*
X149076833Y-115845166D01*
X149076833Y-116056833D01*
X149119166Y-116141500D01*
X149161500Y-116183833D01*
X149246166Y-116226166D01*
X149457833Y-116226166D01*
X149542500Y-116183833D01*
X149584833Y-116141500D01*
X149627166Y-116056833D01*
X149627166Y-115845166D01*
X149584833Y-115760500D01*
X149542500Y-115718166D01*
X142769166Y-123973166D02*
X142345833Y-123676833D01*
X142769166Y-123465166D02*
X141880166Y-123465166D01*
X141880166Y-123803833D01*
X141922500Y-123888500D01*
X141964833Y-123930833D01*
X142049500Y-123973166D01*
X142176500Y-123973166D01*
X142261166Y-123930833D01*
X142303500Y-123888500D01*
X142345833Y-123803833D01*
X142345833Y-123465166D01*
X142769166Y-124354166D02*
X141880166Y-124354166D01*
X142769166Y-124862166D01*
X141880166Y-124862166D01*
X141964833Y-125243166D02*
X141922500Y-125285500D01*
X141880166Y-125370166D01*
X141880166Y-125581833D01*
X141922500Y-125666500D01*
X141964833Y-125708833D01*
X142049500Y-125751166D01*
X142134166Y-125751166D01*
X142261166Y-125708833D01*
X142769166Y-125200833D01*
X142769166Y-125751166D01*
X142769166Y-112543166D02*
X142345833Y-112246833D01*
X142769166Y-112035166D02*
X141880166Y-112035166D01*
X141880166Y-112373833D01*
X141922500Y-112458500D01*
X141964833Y-112500833D01*
X142049500Y-112543166D01*
X142176500Y-112543166D01*
X142261166Y-112500833D01*
X142303500Y-112458500D01*
X142345833Y-112373833D01*
X142345833Y-112035166D01*
X142769166Y-112924166D02*
X141880166Y-112924166D01*
X142769166Y-113432166D01*
X141880166Y-113432166D01*
X142769166Y-114321166D02*
X142769166Y-113813166D01*
X142769166Y-114067166D02*
X141880166Y-114067166D01*
X142007166Y-113982500D01*
X142091833Y-113897833D01*
X142134166Y-113813166D01*
M02*
