%TF.GenerationSoftware,KiCad,Pcbnew,(5.1.5)-3*%
%TF.CreationDate,2020-04-26T22:01:22+08:00*%
%TF.ProjectId,vllink_highspeed.r1,766c6c69-6e6b-45f6-9869-676873706565,rev?*%
%TF.SameCoordinates,Original*%
%TF.FileFunction,Legend,Top*%
%TF.FilePolarity,Positive*%
%FSLAX46Y46*%
G04 Gerber Fmt 4.6, Leading zero omitted, Abs format (unit mm)*
G04 Created by KiCad (PCBNEW (5.1.5)-3) date 2020-04-26 22:01:22*
%MOMM*%
%LPD*%
G04 APERTURE LIST*
%ADD10C,0.203200*%
%ADD11C,0.120000*%
%ADD12C,0.304800*%
%ADD13C,0.150000*%
%ADD14C,0.152400*%
G04 APERTURE END LIST*
D10*
X116103400Y-120192800D02*
X116103400Y-120954800D01*
X116052600Y-121107200D01*
X115951000Y-121208800D01*
X115798600Y-121259600D01*
X115697000Y-121259600D01*
X117119400Y-121259600D02*
X116611400Y-121259600D01*
X116611400Y-120192800D01*
X118084600Y-121158000D02*
X118033800Y-121208800D01*
X117881400Y-121259600D01*
X117779800Y-121259600D01*
X117627400Y-121208800D01*
X117525800Y-121107200D01*
X117475000Y-121005600D01*
X117424200Y-120802400D01*
X117424200Y-120650000D01*
X117475000Y-120446800D01*
X117525800Y-120345200D01*
X117627400Y-120243600D01*
X117779800Y-120192800D01*
X117881400Y-120192800D01*
X118033800Y-120243600D01*
X118084600Y-120294400D01*
X118846600Y-120192800D02*
X118846600Y-120954800D01*
X118795800Y-121107200D01*
X118694200Y-121208800D01*
X118541800Y-121259600D01*
X118440200Y-121259600D01*
X119862600Y-121259600D02*
X119354600Y-121259600D01*
X119354600Y-120192800D01*
X120827800Y-121158000D02*
X120777000Y-121208800D01*
X120624600Y-121259600D01*
X120523000Y-121259600D01*
X120370600Y-121208800D01*
X120269000Y-121107200D01*
X120218200Y-121005600D01*
X120167400Y-120802400D01*
X120167400Y-120650000D01*
X120218200Y-120446800D01*
X120269000Y-120345200D01*
X120370600Y-120243600D01*
X120523000Y-120192800D01*
X120624600Y-120192800D01*
X120777000Y-120243600D01*
X120827800Y-120294400D01*
X121589800Y-120192800D02*
X121589800Y-120954800D01*
X121539000Y-121107200D01*
X121437400Y-121208800D01*
X121285000Y-121259600D01*
X121183400Y-121259600D01*
X122605800Y-121259600D02*
X122097800Y-121259600D01*
X122097800Y-120192800D01*
X123571000Y-121158000D02*
X123520200Y-121208800D01*
X123367800Y-121259600D01*
X123266200Y-121259600D01*
X123113800Y-121208800D01*
X123012200Y-121107200D01*
X122961400Y-121005600D01*
X122910600Y-120802400D01*
X122910600Y-120650000D01*
X122961400Y-120446800D01*
X123012200Y-120345200D01*
X123113800Y-120243600D01*
X123266200Y-120192800D01*
X123367800Y-120192800D01*
X123520200Y-120243600D01*
X123571000Y-120294400D01*
X124333000Y-120192800D02*
X124333000Y-120954800D01*
X124282200Y-121107200D01*
X124180600Y-121208800D01*
X124028200Y-121259600D01*
X123926600Y-121259600D01*
X125349000Y-121259600D02*
X124841000Y-121259600D01*
X124841000Y-120192800D01*
X126314200Y-121158000D02*
X126263400Y-121208800D01*
X126111000Y-121259600D01*
X126009400Y-121259600D01*
X125857000Y-121208800D01*
X125755400Y-121107200D01*
X125704600Y-121005600D01*
X125653800Y-120802400D01*
X125653800Y-120650000D01*
X125704600Y-120446800D01*
X125755400Y-120345200D01*
X125857000Y-120243600D01*
X126009400Y-120192800D01*
X126111000Y-120192800D01*
X126263400Y-120243600D01*
X126314200Y-120294400D01*
D11*
X140894000Y-104445000D02*
X138608000Y-104445000D01*
X140894000Y-101270000D02*
X140894000Y-104445000D01*
X140894000Y-100000000D02*
X140894000Y-101270000D01*
X140640000Y-100000000D02*
X140894000Y-100000000D01*
X138608000Y-100000000D02*
X140640000Y-100000000D01*
X138608000Y-104445000D02*
X138608000Y-100000000D01*
X143459400Y-113885800D02*
X143459400Y-111472800D01*
X143332400Y-113885800D02*
X143459400Y-113885800D01*
X140157400Y-113885800D02*
X143332400Y-113885800D01*
D12*
X138992628Y-104024327D02*
X140516628Y-103600994D01*
X138992628Y-103177660D01*
X140516628Y-102210041D02*
X138992628Y-102210041D01*
X140444057Y-102210041D02*
X140516628Y-102330994D01*
X140516628Y-102572899D01*
X140444057Y-102693851D01*
X140371485Y-102754327D01*
X140226342Y-102814803D01*
X139790914Y-102814803D01*
X139645771Y-102754327D01*
X139573200Y-102693851D01*
X139500628Y-102572899D01*
X139500628Y-102330994D01*
X139573200Y-102210041D01*
X140516628Y-101605280D02*
X139500628Y-101605280D01*
X139790914Y-101605280D02*
X139645771Y-101544803D01*
X139573200Y-101484327D01*
X139500628Y-101363375D01*
X139500628Y-101242422D01*
X139500628Y-100940041D02*
X140516628Y-100637660D01*
X139500628Y-100335280D01*
X142962285Y-103117184D02*
X143034857Y-103177660D01*
X143107428Y-103359089D01*
X143107428Y-103480041D01*
X143034857Y-103661470D01*
X142889714Y-103782422D01*
X142744571Y-103842899D01*
X142454285Y-103903375D01*
X142236571Y-103903375D01*
X141946285Y-103842899D01*
X141801142Y-103782422D01*
X141656000Y-103661470D01*
X141583428Y-103480041D01*
X141583428Y-103359089D01*
X141656000Y-103177660D01*
X141728571Y-103117184D01*
X143107428Y-102572899D02*
X141583428Y-102572899D01*
X142309142Y-102572899D02*
X142309142Y-101847184D01*
X143107428Y-101847184D02*
X141583428Y-101847184D01*
X141583428Y-101000518D02*
X141583428Y-100879565D01*
X141656000Y-100758613D01*
X141728571Y-100698137D01*
X141873714Y-100637660D01*
X142164000Y-100577184D01*
X142526857Y-100577184D01*
X142817142Y-100637660D01*
X142962285Y-100698137D01*
X143034857Y-100758613D01*
X143107428Y-100879565D01*
X143107428Y-101000518D01*
X143034857Y-101121470D01*
X142962285Y-101181946D01*
X142817142Y-101242422D01*
X142526857Y-101302899D01*
X142164000Y-101302899D01*
X141873714Y-101242422D01*
X141728571Y-101181946D01*
X141656000Y-101121470D01*
X141583428Y-101000518D01*
X145553085Y-103117184D02*
X145625657Y-103177660D01*
X145698228Y-103359089D01*
X145698228Y-103480041D01*
X145625657Y-103661470D01*
X145480514Y-103782422D01*
X145335371Y-103842899D01*
X145045085Y-103903375D01*
X144827371Y-103903375D01*
X144537085Y-103842899D01*
X144391942Y-103782422D01*
X144246800Y-103661470D01*
X144174228Y-103480041D01*
X144174228Y-103359089D01*
X144246800Y-103177660D01*
X144319371Y-103117184D01*
X145698228Y-102572899D02*
X144174228Y-102572899D01*
X144899942Y-102572899D02*
X144899942Y-101847184D01*
X145698228Y-101847184D02*
X144174228Y-101847184D01*
X144319371Y-101302899D02*
X144246800Y-101242422D01*
X144174228Y-101121470D01*
X144174228Y-100819089D01*
X144246800Y-100698137D01*
X144319371Y-100637660D01*
X144464514Y-100577184D01*
X144609657Y-100577184D01*
X144827371Y-100637660D01*
X145698228Y-101363375D01*
X145698228Y-100577184D01*
X146837600Y-103177660D02*
X146765028Y-103298613D01*
X146765028Y-103480041D01*
X146837600Y-103661470D01*
X146982742Y-103782422D01*
X147127885Y-103842899D01*
X147418171Y-103903375D01*
X147635885Y-103903375D01*
X147926171Y-103842899D01*
X148071314Y-103782422D01*
X148216457Y-103661470D01*
X148289028Y-103480041D01*
X148289028Y-103359089D01*
X148216457Y-103177660D01*
X148143885Y-103117184D01*
X147635885Y-103117184D01*
X147635885Y-103359089D01*
X148289028Y-102572899D02*
X146765028Y-102572899D01*
X148289028Y-101847184D01*
X146765028Y-101847184D01*
X148289028Y-101242422D02*
X146765028Y-101242422D01*
X146765028Y-100940041D01*
X146837600Y-100758613D01*
X146982742Y-100637660D01*
X147127885Y-100577184D01*
X147418171Y-100516708D01*
X147635885Y-100516708D01*
X147926171Y-100577184D01*
X148071314Y-100637660D01*
X148216457Y-100758613D01*
X148289028Y-100940041D01*
X148289028Y-101242422D01*
X149355828Y-104024327D02*
X149355828Y-103298613D01*
X150879828Y-103661470D02*
X149355828Y-103661470D01*
X149355828Y-102996232D02*
X150879828Y-102149565D01*
X149355828Y-102149565D02*
X150879828Y-102996232D01*
X149500971Y-101726232D02*
X149428400Y-101665756D01*
X149355828Y-101544803D01*
X149355828Y-101242422D01*
X149428400Y-101121470D01*
X149500971Y-101060994D01*
X149646114Y-101000518D01*
X149791257Y-101000518D01*
X150008971Y-101060994D01*
X150879828Y-101786708D01*
X150879828Y-101000518D01*
D11*
X140157400Y-111472800D02*
X140157400Y-113885800D01*
X143459400Y-111472800D02*
X140157400Y-111472800D01*
D12*
X140539851Y-111903528D02*
X141265565Y-111903528D01*
X140902708Y-113427528D02*
X140902708Y-111903528D01*
X141688899Y-113427528D02*
X141688899Y-111903528D01*
X141991280Y-111903528D01*
X142172708Y-111976100D01*
X142293660Y-112121242D01*
X142354137Y-112266385D01*
X142414613Y-112556671D01*
X142414613Y-112774385D01*
X142354137Y-113064671D01*
X142293660Y-113209814D01*
X142172708Y-113354957D01*
X141991280Y-113427528D01*
X141688899Y-113427528D01*
X142958899Y-113427528D02*
X142958899Y-111903528D01*
X139753660Y-114494328D02*
X140479375Y-114494328D01*
X140116518Y-116018328D02*
X140116518Y-114494328D01*
X140902708Y-116018328D02*
X140902708Y-114494328D01*
X141326041Y-115582900D01*
X141749375Y-114494328D01*
X141749375Y-116018328D01*
X142293660Y-115945757D02*
X142475089Y-116018328D01*
X142777470Y-116018328D01*
X142898422Y-115945757D01*
X142958899Y-115873185D01*
X143019375Y-115728042D01*
X143019375Y-115582900D01*
X142958899Y-115437757D01*
X142898422Y-115365185D01*
X142777470Y-115292614D01*
X142535565Y-115220042D01*
X142414613Y-115147471D01*
X142354137Y-115074900D01*
X142293660Y-114929757D01*
X142293660Y-114784614D01*
X142354137Y-114639471D01*
X142414613Y-114566900D01*
X142535565Y-114494328D01*
X142837946Y-114494328D01*
X143019375Y-114566900D01*
X139874613Y-117085128D02*
X140600327Y-117085128D01*
X140237470Y-118609128D02*
X140237470Y-117085128D01*
X141749375Y-118463985D02*
X141688899Y-118536557D01*
X141507470Y-118609128D01*
X141386518Y-118609128D01*
X141205089Y-118536557D01*
X141084137Y-118391414D01*
X141023660Y-118246271D01*
X140963184Y-117955985D01*
X140963184Y-117738271D01*
X141023660Y-117447985D01*
X141084137Y-117302842D01*
X141205089Y-117157700D01*
X141386518Y-117085128D01*
X141507470Y-117085128D01*
X141688899Y-117157700D01*
X141749375Y-117230271D01*
X142293660Y-118609128D02*
X142293660Y-117085128D01*
X143019375Y-118609128D02*
X142475089Y-117738271D01*
X143019375Y-117085128D02*
X142293660Y-117955985D01*
X138846518Y-121127357D02*
X139027946Y-121199928D01*
X139330327Y-121199928D01*
X139451280Y-121127357D01*
X139511756Y-121054785D01*
X139572232Y-120909642D01*
X139572232Y-120764500D01*
X139511756Y-120619357D01*
X139451280Y-120546785D01*
X139330327Y-120474214D01*
X139088422Y-120401642D01*
X138967470Y-120329071D01*
X138906994Y-120256500D01*
X138846518Y-120111357D01*
X138846518Y-119966214D01*
X138906994Y-119821071D01*
X138967470Y-119748500D01*
X139088422Y-119675928D01*
X139390803Y-119675928D01*
X139572232Y-119748500D01*
X140842232Y-121199928D02*
X140418899Y-120474214D01*
X140116518Y-121199928D02*
X140116518Y-119675928D01*
X140600327Y-119675928D01*
X140721280Y-119748500D01*
X140781756Y-119821071D01*
X140842232Y-119966214D01*
X140842232Y-120183928D01*
X140781756Y-120329071D01*
X140721280Y-120401642D01*
X140600327Y-120474214D01*
X140116518Y-120474214D01*
X141326041Y-121127357D02*
X141507470Y-121199928D01*
X141809851Y-121199928D01*
X141930803Y-121127357D01*
X141991280Y-121054785D01*
X142051756Y-120909642D01*
X142051756Y-120764500D01*
X141991280Y-120619357D01*
X141930803Y-120546785D01*
X141809851Y-120474214D01*
X141567946Y-120401642D01*
X141446994Y-120329071D01*
X141386518Y-120256500D01*
X141326041Y-120111357D01*
X141326041Y-119966214D01*
X141386518Y-119821071D01*
X141446994Y-119748500D01*
X141567946Y-119675928D01*
X141870327Y-119675928D01*
X142051756Y-119748500D01*
X142414613Y-119675928D02*
X143140327Y-119675928D01*
X142777470Y-121199928D02*
X142777470Y-119675928D01*
X139814137Y-122266728D02*
X140539851Y-122266728D01*
X140176994Y-123790728D02*
X140176994Y-122266728D01*
X140963184Y-123790728D02*
X140963184Y-122266728D01*
X141265565Y-122266728D01*
X141446994Y-122339300D01*
X141567946Y-122484442D01*
X141628422Y-122629585D01*
X141688899Y-122919871D01*
X141688899Y-123137585D01*
X141628422Y-123427871D01*
X141567946Y-123573014D01*
X141446994Y-123718157D01*
X141265565Y-123790728D01*
X140963184Y-123790728D01*
X142475089Y-122266728D02*
X142716994Y-122266728D01*
X142837946Y-122339300D01*
X142958899Y-122484442D01*
X143019375Y-122774728D01*
X143019375Y-123282728D01*
X142958899Y-123573014D01*
X142837946Y-123718157D01*
X142716994Y-123790728D01*
X142475089Y-123790728D01*
X142354137Y-123718157D01*
X142233184Y-123573014D01*
X142172708Y-123282728D01*
X142172708Y-122774728D01*
X142233184Y-122484442D01*
X142354137Y-122339300D01*
X142475089Y-122266728D01*
D11*
X144835000Y-124520000D02*
X144835000Y-124550000D01*
X144835000Y-130980000D02*
X144835000Y-130950000D01*
X138375000Y-130980000D02*
X138375000Y-130950000D01*
X138375000Y-124550000D02*
X138375000Y-124520000D01*
X144835000Y-126450000D02*
X144835000Y-129050000D01*
X138375000Y-124520000D02*
X144835000Y-124520000D01*
X138375000Y-126450000D02*
X138375000Y-129050000D01*
X138375000Y-130980000D02*
X144835000Y-130980000D01*
X128799100Y-126592400D02*
X127446600Y-126592400D01*
X128799100Y-126309900D02*
X128799100Y-126592400D01*
X131546600Y-126309900D02*
X128799100Y-126309900D01*
X134294100Y-126309900D02*
X134294100Y-126592400D01*
X131546600Y-126309900D02*
X134294100Y-126309900D01*
X128799100Y-131804900D02*
X128799100Y-131522400D01*
X131546600Y-131804900D02*
X128799100Y-131804900D01*
X134294100Y-131804900D02*
X134294100Y-131522400D01*
X131546600Y-131804900D02*
X134294100Y-131804900D01*
X107128000Y-99508000D02*
X108458000Y-99508000D01*
X107128000Y-100838000D02*
X107128000Y-99508000D01*
X107128000Y-102108000D02*
X109788000Y-102108000D01*
X109788000Y-102108000D02*
X109788000Y-102168000D01*
X107128000Y-102108000D02*
X107128000Y-102168000D01*
X107128000Y-102168000D02*
X109788000Y-102168000D01*
D13*
X138730000Y-133223000D02*
G75*
G03X138730000Y-133223000I-2400000J0D01*
G01*
X138730000Y-109423000D02*
G75*
G03X138730000Y-109423000I-2400000J0D01*
G01*
X115430000Y-109423000D02*
G75*
G03X115430000Y-109423000I-2400000J0D01*
G01*
X115430000Y-133223000D02*
G75*
G03X115430000Y-133223000I-2400000J0D01*
G01*
D11*
X108901173Y-124948785D02*
G75*
G03X108437170Y-130296600I1080827J-2787815D01*
G01*
X111062827Y-124948785D02*
G75*
G02X111526830Y-130296600I-1080827J-2787815D01*
G01*
X108901571Y-125482121D02*
G75*
G03X108902000Y-129991284I1080429J-2254479D01*
G01*
X111062429Y-125482121D02*
G75*
G02X111062000Y-129991284I-1080429J-2254479D01*
G01*
X108437000Y-130296600D02*
X108902000Y-130296600D01*
X111062000Y-130296600D02*
X111527000Y-130296600D01*
X110042000Y-135442000D02*
X110042000Y-132782000D01*
X107442000Y-135442000D02*
X110042000Y-135442000D01*
X107442000Y-132782000D02*
X110042000Y-132782000D01*
X107442000Y-135442000D02*
X107442000Y-132782000D01*
X106172000Y-135442000D02*
X104842000Y-135442000D01*
X104842000Y-135442000D02*
X104842000Y-134112000D01*
X100270000Y-135442000D02*
X102930000Y-135442000D01*
X100270000Y-127762000D02*
X100270000Y-135442000D01*
X102930000Y-127762000D02*
X102930000Y-135442000D01*
X100270000Y-127762000D02*
X102930000Y-127762000D01*
X100270000Y-126492000D02*
X100270000Y-125162000D01*
X100270000Y-125162000D02*
X101600000Y-125162000D01*
X115800000Y-103974000D02*
X115800000Y-102274000D01*
X115800000Y-102274000D02*
X113250000Y-102274000D01*
X115800000Y-103974000D02*
X113250000Y-103974000D01*
X112800000Y-100242000D02*
X112800000Y-101942000D01*
X112800000Y-101942000D02*
X115350000Y-101942000D01*
X112800000Y-100242000D02*
X115350000Y-100242000D01*
X121650000Y-112270000D02*
X122920000Y-112270000D01*
X121650000Y-111000000D02*
X121650000Y-112270000D01*
X117570000Y-97520000D02*
X138430000Y-97520000D01*
X117570000Y-106870000D02*
X117570000Y-97520000D01*
X138430000Y-106870000D02*
X138430000Y-97520000D01*
X138430000Y-106870000D02*
X117570000Y-106870000D01*
X125750000Y-106870000D02*
X125750000Y-97520000D01*
X130250000Y-106870000D02*
X130250000Y-97520000D01*
X143440000Y-111400000D02*
X143440000Y-112670000D01*
X144710000Y-111400000D02*
X143440000Y-111400000D01*
X158190000Y-107320000D02*
X158190000Y-128180000D01*
X148840000Y-107320000D02*
X158190000Y-107320000D01*
X148840000Y-128180000D02*
X158190000Y-128180000D01*
X148840000Y-128180000D02*
X148840000Y-107320000D01*
X148840000Y-115500000D02*
X158190000Y-115500000D01*
X148840000Y-120000000D02*
X158190000Y-120000000D01*
X98519800Y-122219900D02*
X98519800Y-113279900D01*
X104029800Y-122219900D02*
X102229800Y-122219900D01*
X98519800Y-122219900D02*
X99979800Y-122219900D01*
X98519800Y-113279900D02*
X99979800Y-113279900D01*
X104029800Y-113279900D02*
X102229800Y-113279900D01*
X136336000Y-117712000D02*
X134436000Y-117712000D01*
X134936000Y-120032000D02*
X136336000Y-120032000D01*
X111855000Y-124586000D02*
X111855000Y-121286000D01*
X111855000Y-121286000D02*
X107855000Y-121286000D01*
X114972000Y-126217000D02*
X114972000Y-127192000D01*
X114972000Y-127192000D02*
X115947000Y-127192000D01*
X114972000Y-115947000D02*
X114972000Y-114972000D01*
X114972000Y-114972000D02*
X115947000Y-114972000D01*
X127192000Y-126217000D02*
X127192000Y-127192000D01*
X127192000Y-127192000D02*
X126217000Y-127192000D01*
X127192000Y-115947000D02*
X127192000Y-114972000D01*
X127192000Y-114972000D02*
X126217000Y-114972000D01*
X126217000Y-114972000D02*
X126217000Y-113657000D01*
X102510000Y-107855936D02*
X102510000Y-109060064D01*
X100690000Y-107855936D02*
X100690000Y-109060064D01*
X104624000Y-125310000D02*
X104624000Y-123610000D01*
X104624000Y-123610000D02*
X102074000Y-123610000D01*
X104624000Y-125310000D02*
X102074000Y-125310000D01*
X135288000Y-123631000D02*
X136090470Y-123631000D01*
X136705530Y-123631000D02*
X137508000Y-123631000D01*
X135288000Y-122426000D02*
X135288000Y-123631000D01*
X137508000Y-122426000D02*
X137508000Y-123631000D01*
X135288000Y-122426000D02*
X135834529Y-122426000D01*
X136961471Y-122426000D02*
X137508000Y-122426000D01*
X135288000Y-121666000D02*
X135288000Y-120906000D01*
X135288000Y-120906000D02*
X136398000Y-120906000D01*
X118745000Y-110798000D02*
X118745000Y-111198000D01*
X115545000Y-110798000D02*
X115545000Y-111198000D01*
X109717000Y-104988000D02*
X111517000Y-104988000D01*
X111517000Y-101768000D02*
X109067000Y-101768000D01*
X105802000Y-106467000D02*
X104002000Y-106467000D01*
X104002000Y-109687000D02*
X106452000Y-109687000D01*
X137290000Y-114304000D02*
X137290000Y-114804000D01*
X139570000Y-114304000D02*
X139570000Y-114804000D01*
X134496000Y-114304000D02*
X134496000Y-114804000D01*
X136776000Y-114304000D02*
X136776000Y-114804000D01*
X107366000Y-107515000D02*
X107366000Y-107115000D01*
X110566000Y-107515000D02*
X110566000Y-107115000D01*
D14*
X140571000Y-128070428D02*
X140679857Y-128106714D01*
X140861285Y-128106714D01*
X140933857Y-128070428D01*
X140970142Y-128034142D01*
X141006428Y-127961571D01*
X141006428Y-127889000D01*
X140970142Y-127816428D01*
X140933857Y-127780142D01*
X140861285Y-127743857D01*
X140716142Y-127707571D01*
X140643571Y-127671285D01*
X140607285Y-127635000D01*
X140571000Y-127562428D01*
X140571000Y-127489857D01*
X140607285Y-127417285D01*
X140643571Y-127381000D01*
X140716142Y-127344714D01*
X140897571Y-127344714D01*
X141006428Y-127381000D01*
X141260428Y-127344714D02*
X141441857Y-128106714D01*
X141587000Y-127562428D01*
X141732142Y-128106714D01*
X141913571Y-127344714D01*
X142603000Y-128106714D02*
X142167571Y-128106714D01*
X142385285Y-128106714D02*
X142385285Y-127344714D01*
X142312714Y-127453571D01*
X142240142Y-127526142D01*
X142167571Y-127562428D01*
D13*
X130784695Y-124919780D02*
X130784695Y-125729304D01*
X130832314Y-125824542D01*
X130879933Y-125872161D01*
X130975171Y-125919780D01*
X131165647Y-125919780D01*
X131260885Y-125872161D01*
X131308504Y-125824542D01*
X131356123Y-125729304D01*
X131356123Y-124919780D01*
X132260885Y-125253114D02*
X132260885Y-125919780D01*
X132022790Y-124872161D02*
X131784695Y-125586447D01*
X132403742Y-125586447D01*
D14*
X123244428Y-131662714D02*
X123389571Y-131662714D01*
X123462142Y-131699000D01*
X123534714Y-131771571D01*
X123571000Y-131916714D01*
X123571000Y-132170714D01*
X123534714Y-132315857D01*
X123462142Y-132388428D01*
X123389571Y-132424714D01*
X123244428Y-132424714D01*
X123171857Y-132388428D01*
X123099285Y-132315857D01*
X123063000Y-132170714D01*
X123063000Y-131916714D01*
X123099285Y-131771571D01*
X123171857Y-131699000D01*
X123244428Y-131662714D01*
X124260428Y-132424714D02*
X123897571Y-132424714D01*
X123897571Y-131662714D01*
X124514428Y-132025571D02*
X124768428Y-132025571D01*
X124877285Y-132424714D02*
X124514428Y-132424714D01*
X124514428Y-131662714D01*
X124877285Y-131662714D01*
X125203857Y-132424714D02*
X125203857Y-131662714D01*
X125385285Y-131662714D01*
X125494142Y-131699000D01*
X125566714Y-131771571D01*
X125603000Y-131844142D01*
X125639285Y-131989285D01*
X125639285Y-132098142D01*
X125603000Y-132243285D01*
X125566714Y-132315857D01*
X125494142Y-132388428D01*
X125385285Y-132424714D01*
X125203857Y-132424714D01*
X126365000Y-132424714D02*
X125929571Y-132424714D01*
X126147285Y-132424714D02*
X126147285Y-131662714D01*
X126074714Y-131771571D01*
X126002142Y-131844142D01*
X125929571Y-131880428D01*
X106366714Y-128299028D02*
X105604714Y-128299028D01*
X105604714Y-128117600D01*
X105641000Y-128008742D01*
X105713571Y-127936171D01*
X105786142Y-127899885D01*
X105931285Y-127863600D01*
X106040142Y-127863600D01*
X106185285Y-127899885D01*
X106257857Y-127936171D01*
X106330428Y-128008742D01*
X106366714Y-128117600D01*
X106366714Y-128299028D01*
X105604714Y-127210457D02*
X105604714Y-127355600D01*
X105641000Y-127428171D01*
X105677285Y-127464457D01*
X105786142Y-127537028D01*
X105931285Y-127573314D01*
X106221571Y-127573314D01*
X106294142Y-127537028D01*
X106330428Y-127500742D01*
X106366714Y-127428171D01*
X106366714Y-127283028D01*
X106330428Y-127210457D01*
X106294142Y-127174171D01*
X106221571Y-127137885D01*
X106040142Y-127137885D01*
X105967571Y-127174171D01*
X105931285Y-127210457D01*
X105895000Y-127283028D01*
X105895000Y-127428171D01*
X105931285Y-127500742D01*
X105967571Y-127537028D01*
X106040142Y-127573314D01*
X105664000Y-131281714D02*
X105664000Y-131826000D01*
X105627714Y-131934857D01*
X105555142Y-132007428D01*
X105446285Y-132043714D01*
X105373714Y-132043714D01*
X106353428Y-131281714D02*
X106208285Y-131281714D01*
X106135714Y-131318000D01*
X106099428Y-131354285D01*
X106026857Y-131463142D01*
X105990571Y-131608285D01*
X105990571Y-131898571D01*
X106026857Y-131971142D01*
X106063142Y-132007428D01*
X106135714Y-132043714D01*
X106280857Y-132043714D01*
X106353428Y-132007428D01*
X106389714Y-131971142D01*
X106426000Y-131898571D01*
X106426000Y-131717142D01*
X106389714Y-131644571D01*
X106353428Y-131608285D01*
X106280857Y-131572000D01*
X106135714Y-131572000D01*
X106063142Y-131608285D01*
X106026857Y-131644571D01*
X105990571Y-131717142D01*
X103722714Y-127127000D02*
X104267000Y-127127000D01*
X104375857Y-127163285D01*
X104448428Y-127235857D01*
X104484714Y-127344714D01*
X104484714Y-127417285D01*
X103722714Y-126401285D02*
X103722714Y-126764142D01*
X104085571Y-126800428D01*
X104049285Y-126764142D01*
X104013000Y-126691571D01*
X104013000Y-126510142D01*
X104049285Y-126437571D01*
X104085571Y-126401285D01*
X104158142Y-126365000D01*
X104339571Y-126365000D01*
X104412142Y-126401285D01*
X104448428Y-126437571D01*
X104484714Y-126510142D01*
X104484714Y-126691571D01*
X104448428Y-126764142D01*
X104412142Y-126800428D01*
X116150571Y-103468714D02*
X116150571Y-102706714D01*
X116332000Y-102706714D01*
X116440857Y-102743000D01*
X116513428Y-102815571D01*
X116549714Y-102888142D01*
X116586000Y-103033285D01*
X116586000Y-103142142D01*
X116549714Y-103287285D01*
X116513428Y-103359857D01*
X116440857Y-103432428D01*
X116332000Y-103468714D01*
X116150571Y-103468714D01*
X117275428Y-102706714D02*
X116912571Y-102706714D01*
X116876285Y-103069571D01*
X116912571Y-103033285D01*
X116985142Y-102997000D01*
X117166571Y-102997000D01*
X117239142Y-103033285D01*
X117275428Y-103069571D01*
X117311714Y-103142142D01*
X117311714Y-103323571D01*
X117275428Y-103396142D01*
X117239142Y-103432428D01*
X117166571Y-103468714D01*
X116985142Y-103468714D01*
X116912571Y-103432428D01*
X116876285Y-103396142D01*
X116150571Y-101563714D02*
X116150571Y-100801714D01*
X116332000Y-100801714D01*
X116440857Y-100838000D01*
X116513428Y-100910571D01*
X116549714Y-100983142D01*
X116586000Y-101128285D01*
X116586000Y-101237142D01*
X116549714Y-101382285D01*
X116513428Y-101454857D01*
X116440857Y-101527428D01*
X116332000Y-101563714D01*
X116150571Y-101563714D01*
X117311714Y-101563714D02*
X116876285Y-101563714D01*
X117094000Y-101563714D02*
X117094000Y-100801714D01*
X117021428Y-100910571D01*
X116948857Y-100983142D01*
X116876285Y-101019428D01*
X130556000Y-112612714D02*
X130556000Y-113157000D01*
X130519714Y-113265857D01*
X130447142Y-113338428D01*
X130338285Y-113374714D01*
X130265714Y-113374714D01*
X130846285Y-112612714D02*
X131318000Y-112612714D01*
X131064000Y-112903000D01*
X131172857Y-112903000D01*
X131245428Y-112939285D01*
X131281714Y-112975571D01*
X131318000Y-113048142D01*
X131318000Y-113229571D01*
X131281714Y-113302142D01*
X131245428Y-113338428D01*
X131172857Y-113374714D01*
X130955142Y-113374714D01*
X130882571Y-113338428D01*
X130846285Y-113302142D01*
X150561000Y-105902714D02*
X150561000Y-106447000D01*
X150524714Y-106555857D01*
X150452142Y-106628428D01*
X150343285Y-106664714D01*
X150270714Y-106664714D01*
X150887571Y-105975285D02*
X150923857Y-105939000D01*
X150996428Y-105902714D01*
X151177857Y-105902714D01*
X151250428Y-105939000D01*
X151286714Y-105975285D01*
X151323000Y-106047857D01*
X151323000Y-106120428D01*
X151286714Y-106229285D01*
X150851285Y-106664714D01*
X151323000Y-106664714D01*
X107532714Y-116586000D02*
X108077000Y-116586000D01*
X108185857Y-116622285D01*
X108258428Y-116694857D01*
X108294714Y-116803714D01*
X108294714Y-116876285D01*
X108294714Y-115824000D02*
X108294714Y-116259428D01*
X108294714Y-116041714D02*
X107532714Y-116041714D01*
X107641571Y-116114285D01*
X107714142Y-116186857D01*
X107750428Y-116259428D01*
X107155142Y-103359857D02*
X107191428Y-103396142D01*
X107227714Y-103505000D01*
X107227714Y-103577571D01*
X107191428Y-103686428D01*
X107118857Y-103759000D01*
X107046285Y-103795285D01*
X106901142Y-103831571D01*
X106792285Y-103831571D01*
X106647142Y-103795285D01*
X106574571Y-103759000D01*
X106502000Y-103686428D01*
X106465714Y-103577571D01*
X106465714Y-103505000D01*
X106502000Y-103396142D01*
X106538285Y-103359857D01*
X106719714Y-102706714D02*
X107227714Y-102706714D01*
X106429428Y-102888142D02*
X106973714Y-103069571D01*
X106973714Y-102597857D01*
X106465714Y-102380142D02*
X106465714Y-101908428D01*
X106756000Y-102162428D01*
X106756000Y-102053571D01*
X106792285Y-101981000D01*
X106828571Y-101944714D01*
X106901142Y-101908428D01*
X107082571Y-101908428D01*
X107155142Y-101944714D01*
X107191428Y-101981000D01*
X107227714Y-102053571D01*
X107227714Y-102271285D01*
X107191428Y-102343857D01*
X107155142Y-102380142D01*
X114750142Y-106139142D02*
X114713857Y-106175428D01*
X114605000Y-106211714D01*
X114532428Y-106211714D01*
X114423571Y-106175428D01*
X114351000Y-106102857D01*
X114314714Y-106030285D01*
X114278428Y-105885142D01*
X114278428Y-105776285D01*
X114314714Y-105631142D01*
X114351000Y-105558571D01*
X114423571Y-105486000D01*
X114532428Y-105449714D01*
X114605000Y-105449714D01*
X114713857Y-105486000D01*
X114750142Y-105522285D01*
X115403285Y-105703714D02*
X115403285Y-106211714D01*
X115221857Y-105413428D02*
X115040428Y-105957714D01*
X115512142Y-105957714D01*
X116129000Y-105703714D02*
X116129000Y-106211714D01*
X115947571Y-105413428D02*
X115766142Y-105957714D01*
X116237857Y-105957714D01*
X134191828Y-116473514D02*
X134191828Y-117090371D01*
X134228114Y-117162942D01*
X134264400Y-117199228D01*
X134336971Y-117235514D01*
X134482114Y-117235514D01*
X134554685Y-117199228D01*
X134590971Y-117162942D01*
X134627257Y-117090371D01*
X134627257Y-116473514D01*
X135316685Y-116473514D02*
X135171542Y-116473514D01*
X135098971Y-116509800D01*
X135062685Y-116546085D01*
X134990114Y-116654942D01*
X134953828Y-116800085D01*
X134953828Y-117090371D01*
X134990114Y-117162942D01*
X135026400Y-117199228D01*
X135098971Y-117235514D01*
X135244114Y-117235514D01*
X135316685Y-117199228D01*
X135352971Y-117162942D01*
X135389257Y-117090371D01*
X135389257Y-116908942D01*
X135352971Y-116836371D01*
X135316685Y-116800085D01*
X135244114Y-116763800D01*
X135098971Y-116763800D01*
X135026400Y-116800085D01*
X134990114Y-116836371D01*
X134953828Y-116908942D01*
X109492142Y-120631857D02*
X109492142Y-120994714D01*
X109238142Y-120232714D02*
X109492142Y-120631857D01*
X109746142Y-120232714D01*
X110399285Y-120994714D02*
X109963857Y-120994714D01*
X110181571Y-120994714D02*
X110181571Y-120232714D01*
X110109000Y-120341571D01*
X110036428Y-120414142D01*
X109963857Y-120450428D01*
X138194142Y-117279057D02*
X138230428Y-117315342D01*
X138266714Y-117424200D01*
X138266714Y-117496771D01*
X138230428Y-117605628D01*
X138157857Y-117678200D01*
X138085285Y-117714485D01*
X137940142Y-117750771D01*
X137831285Y-117750771D01*
X137686142Y-117714485D01*
X137613571Y-117678200D01*
X137541000Y-117605628D01*
X137504714Y-117496771D01*
X137504714Y-117424200D01*
X137541000Y-117315342D01*
X137577285Y-117279057D01*
X137504714Y-116589628D02*
X137504714Y-116952485D01*
X137867571Y-116988771D01*
X137831285Y-116952485D01*
X137795000Y-116879914D01*
X137795000Y-116698485D01*
X137831285Y-116625914D01*
X137867571Y-116589628D01*
X137940142Y-116553342D01*
X138121571Y-116553342D01*
X138194142Y-116589628D01*
X138230428Y-116625914D01*
X138266714Y-116698485D01*
X138266714Y-116879914D01*
X138230428Y-116952485D01*
X138194142Y-116988771D01*
X137577285Y-116263057D02*
X137541000Y-116226771D01*
X137504714Y-116154200D01*
X137504714Y-115972771D01*
X137541000Y-115900200D01*
X137577285Y-115863914D01*
X137649857Y-115827628D01*
X137722428Y-115827628D01*
X137831285Y-115863914D01*
X138266714Y-116299342D01*
X138266714Y-115827628D01*
X132606142Y-121139857D02*
X132642428Y-121176142D01*
X132678714Y-121285000D01*
X132678714Y-121357571D01*
X132642428Y-121466428D01*
X132569857Y-121539000D01*
X132497285Y-121575285D01*
X132352142Y-121611571D01*
X132243285Y-121611571D01*
X132098142Y-121575285D01*
X132025571Y-121539000D01*
X131953000Y-121466428D01*
X131916714Y-121357571D01*
X131916714Y-121285000D01*
X131953000Y-121176142D01*
X131989285Y-121139857D01*
X131916714Y-120450428D02*
X131916714Y-120813285D01*
X132279571Y-120849571D01*
X132243285Y-120813285D01*
X132207000Y-120740714D01*
X132207000Y-120559285D01*
X132243285Y-120486714D01*
X132279571Y-120450428D01*
X132352142Y-120414142D01*
X132533571Y-120414142D01*
X132606142Y-120450428D01*
X132642428Y-120486714D01*
X132678714Y-120559285D01*
X132678714Y-120740714D01*
X132642428Y-120813285D01*
X132606142Y-120849571D01*
X131916714Y-119942428D02*
X131916714Y-119869857D01*
X131953000Y-119797285D01*
X131989285Y-119761000D01*
X132061857Y-119724714D01*
X132207000Y-119688428D01*
X132388428Y-119688428D01*
X132533571Y-119724714D01*
X132606142Y-119761000D01*
X132642428Y-119797285D01*
X132678714Y-119869857D01*
X132678714Y-119942428D01*
X132642428Y-120015000D01*
X132606142Y-120051285D01*
X132533571Y-120087571D01*
X132388428Y-120123857D01*
X132207000Y-120123857D01*
X132061857Y-120087571D01*
X131989285Y-120051285D01*
X131953000Y-120015000D01*
X131916714Y-119942428D01*
X127562428Y-113882714D02*
X127562428Y-114499571D01*
X127598714Y-114572142D01*
X127635000Y-114608428D01*
X127707571Y-114644714D01*
X127852714Y-114644714D01*
X127925285Y-114608428D01*
X127961571Y-114572142D01*
X127997857Y-114499571D01*
X127997857Y-113882714D01*
X128759857Y-114644714D02*
X128324428Y-114644714D01*
X128542142Y-114644714D02*
X128542142Y-113882714D01*
X128469571Y-113991571D01*
X128397000Y-114064142D01*
X128324428Y-114100428D01*
X101164571Y-105664000D02*
X101164571Y-105918000D01*
X101563714Y-105918000D02*
X100801714Y-105918000D01*
X100801714Y-105555142D01*
X101563714Y-104865714D02*
X101563714Y-105301142D01*
X101563714Y-105083428D02*
X100801714Y-105083428D01*
X100910571Y-105156000D01*
X100983142Y-105228571D01*
X101019428Y-105301142D01*
X104974571Y-124423714D02*
X104974571Y-123661714D01*
X105156000Y-123661714D01*
X105264857Y-123698000D01*
X105337428Y-123770571D01*
X105373714Y-123843142D01*
X105410000Y-123988285D01*
X105410000Y-124097142D01*
X105373714Y-124242285D01*
X105337428Y-124314857D01*
X105264857Y-124387428D01*
X105156000Y-124423714D01*
X104974571Y-124423714D01*
X105700285Y-123734285D02*
X105736571Y-123698000D01*
X105809142Y-123661714D01*
X105990571Y-123661714D01*
X106063142Y-123698000D01*
X106099428Y-123734285D01*
X106135714Y-123806857D01*
X106135714Y-123879428D01*
X106099428Y-123988285D01*
X105664000Y-124423714D01*
X106135714Y-124423714D01*
X119652142Y-103396142D02*
X119615857Y-103432428D01*
X119507000Y-103468714D01*
X119434428Y-103468714D01*
X119325571Y-103432428D01*
X119253000Y-103359857D01*
X119216714Y-103287285D01*
X119180428Y-103142142D01*
X119180428Y-103033285D01*
X119216714Y-102888142D01*
X119253000Y-102815571D01*
X119325571Y-102743000D01*
X119434428Y-102706714D01*
X119507000Y-102706714D01*
X119615857Y-102743000D01*
X119652142Y-102779285D01*
X120305285Y-102960714D02*
X120305285Y-103468714D01*
X120123857Y-102670428D02*
X119942428Y-103214714D01*
X120414142Y-103214714D01*
X120631857Y-102706714D02*
X121139857Y-102706714D01*
X120813285Y-103468714D01*
X133440714Y-123298857D02*
X133077857Y-123552857D01*
X133440714Y-123734285D02*
X132678714Y-123734285D01*
X132678714Y-123444000D01*
X132715000Y-123371428D01*
X132751285Y-123335142D01*
X132823857Y-123298857D01*
X132932714Y-123298857D01*
X133005285Y-123335142D01*
X133041571Y-123371428D01*
X133077857Y-123444000D01*
X133077857Y-123734285D01*
X132678714Y-123044857D02*
X132678714Y-122573142D01*
X132969000Y-122827142D01*
X132969000Y-122718285D01*
X133005285Y-122645714D01*
X133041571Y-122609428D01*
X133114142Y-122573142D01*
X133295571Y-122573142D01*
X133368142Y-122609428D01*
X133404428Y-122645714D01*
X133440714Y-122718285D01*
X133440714Y-122936000D01*
X133404428Y-123008571D01*
X133368142Y-123044857D01*
X132751285Y-122282857D02*
X132715000Y-122246571D01*
X132678714Y-122174000D01*
X132678714Y-121992571D01*
X132715000Y-121920000D01*
X132751285Y-121883714D01*
X132823857Y-121847428D01*
X132896428Y-121847428D01*
X133005285Y-121883714D01*
X133440714Y-122319142D01*
X133440714Y-121847428D01*
D13*
X136723380Y-127599866D02*
X135723380Y-127599866D01*
X136437666Y-127266533D01*
X135723380Y-126933200D01*
X136723380Y-126933200D01*
X136723380Y-126314152D02*
X136675761Y-126409390D01*
X136628142Y-126457009D01*
X136532904Y-126504628D01*
X136247190Y-126504628D01*
X136151952Y-126457009D01*
X136104333Y-126409390D01*
X136056714Y-126314152D01*
X136056714Y-126171295D01*
X136104333Y-126076057D01*
X136151952Y-126028438D01*
X136247190Y-125980819D01*
X136532904Y-125980819D01*
X136628142Y-126028438D01*
X136675761Y-126076057D01*
X136723380Y-126171295D01*
X136723380Y-126314152D01*
X136723380Y-125123676D02*
X135723380Y-125123676D01*
X136675761Y-125123676D02*
X136723380Y-125218914D01*
X136723380Y-125409390D01*
X136675761Y-125504628D01*
X136628142Y-125552247D01*
X136532904Y-125599866D01*
X136247190Y-125599866D01*
X136151952Y-125552247D01*
X136104333Y-125504628D01*
X136056714Y-125409390D01*
X136056714Y-125218914D01*
X136104333Y-125123676D01*
X136675761Y-124266533D02*
X136723380Y-124361771D01*
X136723380Y-124552247D01*
X136675761Y-124647485D01*
X136580523Y-124695104D01*
X136199571Y-124695104D01*
X136104333Y-124647485D01*
X136056714Y-124552247D01*
X136056714Y-124361771D01*
X136104333Y-124266533D01*
X136199571Y-124218914D01*
X136294809Y-124218914D01*
X136390047Y-124695104D01*
D14*
X114644714Y-112776000D02*
X114644714Y-113138857D01*
X113882714Y-113138857D01*
X114644714Y-112122857D02*
X114644714Y-112558285D01*
X114644714Y-112340571D02*
X113882714Y-112340571D01*
X113991571Y-112413142D01*
X114064142Y-112485714D01*
X114100428Y-112558285D01*
X110036428Y-100547714D02*
X110036428Y-101164571D01*
X110072714Y-101237142D01*
X110109000Y-101273428D01*
X110181571Y-101309714D01*
X110326714Y-101309714D01*
X110399285Y-101273428D01*
X110435571Y-101237142D01*
X110471857Y-101164571D01*
X110471857Y-100547714D01*
X111197571Y-100547714D02*
X110834714Y-100547714D01*
X110798428Y-100910571D01*
X110834714Y-100874285D01*
X110907285Y-100838000D01*
X111088714Y-100838000D01*
X111161285Y-100874285D01*
X111197571Y-100910571D01*
X111233857Y-100983142D01*
X111233857Y-101164571D01*
X111197571Y-101237142D01*
X111161285Y-101273428D01*
X111088714Y-101309714D01*
X110907285Y-101309714D01*
X110834714Y-101273428D01*
X110798428Y-101237142D01*
X103178428Y-110072714D02*
X103178428Y-110689571D01*
X103214714Y-110762142D01*
X103251000Y-110798428D01*
X103323571Y-110834714D01*
X103468714Y-110834714D01*
X103541285Y-110798428D01*
X103577571Y-110762142D01*
X103613857Y-110689571D01*
X103613857Y-110072714D01*
X103904142Y-110072714D02*
X104375857Y-110072714D01*
X104121857Y-110363000D01*
X104230714Y-110363000D01*
X104303285Y-110399285D01*
X104339571Y-110435571D01*
X104375857Y-110508142D01*
X104375857Y-110689571D01*
X104339571Y-110762142D01*
X104303285Y-110798428D01*
X104230714Y-110834714D01*
X104013000Y-110834714D01*
X103940428Y-110798428D01*
X103904142Y-110762142D01*
X137903857Y-113374714D02*
X137649857Y-113011857D01*
X137468428Y-113374714D02*
X137468428Y-112612714D01*
X137758714Y-112612714D01*
X137831285Y-112649000D01*
X137867571Y-112685285D01*
X137903857Y-112757857D01*
X137903857Y-112866714D01*
X137867571Y-112939285D01*
X137831285Y-112975571D01*
X137758714Y-113011857D01*
X137468428Y-113011857D01*
X138230428Y-113374714D02*
X138230428Y-112612714D01*
X138665857Y-113374714D01*
X138665857Y-112612714D01*
X139355285Y-112866714D02*
X139355285Y-113374714D01*
X139173857Y-112576428D02*
X138992428Y-113120714D01*
X139464142Y-113120714D01*
X135109857Y-113374714D02*
X134855857Y-113011857D01*
X134674428Y-113374714D02*
X134674428Y-112612714D01*
X134964714Y-112612714D01*
X135037285Y-112649000D01*
X135073571Y-112685285D01*
X135109857Y-112757857D01*
X135109857Y-112866714D01*
X135073571Y-112939285D01*
X135037285Y-112975571D01*
X134964714Y-113011857D01*
X134674428Y-113011857D01*
X135436428Y-113374714D02*
X135436428Y-112612714D01*
X135871857Y-113374714D01*
X135871857Y-112612714D01*
X136162142Y-112612714D02*
X136633857Y-112612714D01*
X136379857Y-112903000D01*
X136488714Y-112903000D01*
X136561285Y-112939285D01*
X136597571Y-112975571D01*
X136633857Y-113048142D01*
X136633857Y-113229571D01*
X136597571Y-113302142D01*
X136561285Y-113338428D01*
X136488714Y-113374714D01*
X136271000Y-113374714D01*
X136198428Y-113338428D01*
X136162142Y-113302142D01*
X110236000Y-119089714D02*
X109982000Y-118726857D01*
X109800571Y-119089714D02*
X109800571Y-118327714D01*
X110090857Y-118327714D01*
X110163428Y-118364000D01*
X110199714Y-118400285D01*
X110236000Y-118472857D01*
X110236000Y-118581714D01*
X110199714Y-118654285D01*
X110163428Y-118690571D01*
X110090857Y-118726857D01*
X109800571Y-118726857D01*
X110490000Y-118327714D02*
X110998000Y-118327714D01*
X110671428Y-119089714D01*
X110236000Y-118073714D02*
X109982000Y-117710857D01*
X109800571Y-118073714D02*
X109800571Y-117311714D01*
X110090857Y-117311714D01*
X110163428Y-117348000D01*
X110199714Y-117384285D01*
X110236000Y-117456857D01*
X110236000Y-117565714D01*
X110199714Y-117638285D01*
X110163428Y-117674571D01*
X110090857Y-117710857D01*
X109800571Y-117710857D01*
X110889142Y-117311714D02*
X110744000Y-117311714D01*
X110671428Y-117348000D01*
X110635142Y-117384285D01*
X110562571Y-117493142D01*
X110526285Y-117638285D01*
X110526285Y-117928571D01*
X110562571Y-118001142D01*
X110598857Y-118037428D01*
X110671428Y-118073714D01*
X110816571Y-118073714D01*
X110889142Y-118037428D01*
X110925428Y-118001142D01*
X110961714Y-117928571D01*
X110961714Y-117747142D01*
X110925428Y-117674571D01*
X110889142Y-117638285D01*
X110816571Y-117602000D01*
X110671428Y-117602000D01*
X110598857Y-117638285D01*
X110562571Y-117674571D01*
X110526285Y-117747142D01*
X112104714Y-106426000D02*
X112104714Y-106788857D01*
X111342714Y-106788857D01*
X111415285Y-106208285D02*
X111379000Y-106172000D01*
X111342714Y-106099428D01*
X111342714Y-105918000D01*
X111379000Y-105845428D01*
X111415285Y-105809142D01*
X111487857Y-105772857D01*
X111560428Y-105772857D01*
X111669285Y-105809142D01*
X112104714Y-106244571D01*
X112104714Y-105772857D01*
X102126142Y-104793142D02*
X102089857Y-104829428D01*
X101981000Y-104865714D01*
X101908428Y-104865714D01*
X101799571Y-104829428D01*
X101727000Y-104756857D01*
X101690714Y-104684285D01*
X101654428Y-104539142D01*
X101654428Y-104430285D01*
X101690714Y-104285142D01*
X101727000Y-104212571D01*
X101799571Y-104140000D01*
X101908428Y-104103714D01*
X101981000Y-104103714D01*
X102089857Y-104140000D01*
X102126142Y-104176285D01*
X102380142Y-104103714D02*
X102851857Y-104103714D01*
X102597857Y-104394000D01*
X102706714Y-104394000D01*
X102779285Y-104430285D01*
X102815571Y-104466571D01*
X102851857Y-104539142D01*
X102851857Y-104720571D01*
X102815571Y-104793142D01*
X102779285Y-104829428D01*
X102706714Y-104865714D01*
X102489000Y-104865714D01*
X102416428Y-104829428D01*
X102380142Y-104793142D01*
X103505000Y-104357714D02*
X103505000Y-104865714D01*
X103323571Y-104067428D02*
X103142142Y-104611714D01*
X103613857Y-104611714D01*
X105047142Y-104793142D02*
X105010857Y-104829428D01*
X104902000Y-104865714D01*
X104829428Y-104865714D01*
X104720571Y-104829428D01*
X104648000Y-104756857D01*
X104611714Y-104684285D01*
X104575428Y-104539142D01*
X104575428Y-104430285D01*
X104611714Y-104285142D01*
X104648000Y-104212571D01*
X104720571Y-104140000D01*
X104829428Y-104103714D01*
X104902000Y-104103714D01*
X105010857Y-104140000D01*
X105047142Y-104176285D01*
X105301142Y-104103714D02*
X105772857Y-104103714D01*
X105518857Y-104394000D01*
X105627714Y-104394000D01*
X105700285Y-104430285D01*
X105736571Y-104466571D01*
X105772857Y-104539142D01*
X105772857Y-104720571D01*
X105736571Y-104793142D01*
X105700285Y-104829428D01*
X105627714Y-104865714D01*
X105410000Y-104865714D01*
X105337428Y-104829428D01*
X105301142Y-104793142D01*
X106498571Y-104865714D02*
X106063142Y-104865714D01*
X106280857Y-104865714D02*
X106280857Y-104103714D01*
X106208285Y-104212571D01*
X106135714Y-104285142D01*
X106063142Y-104321428D01*
X105682142Y-111778142D02*
X105645857Y-111814428D01*
X105537000Y-111850714D01*
X105464428Y-111850714D01*
X105355571Y-111814428D01*
X105283000Y-111741857D01*
X105246714Y-111669285D01*
X105210428Y-111524142D01*
X105210428Y-111415285D01*
X105246714Y-111270142D01*
X105283000Y-111197571D01*
X105355571Y-111125000D01*
X105464428Y-111088714D01*
X105537000Y-111088714D01*
X105645857Y-111125000D01*
X105682142Y-111161285D01*
X105972428Y-111161285D02*
X106008714Y-111125000D01*
X106081285Y-111088714D01*
X106262714Y-111088714D01*
X106335285Y-111125000D01*
X106371571Y-111161285D01*
X106407857Y-111233857D01*
X106407857Y-111306428D01*
X106371571Y-111415285D01*
X105936142Y-111850714D01*
X106407857Y-111850714D01*
X107061000Y-111088714D02*
X106915857Y-111088714D01*
X106843285Y-111125000D01*
X106807000Y-111161285D01*
X106734428Y-111270142D01*
X106698142Y-111415285D01*
X106698142Y-111705571D01*
X106734428Y-111778142D01*
X106770714Y-111814428D01*
X106843285Y-111850714D01*
X106988428Y-111850714D01*
X107061000Y-111814428D01*
X107097285Y-111778142D01*
X107133571Y-111705571D01*
X107133571Y-111524142D01*
X107097285Y-111451571D01*
X107061000Y-111415285D01*
X106988428Y-111379000D01*
X106843285Y-111379000D01*
X106770714Y-111415285D01*
X106734428Y-111451571D01*
X106698142Y-111524142D01*
X105682142Y-110762142D02*
X105645857Y-110798428D01*
X105537000Y-110834714D01*
X105464428Y-110834714D01*
X105355571Y-110798428D01*
X105283000Y-110725857D01*
X105246714Y-110653285D01*
X105210428Y-110508142D01*
X105210428Y-110399285D01*
X105246714Y-110254142D01*
X105283000Y-110181571D01*
X105355571Y-110109000D01*
X105464428Y-110072714D01*
X105537000Y-110072714D01*
X105645857Y-110109000D01*
X105682142Y-110145285D01*
X105972428Y-110145285D02*
X106008714Y-110109000D01*
X106081285Y-110072714D01*
X106262714Y-110072714D01*
X106335285Y-110109000D01*
X106371571Y-110145285D01*
X106407857Y-110217857D01*
X106407857Y-110290428D01*
X106371571Y-110399285D01*
X105936142Y-110834714D01*
X106407857Y-110834714D01*
X107061000Y-110326714D02*
X107061000Y-110834714D01*
X106879571Y-110036428D02*
X106698142Y-110580714D01*
X107169857Y-110580714D01*
X119652142Y-106444142D02*
X119615857Y-106480428D01*
X119507000Y-106516714D01*
X119434428Y-106516714D01*
X119325571Y-106480428D01*
X119253000Y-106407857D01*
X119216714Y-106335285D01*
X119180428Y-106190142D01*
X119180428Y-106081285D01*
X119216714Y-105936142D01*
X119253000Y-105863571D01*
X119325571Y-105791000D01*
X119434428Y-105754714D01*
X119507000Y-105754714D01*
X119615857Y-105791000D01*
X119652142Y-105827285D01*
X120377857Y-106516714D02*
X119942428Y-106516714D01*
X120160142Y-106516714D02*
X120160142Y-105754714D01*
X120087571Y-105863571D01*
X120015000Y-105936142D01*
X119942428Y-105972428D01*
X121067285Y-105754714D02*
X120704428Y-105754714D01*
X120668142Y-106117571D01*
X120704428Y-106081285D01*
X120777000Y-106045000D01*
X120958428Y-106045000D01*
X121031000Y-106081285D01*
X121067285Y-106117571D01*
X121103571Y-106190142D01*
X121103571Y-106371571D01*
X121067285Y-106444142D01*
X121031000Y-106480428D01*
X120958428Y-106516714D01*
X120777000Y-106516714D01*
X120704428Y-106480428D01*
X120668142Y-106444142D01*
X119652142Y-105428142D02*
X119615857Y-105464428D01*
X119507000Y-105500714D01*
X119434428Y-105500714D01*
X119325571Y-105464428D01*
X119253000Y-105391857D01*
X119216714Y-105319285D01*
X119180428Y-105174142D01*
X119180428Y-105065285D01*
X119216714Y-104920142D01*
X119253000Y-104847571D01*
X119325571Y-104775000D01*
X119434428Y-104738714D01*
X119507000Y-104738714D01*
X119615857Y-104775000D01*
X119652142Y-104811285D01*
X120377857Y-105500714D02*
X119942428Y-105500714D01*
X120160142Y-105500714D02*
X120160142Y-104738714D01*
X120087571Y-104847571D01*
X120015000Y-104920142D01*
X119942428Y-104956428D01*
X120849571Y-104738714D02*
X120922142Y-104738714D01*
X120994714Y-104775000D01*
X121031000Y-104811285D01*
X121067285Y-104883857D01*
X121103571Y-105029000D01*
X121103571Y-105210428D01*
X121067285Y-105355571D01*
X121031000Y-105428142D01*
X120994714Y-105464428D01*
X120922142Y-105500714D01*
X120849571Y-105500714D01*
X120777000Y-105464428D01*
X120740714Y-105428142D01*
X120704428Y-105355571D01*
X120668142Y-105210428D01*
X120668142Y-105029000D01*
X120704428Y-104883857D01*
X120740714Y-104811285D01*
X120777000Y-104775000D01*
X120849571Y-104738714D01*
X119634000Y-104412142D02*
X119597714Y-104448428D01*
X119488857Y-104484714D01*
X119416285Y-104484714D01*
X119307428Y-104448428D01*
X119234857Y-104375857D01*
X119198571Y-104303285D01*
X119162285Y-104158142D01*
X119162285Y-104049285D01*
X119198571Y-103904142D01*
X119234857Y-103831571D01*
X119307428Y-103759000D01*
X119416285Y-103722714D01*
X119488857Y-103722714D01*
X119597714Y-103759000D01*
X119634000Y-103795285D01*
X120323428Y-103722714D02*
X119960571Y-103722714D01*
X119924285Y-104085571D01*
X119960571Y-104049285D01*
X120033142Y-104013000D01*
X120214571Y-104013000D01*
X120287142Y-104049285D01*
X120323428Y-104085571D01*
X120359714Y-104158142D01*
X120359714Y-104339571D01*
X120323428Y-104412142D01*
X120287142Y-104448428D01*
X120214571Y-104484714D01*
X120033142Y-104484714D01*
X119960571Y-104448428D01*
X119924285Y-104412142D01*
M02*
