M48
; DRILL file {KiCad (5.1.5)-3} date 2020/4/26 22:01:22
; FORMAT={-:-/ absolute / metric / decimal}
; #@! TF.CreationDate,2020-04-26T22:01:22+08:00
; #@! TF.GenerationSoftware,Kicad,Pcbnew,(5.1.5)-3
; #@! TF.FileFunction,Plated,1,2,PTH
FMAT,2
METRIC
T1C0.203
T2C0.600
T3C0.650
T4C0.900
T5C1.000
T6C1.016
%
G90
G05
T1
X101.092Y-123.546
X102.108Y-104.013
X102.87Y-107.569
X103.759Y-114.427
X103.886Y-123.063
X104.013Y-112.395
X104.775Y-116.967
X104.775Y-118.491
X104.775Y-126.746
X104.978Y-106.451
X105.029Y-110.109
X105.27Y-108.064
X105.283Y-108.966
X105.537Y-101.473
X106.045Y-129.413
X106.478Y-104.827
X106.807Y-117.538
X106.807Y-123.698
X106.858Y-119.507
X106.883Y-116.484
X107.442Y-125.349
X107.467Y-118.491
X107.645Y-116.865
X107.95Y-119.888
X108.458Y-129.54
X108.61Y-103.378
X108.816Y-110.513
X109.372Y-121.387
X109.398Y-111.633
X109.499Y-124.409
X109.703Y-119.38
X109.791Y-117.411
X109.982Y-113.792
X110.16Y-122.428
X110.312Y-103.378
X110.49Y-133.223
X110.846Y-120.548
X111.47Y-118.933
X111.633Y-107.315
X111.633Y-125.984
X111.76Y-123.825
X111.76Y-128.397
X111.887Y-105.664
X112.42Y-118.262
X112.497Y-104.242
X112.547Y-130.454
X112.712Y-116.078
X112.979Y-118.618
X113.005Y-117.653
X113.233Y-120.625
X113.271Y-122.669
X113.335Y-128.27
X113.665Y-113.538
X113.817Y-130.708
X113.944Y-126.848
X114.3Y-101.854
X115.062Y-108.712
X115.062Y-128.219
X115.35Y-101.718
X115.35Y-102.455
X115.443Y-132.588
X115.697Y-116.789
X115.697Y-117.983
X115.697Y-118.897
X115.697Y-119.659
X115.697Y-125.857
X115.722Y-120.701
X115.722Y-121.666
X115.722Y-123.495
X115.722Y-124.993
X115.951Y-114.427
X116.23Y-129.083
X116.408Y-130.81
X116.738Y-126.67
X116.931Y-125.385
X117.094Y-119.786
X117.134Y-122.387
X117.577Y-113.436
X117.577Y-115.418
X117.602Y-101.727
X118.415Y-113.386
X118.669Y-108.407
X118.745Y-115.646
X118.745Y-126.555
X118.872Y-117.958
X119.154Y-125.118
X119.278Y-123.8
X119.431Y-121.564
X119.57Y-126.555
X119.609Y-120.65
X119.634Y-116.459
X119.634Y-130.302
X119.669Y-115.56
X119.951Y-112.649
X120.091Y-103.835
X120.119Y-125.118
X120.244Y-118.008
X120.32Y-113.182
X120.32Y-123.66
X120.447Y-107.036
X120.599Y-118.872
X120.828Y-112.751
X120.904Y-126.619
X121.056Y-101.702
X121.332Y-113.182
X121.361Y-104.521
X121.412Y-115.697
X121.539Y-102.235
X121.666Y-107.823
X121.717Y-109.22
X121.818Y-112.751
X121.971Y-126.467
X122.11Y-132.524
X122.809Y-115.646
X122.809Y-128.905
X123.241Y-100.584
X123.253Y-126.555
X123.342Y-132.537
X123.393Y-131.928
X123.495Y-121.514
X123.558Y-118.834
X123.888Y-113.411
X124.028Y-123.571
X124.079Y-116.84
X124.142Y-126.556
X124.206Y-104.445
X124.219Y-124.841
X124.308Y-106.578
X124.333Y-112.014
X124.587Y-129.591
X124.79Y-126.543
X125.4Y-126.619
X125.984Y-134.874
X126.187Y-114.402
X126.39Y-121.183
X126.467Y-117.856
X126.492Y-117.043
X126.492Y-118.808
X126.492Y-119.761
X126.746Y-124.816
X127.063Y-130.835
X127.737Y-113.97
X128.168Y-104.292
X128.803Y-116.307
X128.841Y-118.173
X128.88Y-118.809
X128.88Y-119.888
X128.905Y-121.818
X129.032Y-121.158
X129.095Y-125.019
X129.159Y-119.38
X129.235Y-128.854
X129.73Y-115.849
X130.073Y-128.397
X130.15Y-123.469
X130.378Y-120.345
X130.823Y-115.189
X130.861Y-130.759
X130.949Y-120.485
X131.216Y-119.075
X131.229Y-117.323
X131.242Y-118.466
X131.521Y-116.281
X131.521Y-121.26
X131.953Y-127.711
X131.953Y-129.54
X132.385Y-100.787
X132.385Y-128.422
X132.563Y-129.515
X132.791Y-105.461
X132.893Y-125.679
X132.918Y-129.057
X133.172Y-117.297
X133.426Y-124.358
X133.452Y-121.895
X133.477Y-117.856
X133.589Y-114.803
X133.96Y-120.269
X134.087Y-133.706
X134.214Y-121.323
X134.417Y-123.85
X134.874Y-116.002
X135.026Y-106.782
X135.382Y-115.646
X135.405Y-119.416
X135.687Y-126.111
X135.89Y-116.002
X135.966Y-127.305
X136.144Y-120.396
X136.398Y-115.646
X137.023Y-114.518
X137.043Y-116.835
X137.236Y-128.194
X137.668Y-115.926
X137.668Y-123.952
X137.82Y-131.42
X138.201Y-115.646
X138.786Y-119.583
X139.243Y-107.34
X139.675Y-132.69
X139.7Y-111.1
X140.589Y-126.746
X140.665Y-116.332
X140.665Y-120.294
X140.797Y-117.922
X141.046Y-121.209
X141.122Y-114.402
X142.24Y-109.22
X142.951Y-104.089
X143.51Y-124.968
X143.815Y-110.541
X145.034Y-129.261
X147.117Y-105.969
X149.758Y-128.321
X151.435Y-109.372
X153.416Y-125.222
X153.67Y-119.177
T3
X136.398Y-121.666
X136.398Y-122.936
T4
X109.982Y-125.832
X109.982Y-127.102
X109.982Y-128.372
X109.982Y-129.642
T5
X101.6Y-126.492
X101.6Y-129.032
X101.6Y-131.572
X101.6Y-134.112
X108.458Y-100.838
X106.172Y-134.112
X108.712Y-134.112
X117.06Y-133.723
X119.6Y-133.723
X122.14Y-133.723
X124.68Y-133.723
X127.22Y-133.723
X129.76Y-133.723
X132.3Y-133.723
T6
X144.71Y-112.67
X144.71Y-115.21
X144.71Y-117.75
X144.71Y-120.29
X144.71Y-122.83
X147.25Y-112.67
X147.25Y-115.21
X147.25Y-117.75
X147.25Y-120.29
X147.25Y-122.83
X122.92Y-108.46
X122.92Y-111.0
X125.46Y-108.46
X125.46Y-111.0
X128.0Y-108.46
X128.0Y-111.0
X130.54Y-108.46
X130.54Y-111.0
X133.08Y-108.46
X133.08Y-111.0
T2
X100.72Y-113.43
X100.92Y-113.43
X101.12Y-113.43
X101.32Y-113.43
X101.52Y-113.43
X100.72Y-122.07
X100.92Y-122.07
X101.12Y-122.07
X101.32Y-122.07
X101.52Y-122.07
X104.74Y-113.43
X104.94Y-113.43
X105.14Y-113.43
X105.34Y-113.43
X105.54Y-113.43
X105.74Y-113.43
X105.84Y-113.43
X104.74Y-122.07
X104.94Y-122.07
X105.14Y-122.07
X105.34Y-122.07
X105.54Y-122.07
X105.74Y-122.07
X105.84Y-122.07
T0
M30
